<svg version="1.2" xmlns="http://www.w3.org/2000/svg" viewBox="0 0 413 109" width="413" height="109">
	<title>velo-v-2024</title>
	<style>
		.s0 { fill: #e4032e } 
		.s1 { fill: #010101 } 
	</style>
	<g>
		<path fill-rule="evenodd" class="s0" d="m395.2 32.9l17.4 5.6-21-37.8-39.1 18.3 17.3 5.6-17.2 53.3h-3.5l-15.1-46.7h-28.1l24.4 74.9h41.1l23.8-73.3z"/>
		<path fill-rule="evenodd" class="s0" d="m286.8 10.1h16.9v18.6h-16.9z"/>
		<path fill-rule="evenodd" class="s1" d="m91.7 31.2v74.9h70.5v-23.3h-41.2v-4.9h39.6v-18.5h-39.6v-4.9h41.2v-23.3h-70.5z"/>
		<path fill-rule="evenodd" class="s1" d="m61.8 31.2l-15.1 46.7h-3.4l-15.2-46.7h-28.1l24.4 74.9h41.1l24.7-74.9h-28.4z"/>
		<path fill-rule="evenodd" class="s1" d="m194.3 81.7v-50.5h-29.4v74.9h67.2v-24.4h-37.8z"/>
		<path class="s1" d="m272.1 28.7c-22.1 0-40 17.9-40 39.9 0 22.1 17.9 40 40 40 22 0 39.9-17.9 39.9-40 0-22-17.9-39.9-39.9-39.9zm0 54.7c-8.2 0-14.8-6.6-14.8-14.8 0-8.1 6.6-14.7 14.8-14.7 8.1 0 14.7 6.6 14.7 14.7 0 8.2-6.6 14.8-14.7 14.8z"/>
	</g>
</svg>