<?xml version="1.0" encoding="utf-8"?>
<!-- Generator: Adobe Illustrator 22.1.0, SVG Export Plug-In . SVG Version: 6.00 Build 0)  -->
<svg version="1.1" xmlns="http://www.w3.org/2000/svg" xmlns:xlink="http://www.w3.org/1999/xlink" x="0px" y="0px"
	 viewBox="0 0 88.7 33.6" style="enable-background:new 0 0 88.7 33.6;" xml:space="preserve">
<style type="text/css">
	.st0{fill:#FFFFFF;}
	.st1{fill:#EC2227;}
	.st2{fill:#6F4013;}
	.st3{fill:none;}
</style>
<g id="Calque_1" xmlns:serif="http://www.serif.com/">
	<path class="st0" d="M5.3,0C1.7,5.1-0.1,10.9,0,16.8c0,10.3,5.2,16.8,5.2,16.8h83.4V0H5.3z"/>
	<g>
		<g>
			<path class="st1" d="M6.5,2.8c0,0-3.5,5.4-3.5,13.9s3.5,13.9,3.5,13.9h31.4V2.8H6.5z"/>
			<path class="st0" d="M8.8,11.1h3.7c2.5,0,3.5,1.2,3.5,2.7c0,1.7-0.8,2.3-1.5,2.5c0.8,0.2,1.9,1,1.9,2.7c0,2.1-1.5,3.5-3.7,3.5
				H8.6V11.1H8.8z M12.1,15.7c1,0,1.7-0.4,1.7-1.5c0-0.6-0.4-1.5-1.7-1.5h-0.8v3H12.1z M12.4,20.7c1,0,2.1-0.4,2.1-1.7
				c0-1-0.6-1.7-1.9-1.7h-1.3v3.4H12.4z M27.9,19.6c0.8,0.4,1.7,0.8,2.9,0.8c1,0,1.7-0.6,1.7-1.2c0-0.8-0.6-1.2-2.3-2.1
				c-1.5-0.6-2.5-1.2-2.5-3.1s1.5-3.3,4-3.3c1.2,0,2.3,0.4,2.9,0.6L34,13.2c-0.6-0.4-1.5-0.6-2.3-0.6S30,13,30,13.8
				c0,0.6,0.4,1.2,1.7,1.7c2.3,1,2.9,1.9,2.9,3.3c0,2.7-2.1,3.5-3.7,3.5c-1.7,0-2.9-0.6-3.7-1.2C27.1,21.5,27.9,19.6,27.9,19.6z
				 M23.8,18.4v-7.3h2.5v7.5c0,3.1-2.1,4.2-4.2,4.2S18,21.9,18,18.6v-7.5h2.5v7.5c0,1.5,0.6,2.3,1.9,2.3
				C23.2,20.7,23.8,19.8,23.8,18.4z"/>
		</g>
		<rect x="43.5" y="2.7" class="st2" width="42.7" height="27.9"/>
		<path class="st0" d="M48,25.6v-2.3h4.1V11.8l-3.7,2.3l-1-2.1l5.4-2.9h2.5v14.1h3.3v2.3C58.6,25.6,48,25.6,48,25.6z M73.3,25.6V8.9
			h8.9v2.5H76v4.2h5.8v2.5H76v5h6.4v2.5C82.7,25.6,73.3,25.6,73.3,25.6z M68,25c-0.7,0.3-1.5,0.4-2.4,0.4s-1.7-0.1-2.4-0.4
			s-1.2-0.7-1.6-1.2c-0.4-0.5-0.7-1.1-0.9-1.8c-0.2-0.7-0.4-1.4-0.5-2.2c-0.1-0.7-0.1-1.5-0.1-2.4c0-1.1,0.1-2.1,0.2-3
			c0.2-0.9,0.4-1.7,0.8-2.5c0.4-0.8,1-1.4,1.7-1.9c0.8-0.5,1.7-0.7,2.7-0.7c0.9,0,1.6,0.2,2.3,0.5c0.7,0.3,1.2,0.7,1.6,1.2
			s0.7,1.1,1,1.8s0.4,1.4,0.5,2.2c0.1,0.7,0.1,1.5,0.1,2.4c0,0.9,0,1.8-0.1,2.5s-0.2,1.4-0.5,2.2c-0.2,0.7-0.5,1.3-0.9,1.8
			C69.2,24.3,68.7,24.7,68,25z M65.6,23c0.9,0,1.6-0.4,2-1.3c0.4-0.8,0.6-2.2,0.6-4.1c0-1.2-0.1-2.2-0.2-3c-0.1-0.8-0.4-1.5-0.8-2
			c-0.4-0.5-1-0.8-1.6-0.8c-0.5,0-0.9,0.1-1.3,0.4c-0.4,0.3-0.6,0.7-0.8,1.2s-0.3,1.2-0.4,1.8C63,15.9,63,16.6,63,17.5
			c0,1.9,0.2,3.3,0.6,4.1C64.1,22.6,64.7,23,65.6,23z"/>
		<path class="st3" d="M3.4,29.6H3.2l0,0H3.4L3.4,29.6l0.2,1H3.4V29.6z M4.9,29.6H4.5v0.2l0,0h0.2L4.9,30c0,0.2-0.2,0.4-0.4,0.4H4.2
			l0,0h0.2c0.2,0,0.2,0,0.2-0.2s0-0.2-0.4-0.2l0,0v-0.6L4.9,29.6L4.9,29.6z M5.9,30.2H5.5v0.4h0.6l0,0H5.3v-1.2h0.6l0,0H5.5v0.4
			L5.9,30.2L5.9,30.2z"/>
	</g>
</g>
<g id="_x37_efe3053-6b5f-4edd-b0b9-b66cb7077bb1">
</g>
</svg>
