<svg xmlns="http://www.w3.org/2000/svg" viewBox="0 0 83 28" enable-background="new 0 0 83 28"><g><g><path d="M3.592 0s-3.592 5.425-3.592 14.001c0 8.578 3.592 13.999 3.592 13.999h31.421v-28h-31.421z" fill="#EC2227"/><g fill="#fff"><path d="M5.871 8.355h3.838c2.432 0 3.503 1.25 3.503 2.678 0 1.584-.938 2.231-1.384 2.431.892.268 1.874 1.117 1.874 2.7 0 2.074-1.495 3.48-3.726 3.48h-4.105v-11.289zm3.301 4.597c1.026 0 1.696-.426 1.696-1.451 0-.715-.4-1.361-1.561-1.361h-1.072v2.812h.937zm.179 5.02c1.071 0 1.986-.38 1.986-1.719 0-1.05-.691-1.628-1.942-1.628h-1.16v3.347h1.116zM24.795 17.034c.76.401 1.607.826 2.878.826 1.071 0 1.606-.625 1.606-1.295 0-.915-.647-1.316-2.253-2.006-1.428-.603-2.433-1.34-2.433-3.192 0-1.785 1.361-3.279 3.994-3.279 1.295 0 2.275.358 2.877.692l-.714 1.941c-.581-.357-1.427-.625-2.296-.625-.937 0-1.585.423-1.585 1.16 0 .716.47 1.206 1.74 1.741 2.321.981 2.945 1.786 2.945 3.391 0 2.613-1.964 3.526-3.726 3.526-1.695 0-2.944-.602-3.769-1.162l.736-1.718zM20.833 15.717v-7.362h2.365v7.452c0 3.233-1.964 4.105-4.194 4.105-2.232 0-4.195-.872-4.195-4.105v-7.452h2.366v7.362c0 1.474.602 2.186 1.83 2.186 1.226-.001 1.828-.713 1.828-2.186z"/></g></g><path fill="#fff" stroke="#58595A" stroke-width="1.4" stroke-miterlimit="10" d="M40.414.7h42v26.6h-42z"/><g fill="#58595A"><path d="M43.828 23.284v-2.262h4.113v-11.458l-3.813 2.154-1.033-2.003 5.319-2.908h2.413v14.215h3.295v2.262h-10.294zM56.213 23.284v-2.262h4.113v-11.458l-3.813 2.154-1.033-2.003 5.32-2.908h2.413v14.215h3.295v2.262h-10.295zM68.102 23.284v-2.11c0-.833.236-1.608.711-2.326.474-.718 1.249-1.486 2.326-2.305l1.981-1.486c.775-.574 1.342-1.112 1.701-1.615.358-.503.539-1.092.539-1.767 0-1.751-.92-2.627-2.758-2.627-1.191 0-2.427.345-3.704 1.034l-.948-2.047c1.58-.948 3.202-1.422 4.868-1.422 1.68 0 3.026.409 4.038 1.228 1.013.818 1.519 1.967 1.519 3.446 0 1.264-.247 2.291-.743 3.08-.495.79-1.317 1.615-2.466 2.477l-2.391 1.788c-.604.445-.994.829-1.174 1.152s-.284.686-.313 1.088h7.345v2.412h-10.531z"/></g><g fill="none"><path d="M.472 26.864h-.004l-.226.122-.034-.134.284-.151h.15v1.299h-.17v-1.136zM1.498 26.864h-.004l-.226.122-.034-.134.284-.151h.15v1.299h-.17v-1.136zM2.142 28v-.108l.138-.134c.332-.315.483-.483.483-.68 0-.132-.062-.254-.256-.254-.118 0-.216.061-.276.11l-.056-.124c.088-.074.218-.132.366-.132.28 0 .398.192.398.378 0 .24-.174.434-.448.697l-.101.097v.005h.582v.145h-.83z"/></g></g></svg>