<?xml version="1.0" encoding="iso-8859-1"?>
<!-- Generator: Adobe Illustrator 22.1.0, SVG Export Plug-In . SVG Version: 6.00 Build 0)  -->
<svg version="1.1" xmlns="http://www.w3.org/2000/svg" xmlns:xlink="http://www.w3.org/1999/xlink" x="0px" y="0px"
	 viewBox="0 0 83 28" style="enable-background:new 0 0 83 28;" xml:space="preserve">
<g id="Layer_1">
</g>
<g id="TestEtiquetteArret">
	<g id="_x31_15">
		<g>
			<g id="Layer_1_1_">
			</g>
			<g id="Isolation_Mode">
				<g>
					<path style="fill:#EC2227;" d="M3.592,0C3.592,0,0,5.425,0,14.001C0,22.579,3.592,28,3.592,28h31.421V0H3.592z"/>
					<g>
						<path style="fill:#FFFFFF;" d="M5.871,8.355h3.838c2.432,0,3.503,1.25,3.503,2.678c0,1.584-0.938,2.231-1.384,2.431
							c0.892,0.268,1.874,1.117,1.874,2.7c0,2.074-1.495,3.48-3.726,3.48H5.871V8.355z M9.172,12.952
							c1.026,0,1.696-0.426,1.696-1.451c0-0.715-0.4-1.361-1.561-1.361H8.235v2.812H9.172z M9.351,17.972
							c1.071,0,1.986-0.38,1.986-1.719c0-1.05-0.691-1.628-1.942-1.628H8.235v3.347L9.351,17.972L9.351,17.972z"/>
						<path style="fill:#FFFFFF;" d="M24.795,17.034c0.76,0.401,1.607,0.826,2.878,0.826c1.071,0,1.606-0.625,1.606-1.295
							c0-0.915-0.647-1.316-2.253-2.006c-1.428-0.603-2.433-1.34-2.433-3.192c0-1.785,1.361-3.279,3.994-3.279
							c1.295,0,2.275,0.358,2.877,0.692l-0.714,1.941c-0.581-0.357-1.427-0.625-2.296-0.625c-0.937,0-1.585,0.423-1.585,1.16
							c0,0.716,0.47,1.206,1.74,1.741c2.321,0.981,2.945,1.786,2.945,3.391c0,2.613-1.964,3.526-3.726,3.526
							c-1.695,0-2.944-0.602-3.769-1.162L24.795,17.034z"/>
						<path style="fill:#FFFFFF;" d="M20.833,15.717V8.355h2.365v7.452c0,3.233-1.964,4.105-4.194,4.105
							c-2.232,0-4.195-0.872-4.195-4.105V8.355h2.366v7.362c0,1.474,0.602,2.186,1.83,2.186
							C20.231,17.902,20.833,17.19,20.833,15.717z"/>
					</g>
				</g>
			</g>
		</g>
		<rect x="40.414" y="0.7" style="fill:#FFFFFF;stroke:#58595A;stroke-width:1.4;stroke-miterlimit:10;" width="42" height="26.6"/>
		<g>
			<path style="fill:#58595A;" d="M43.828,23.284v-2.262h4.113V9.564l-3.813,2.154l-1.033-2.003l5.319-2.908h2.413v14.215h3.295
				v2.262H43.828z"/>
			<path style="fill:#58595A;" d="M56.213,23.284v-2.262h4.113V9.564l-3.813,2.154L55.48,9.715L60.8,6.807h2.413v14.215h3.295v2.262
				H56.213z"/>
			<path style="fill:#58595A;" d="M68.166,22.401l0.582-2.024c1.292,0.459,2.533,0.688,3.726,0.688c1.077,0,1.892-0.269,2.444-0.808
				c0.553-0.538,0.83-1.31,0.83-2.315c0-0.933-0.248-1.604-0.743-2.014c-0.496-0.409-1.253-0.613-2.272-0.613h-4.071l0.28-8.508
				h9.391v2.369h-6.591l-0.15,3.748h2.11c1.594,0,2.822,0.413,3.684,1.239c0.861,0.825,1.292,2.028,1.292,3.607
				c0,1.694-0.499,3.069-1.497,4.124c-0.998,1.056-2.452,1.583-4.361,1.583C71.253,23.478,69.702,23.119,68.166,22.401z"/>
		</g>
		<g>
			<path style="fill:none;" d="M0.472,26.864H0.468l-0.226,0.122l-0.034-0.134l0.284-0.151h0.15V28h-0.17V26.864z"/>
			<path style="fill:none;" d="M1.498,26.864H1.494l-0.226,0.122l-0.034-0.134l0.284-0.151h0.15V28h-0.17V26.864z"/>
			<path style="fill:none;" d="M2.917,26.849H2.421l-0.05,0.334c0.03-0.004,0.058-0.006,0.106-0.006c0.102,0,0.2,0.02,0.28,0.069
				c0.102,0.057,0.186,0.17,0.186,0.332c0,0.254-0.202,0.444-0.484,0.444c-0.142,0-0.26-0.04-0.324-0.08l0.044-0.134
				c0.054,0.031,0.16,0.071,0.28,0.071c0.164,0,0.308-0.107,0.306-0.281c0-0.168-0.114-0.286-0.372-0.286
				c-0.076,0-0.134,0.006-0.182,0.012l0.083-0.623h0.622V26.849z"/>
		</g>
	</g>
</g>
</svg>
