<svg xmlns="http://www.w3.org/2000/svg" viewBox="0 0 83 28" enable-background="new 0 0 83 28"><g><g><path d="M3.592 0s-3.592 5.425-3.592 14.001c0 8.578 3.592 13.999 3.592 13.999h31.421v-28h-31.421z" fill="#EC2227"/><g fill="#fff"><path d="M5.871 8.355h3.838c2.432 0 3.503 1.25 3.503 2.678 0 1.584-.938 2.231-1.384 2.431.892.268 1.874 1.117 1.874 2.7 0 2.074-1.495 3.48-3.726 3.48h-4.105v-11.289zm3.301 4.597c1.026 0 1.696-.426 1.696-1.451 0-.715-.4-1.361-1.561-1.361h-1.072v2.812h.937zm.179 5.02c1.071 0 1.986-.38 1.986-1.719 0-1.05-.691-1.628-1.942-1.628h-1.16v3.347h1.116zM24.795 17.034c.76.401 1.607.826 2.878.826 1.071 0 1.606-.625 1.606-1.295 0-.915-.647-1.316-2.253-2.006-1.428-.603-2.433-1.34-2.433-3.192 0-1.785 1.361-3.279 3.994-3.279 1.295 0 2.275.358 2.877.692l-.714 1.941c-.581-.357-1.427-.625-2.296-.625-.937 0-1.585.423-1.585 1.16 0 .716.47 1.206 1.74 1.741 2.321.981 2.945 1.786 2.945 3.391 0 2.613-1.964 3.526-3.726 3.526-1.695 0-2.944-.602-3.769-1.162l.736-1.718zM20.833 15.717v-7.362h2.365v7.452c0 3.233-1.964 4.105-4.194 4.105-2.232 0-4.195-.872-4.195-4.105v-7.452h2.366v7.362c0 1.474.602 2.186 1.83 2.186 1.226-.001 1.828-.713 1.828-2.186z"/></g></g><path fill="#fff" stroke="#58595A" stroke-width="1.4" stroke-miterlimit="10" d="M40.414.7h42v26.6h-42z"/><g fill="#58595A"><path d="M43.828 23.284v-2.262h4.113v-11.458l-3.813 2.154-1.033-2.003 5.319-2.908h2.413v14.215h3.295v2.262h-10.294zM56.213 23.284v-2.262h4.113v-11.458l-3.813 2.154-1.033-2.003 5.32-2.908h2.413v14.215h3.295v2.262h-10.295zM68.145 18.912c0-1.767.89-3.145 2.671-4.136-1.465-.89-2.197-2.089-2.197-3.597 0-1.393.478-2.502 1.433-3.328s2.143-1.239 3.564-1.239 2.531.355 3.328 1.066c.797.71 1.195 1.662 1.195 2.854 0 1.637-.812 2.844-2.435 3.619 2.068.919 3.102 2.34 3.102 4.264 0 1.394-.495 2.582-1.485 3.565-.991.983-2.37 1.475-4.136 1.475-1.666 0-2.922-.438-3.77-1.313s-1.27-1.952-1.27-3.23zm3.08-.086c0 .818.212 1.436.636 1.852.423.417.972.625 1.647.625.718 0 1.271-.227 1.658-.679s.582-1.045.582-1.776c0-.805-.234-1.407-.7-1.81-.467-.402-1.231-.79-2.294-1.163-1.02.603-1.529 1.587-1.529 2.951zm2.261-5.449c1.12-.546 1.68-1.415 1.68-2.606 0-1.25-.531-1.874-1.594-1.874-.531 0-.97.172-1.313.517-.345.344-.518.89-.518 1.637 0 .502.122.944.366 1.324.245.381.704.715 1.379 1.002z"/></g><g fill="none"><path d="M.472 26.864h-.004l-.226.122-.034-.134.284-.151h.15v1.299h-.17v-1.136zM1.498 26.864h-.004l-.226.122-.034-.134.284-.151h.15v1.299h-.17v-1.136zM2.381 27.316c-.146-.068-.208-.18-.208-.292 0-.206.174-.346.404-.346.251 0 .379.156.379.32 0 .109-.056.229-.216.304v.006c.162.063.262.18.262.336 0 .228-.194.378-.442.378-.272 0-.436-.16-.436-.351 0-.164.098-.281.258-.35l-.001-.005zm.444.346c0-.156-.11-.233-.286-.284-.152.044-.234.146-.234.271-.006.13.094.246.26.246.159 0 .26-.099.26-.233zm-.483-.649c-.002.13.098.2.248.239.112-.037.198-.117.198-.235 0-.104-.062-.212-.22-.212-.147 0-.226.095-.226.208z"/></g></g></svg>