<?xml version="1.0" encoding="utf-8"?>
<!-- Generator: Adobe Illustrator 26.5.3, SVG Export Plug-In . SVG Version: 6.00 Build 0)  -->
<svg version="1.1" id="Calque_1" xmlns="http://www.w3.org/2000/svg" xmlns:xlink="http://www.w3.org/1999/xlink" x="0px" y="0px"
	 viewBox="0 0 83 28" style="enable-background:new 0 0 83 28;" xml:space="preserve">
<style type="text/css">
	.st0{fill:#EC2227;}
	.st1{fill:#FFFFFF;}
	.st2{fill:#FFFFFF;stroke:#58595A;stroke-width:1.4;stroke-miterlimit:10;}
	.st3{fill:none;}
	.st4{enable-background:new    ;}
	.st5{fill:#58595A;}
</style>
<g>
	<g>
		<path class="st0" d="M3.6,0C3.6,0,0,5.4,0,14s3.6,14,3.6,14H35V0H3.6z"/>
		<g>
			<path class="st1" d="M5.9,8.4h3.8c2.4,0,3.5,1.3,3.5,2.7c0,1.6-0.9,2.2-1.4,2.4c0.9,0.3,1.9,1.1,1.9,2.7c0,2.1-1.5,3.5-3.7,3.5
				H5.9V8.4z M9.2,13c1,0,1.7-0.4,1.7-1.5c0-0.7-0.4-1.4-1.6-1.4H8.2V13H9.2z M9.4,18c1.1,0,2-0.4,2-1.7c0-1.1-0.7-1.6-1.9-1.6H8.2
				V18H9.4z M24.8,17c0.8,0.4,1.6,0.8,2.9,0.8c1.1,0,1.6-0.6,1.6-1.3c0-0.9-0.6-1.3-2.3-2c-1.4-0.6-2.4-1.3-2.4-3.2
				c0-1.8,1.4-3.3,4-3.3c1.3,0,2.3,0.4,2.9,0.7l-0.7,1.9c-0.6-0.4-1.4-0.6-2.3-0.6s-1.6,0.4-1.6,1.2c0,0.7,0.5,1.2,1.7,1.7
				c2.3,1,2.9,1.8,2.9,3.4c0,2.6-2,3.5-3.7,3.5s-2.9-0.6-3.8-1.2C24.1,18.8,24.8,17,24.8,17z M20.8,15.7V8.4h2.4v7.5
				c0,3.2-2,4.1-4.2,4.1s-4.2-0.9-4.2-4.1V8.4h2.4v7.4c0,1.5,0.6,2.2,1.8,2.2C20.2,17.9,20.8,17.2,20.8,15.7z"/>
		</g>
	</g>
	<path class="st2" d="M40.4,0.7h42v26.6h-42V0.7z"/>
	<g>
		<path class="st3" d="M0.5,26.9L0.5,26.9L0.2,27v-0.1l0.3-0.2h0.2V28H0.5V26.9z M1.5,26.9L1.5,26.9L1.3,27v-0.1l0.3-0.2h0.1V28H1.5
			V26.9z M2.1,28v-0.1l0.1-0.1c0.3-0.3,0.5-0.5,0.5-0.7c0-0.1-0.1-0.3-0.3-0.3c-0.1,0-0.2,0.1-0.3,0.1L2,26.8
			c0.1-0.1,0.2-0.1,0.4-0.1c0.3,0,0.4,0.2,0.4,0.4c0,0.2-0.2,0.4-0.4,0.7l-0.1,0.1l0,0H3V28H2.1z"/>
	</g>
</g>
<g class="st4">
	<path class="st5" d="M43.8,21h4.1V9.6l-3.8,2.1l-1-2l5.3-2.9h2.4V21h3.3v2.3H43.8V21z"/>
	<path class="st5" d="M56.2,21h4.1V9.6l-3.8,2.1l-1-2l5.3-2.9h2.4V21h3.3v2.3H56.2V21z"/>
	<path class="st5" d="M68.9,20.3c0.3,0.1,0.8,0.3,1.3,0.5s1.2,0.2,2,0.2c1.2,0,2.1-0.5,2.6-1.4c0.5-0.9,0.8-2.2,0.8-3.9
		c-0.1,0.1-0.3,0.2-0.5,0.3c-0.2,0.1-0.5,0.3-0.7,0.4c-0.3,0.1-0.6,0.2-0.9,0.3c-0.4,0.1-0.7,0.1-1.1,0.1c-0.4,0-0.9-0.1-1.4-0.2
		c-0.5-0.2-1-0.4-1.4-0.8c-0.4-0.4-0.8-0.8-1.1-1.4c-0.3-0.6-0.4-1.3-0.4-2.2c0-0.8,0.1-1.6,0.4-2.3c0.2-0.7,0.6-1.3,1.1-1.8
		c0.5-0.5,1-0.9,1.7-1.1c0.6-0.3,1.3-0.4,2.1-0.4c1,0,1.8,0.2,2.5,0.6s1.3,0.9,1.7,1.6c0.4,0.7,0.8,1.6,0.9,2.6
		c0.2,1,0.3,2.1,0.3,3.4c0,1.3-0.1,2.4-0.4,3.5c-0.2,1.1-0.6,2-1.1,2.7c-0.5,0.8-1.2,1.3-2,1.8c-0.8,0.4-1.8,0.6-2.9,0.6
		c-0.3,0-0.7,0-1.1-0.1c-0.4,0-0.8-0.1-1.1-0.2S69.4,23.1,69,23c-0.3-0.1-0.6-0.2-0.9-0.4L68.9,20.3z M73.2,14.2
		c0.6,0,1-0.1,1.3-0.2c0.3-0.1,0.7-0.3,1-0.5c0-0.6,0-1.2-0.1-1.7c-0.1-0.5-0.2-1-0.4-1.4s-0.4-0.7-0.7-1C74,9.1,73.6,9,73.2,9
		C72.7,9,72.3,9,72,9.2s-0.5,0.4-0.7,0.6S71,10.4,71,10.7c-0.1,0.3-0.1,0.7-0.1,1.1c0,0.7,0.2,1.3,0.6,1.7
		C71.8,14,72.4,14.2,73.2,14.2z"/>
</g>
</svg>
