<?xml version="1.0" encoding="UTF-8"?>
<svg xmlns="http://www.w3.org/2000/svg" version="1.1" viewBox="0 0 83 28">
  <defs>
    <style>
      .cls-1 {
        fill: none;
      }

      .cls-2 {
        stroke: #58595a;
        stroke-miterlimit: 10;
        stroke-width: 1.4px;
      }

      .cls-2, .cls-3 {
        fill: #fff;
      }

      .cls-4 {
        fill: #ec2227;
      }

      .cls-5 {
        isolation: isolate;
      }

      .cls-6 {
        fill: #58595a;
      }
    </style>
  </defs>
  <!-- Generator: Adobe Illustrator 28.6.0, SVG Export Plug-In . SVG Version: 1.2.0 Build 709)  -->
  <g>
    <g id="Calque_1">
      <g>
        <g>
          <path class="cls-4" d="M3.6,0S0,5.4,0,14s3.6,14,3.6,14h31.4V0H3.6Z"/>
          <path class="cls-3" d="M5.9,8.4h3.8c2.4,0,3.5,1.3,3.5,2.7,0,1.6-.9,2.2-1.4,2.4.9.3,1.9,1.1,1.9,2.7,0,2.1-1.5,3.5-3.7,3.5h-4.1v-11.3ZM9.2,13c1,0,1.7-.4,1.7-1.5,0-.7-.4-1.4-1.6-1.4h-1.1v2.9h1ZM9.4,18c1.1,0,2-.4,2-1.7,0-1.1-.7-1.6-1.9-1.6h-1.3v3.3h1.2ZM24.8,17c.8.4,1.6.8,2.9.8,1.1,0,1.6-.6,1.6-1.3,0-.9-.6-1.3-2.3-2-1.4-.6-2.4-1.3-2.4-3.2,0-1.8,1.4-3.3,4-3.3,1.3,0,2.3.4,2.9.7l-.7,1.9c-.6-.4-1.4-.6-2.3-.6s-1.6.4-1.6,1.2c0,.7.5,1.2,1.7,1.7,2.3,1,2.9,1.8,2.9,3.4,0,2.6-2,3.5-3.7,3.5s-2.9-.6-3.8-1.2c.1.2.8-1.6.8-1.6ZM20.8,15.7v-7.3h2.4v7.5c0,3.2-2,4.1-4.2,4.1s-4.2-.9-4.2-4.1v-7.5h2.4v7.4c0,1.5.6,2.2,1.8,2.2,1.2-.1,1.8-.8,1.8-2.3Z"/>
        </g>
        <path class="cls-2" d="M40.4.7h42v26.6h-42V.7Z"/>
        <path class="cls-1" d="M.5,26.9h0l-.3.1v-.1l.3-.2h.2v1.3h-.2v-1.1ZM1.5,26.9h0l-.2.1v-.1l.3-.2h.1v1.3h-.2v-1.1ZM2.1,28v-.1l.1-.1c.3-.3.5-.5.5-.7,0-.1-.1-.3-.3-.3-.1,0-.2.1-.3.1l-.1-.1c.1-.1.2-.1.4-.1.3,0,.4.2.4.4s-.2.4-.4.7l-.1.1h.7v.1h-.9Z"/>
      </g>
      <g class="cls-5">
        <path class="cls-6" d="M43.8,21h4.1v-11.4l-3.8,2.1-1-2,5.3-2.9h2.4v14.2h3.3v2.3h-10.3v-2.3Z"/>
        <path class="cls-6" d="M55.7,21.2c0-.8.2-1.6.7-2.3s1.2-1.5,2.3-2.3l2-1.5c.4-.3.7-.5.9-.8.3-.3.5-.5.7-.8s.3-.5.4-.8c.1-.3.2-.6.2-1,0-.5-.1-.9-.2-1.3-.2-.3-.4-.6-.6-.8-.3-.2-.5-.3-.9-.4-.3-.1-.7-.1-1-.1s-.7,0-1,.1c-.4.1-.7.1-1,.3-.3.1-.6.2-.9.3-.3.1-.5.2-.7.3l-.9-2c.8-.5,1.6-.8,2.4-1s1.7-.4,2.4-.4c.8,0,1.6.1,2.2.3s1.3.5,1.7.9c.5.4.9.9,1.1,1.5.3.6.4,1.2.4,2,0,.7-.1,1.3-.2,1.8s-.3,1-.6,1.4c-.3.4-.6.8-1,1.2-.4.4-.9.8-1.4,1.2l-2.4,1.8c-.3.2-.6.5-.8.7s-.3.4-.4.6c-.1.2-.2.3-.2.5s0,.3-.1.5h7.3v2.4h-10.4v-2.3Z"/>
        <path class="cls-6" d="M68,21.2c0-.8.2-1.6.7-2.3s1.2-1.5,2.3-2.3l2-1.5c.4-.3.7-.5.9-.8.3-.3.5-.5.7-.8s.3-.5.4-.8c.1-.3.2-.6.2-1,0-.5-.1-.9-.2-1.3-.2-.3-.4-.6-.6-.8-.3-.2-.5-.3-.9-.4-.3-.1-.7-.1-1-.1s-.7,0-1,.1c-.4.1-.7.1-1,.3-.3.1-.6.2-.9.3-.3.1-.5.2-.7.3l-.9-2c.8-.5,1.6-.8,2.4-1s1.7-.4,2.4-.4c.8,0,1.6.1,2.2.3s1.3.5,1.7.9c.5.4.9.9,1.1,1.5.3.6.4,1.2.4,2,0,.7-.1,1.3-.2,1.8s-.3,1-.6,1.4c-.3.4-.6.8-1,1.2-.4.4-.9.8-1.4,1.2l-2.4,1.8c-.3.2-.6.5-.8.7s-.3.4-.4.6c-.1.2-.2.3-.2.5s0,.3-.1.5h7.3v2.4h-10.4v-2.3Z"/>
      </g>
    </g>
  </g>
</svg>