<?xml version="1.0" encoding="utf-8"?>
<!-- Generator: Adobe Illustrator 26.5.3, SVG Export Plug-In . SVG Version: 6.00 Build 0)  -->
<svg version="1.1" id="Calque_1" xmlns="http://www.w3.org/2000/svg" xmlns:xlink="http://www.w3.org/1999/xlink" x="0px" y="0px"
	 viewBox="0 0 83 28" style="enable-background:new 0 0 83 28;" xml:space="preserve">
<style type="text/css">
	.st0{fill:#EC2227;}
	.st1{fill:#FFFFFF;}
	.st2{fill:#FFFFFF;stroke:#58595A;stroke-width:1.4;stroke-miterlimit:10;}
	.st3{fill:none;}
	.st4{fill:#58595A;}
</style>
<g>
	<g>
		<path class="st0" d="M3.6,0C3.6,0,0,5.4,0,14c0,8.6,3.6,14,3.6,14H35V0C35,0,3.6,0,3.6,0z"/>
		<g>
			<path class="st1" d="M5.9,8.4h3.8c2.4,0,3.5,1.3,3.5,2.7c0,1.6-0.9,2.2-1.4,2.4c0.9,0.3,1.9,1.1,1.9,2.7c0,2.1-1.5,3.5-3.7,3.5
				H5.9V8.4z M9.2,13c1,0,1.7-0.4,1.7-1.5c0-0.7-0.4-1.4-1.6-1.4H8.2V13C8.2,13,9.2,13,9.2,13z M9.4,18c1.1,0,2-0.4,2-1.7
				c0-1.1-0.7-1.6-1.9-1.6H8.2V18H9.4z M24.8,17c0.8,0.4,1.6,0.8,2.9,0.8c1.1,0,1.6-0.6,1.6-1.3c0-0.9-0.6-1.3-2.3-2
				c-1.4-0.6-2.4-1.3-2.4-3.2c0-1.8,1.4-3.3,4-3.3c1.3,0,2.3,0.4,2.9,0.7l-0.7,1.9c-0.6-0.4-1.4-0.6-2.3-0.6c-0.9,0-1.6,0.4-1.6,1.2
				c0,0.7,0.5,1.2,1.7,1.7c2.3,1,2.9,1.8,2.9,3.4c0,2.6-2,3.5-3.7,3.5c-1.7,0-2.9-0.6-3.8-1.2C24.1,18.8,24.8,17,24.8,17z
				 M20.8,15.7V8.4h2.4v7.5c0,3.2-2,4.1-4.2,4.1c-2.2,0-4.2-0.9-4.2-4.1V8.4h2.4v7.4c0,1.5,0.6,2.2,1.8,2.2
				C20.2,17.9,20.8,17.2,20.8,15.7z"/>
		</g>
	</g>
	<path class="st2" d="M40.4,0.7h42v26.6h-42V0.7z"/>
	<g>
		<path class="st3" d="M0.5,26.9L0.5,26.9L0.2,27l0-0.1l0.3-0.2h0.2V28H0.5V26.9z M1.5,26.9L1.5,26.9L1.3,27l0-0.1l0.3-0.2h0.1V28
			H1.5C1.5,28,1.5,26.9,1.5,26.9z M2.1,28v-0.1l0.1-0.1c0.3-0.3,0.5-0.5,0.5-0.7c0-0.1-0.1-0.3-0.3-0.3c-0.1,0-0.2,0.1-0.3,0.1
			l-0.1-0.1c0.1-0.1,0.2-0.1,0.4-0.1c0.3,0,0.4,0.2,0.4,0.4c0,0.2-0.2,0.4-0.4,0.7l-0.1,0.1v0H3V28H2.1z"/>
	</g>
</g>
<g>
	<path class="st4" d="M43.8,21h4.1V9.6l-3.8,2.1l-1-2l5.3-2.9h2.4V21h3.3v2.3H43.8V21z"/>
	<path class="st4" d="M55.2,17.9l5.7-11h3.8V18h2.1v2.4h-2.1v2.9H62v-2.9h-6.8V17.9z M62,18V9.1c-0.1,0.3-0.2,0.6-0.4,1.1
		c-0.2,0.4-0.4,0.9-0.7,1.5L57.6,18H62z"/>
	<path class="st4" d="M68.6,20.4c0.5,0.2,1.1,0.3,1.8,0.5c0.7,0.1,1.3,0.2,1.9,0.2c1.1,0,1.9-0.3,2.4-0.8s0.8-1.3,0.8-2.3
		c0-1-0.3-1.6-0.8-2c-0.5-0.4-1.3-0.6-2.2-0.6h-4.1l0.3-8.5h9.3v2.4h-6.6L71.4,13h2.1c1.6,0,2.8,0.4,3.7,1.2c0.9,0.8,1.3,2,1.3,3.6
		c0,0.8-0.1,1.5-0.4,2.2c-0.2,0.7-0.6,1.3-1.1,1.8c-0.5,0.5-1.1,0.9-1.8,1.2c-0.7,0.3-1.6,0.4-2.6,0.4c-0.5,0-1,0-1.4-0.1
		c-0.5-0.1-0.9-0.2-1.3-0.3c-0.4-0.1-0.8-0.2-1.1-0.3c-0.3-0.1-0.6-0.2-0.9-0.4L68.6,20.4z"/>
</g>
</svg>
