<?xml version="1.0" encoding="UTF-8"?>
<svg xmlns="http://www.w3.org/2000/svg" version="1.1" viewBox="0 0 90.22 28">
  <defs>
    <style>
      .cls-1 {
        fill: none;
      }

      .cls-2 {
        stroke: #58595a;
        stroke-miterlimit: 10;
        stroke-width: 1.4px;
      }

      .cls-2, .cls-3 {
        fill: #fff;
      }

      .cls-4 {
        fill: #ec2227;
      }

      .cls-5 {
        fill: #58595a;
      }
    </style>
  </defs>
  <!-- Generator: Adobe Illustrator 28.6.0, SVG Export Plug-In . SVG Version: 1.2.0 Build 709)  -->
  <g>
    <g id="Calque_1">
      <g>
        <g>
          <path class="cls-4" d="M3.59,0S0,5.43,0,14s3.59,14,3.59,14h31.42V0H3.59Z"/>
          <path class="cls-3" d="M5.87,8.35h3.84c2.43,0,3.5,1.25,3.5,2.68,0,1.58-.94,2.23-1.38,2.43.89.27,1.87,1.12,1.87,2.7,0,2.07-1.49,3.48-3.73,3.48h-4.11v-11.29ZM9.17,12.95c1.03,0,1.7-.43,1.7-1.45,0-.72-.4-1.36-1.56-1.36h-1.07v2.81s.94,0,.94,0ZM9.35,17.97c1.07,0,1.99-.38,1.99-1.72,0-1.05-.69-1.63-1.94-1.63h-1.16v3.35h1.12ZM24.8,17.03c.76.4,1.61.83,2.88.83,1.07,0,1.61-.62,1.61-1.3,0-.91-.65-1.32-2.25-2.01-1.43-.6-2.43-1.34-2.43-3.19s1.36-3.28,3.99-3.28c1.3,0,2.27.36,2.88.69l-.71,1.94c-.58-.36-1.43-.62-2.3-.62-.94,0-1.58.42-1.58,1.16s.47,1.21,1.74,1.74c2.32.98,2.94,1.79,2.94,3.39,0,2.61-1.96,3.53-3.73,3.53s-2.94-.6-3.77-1.16c0,0,.74-1.72.74-1.72ZM20.83,15.72v-7.36h2.36v7.45c0,3.23-1.96,4.1-4.19,4.1s-4.19-.87-4.19-4.1v-7.45h2.37v7.36c0,1.47.6,2.19,1.83,2.19,1.23,0,1.83-.71,1.83-2.19Z"/>
        </g>
        <path class="cls-2" d="M40.41.7h49.05v26.6h-49.05V.7Z"/>
        <path class="cls-1" d="M.09,28v-.11l.14-.13c.33-.32.48-.48.48-.68,0-.13-.06-.25-.26-.25-.12,0-.22.06-.28.11l-.06-.12c.09-.07.22-.13.37-.13.28,0,.4.19.4.38,0,.24-.17.43-.45.7l-.1.1H.34s.58,0,.58,0v.15H.09ZM1.87,27.37h-.52v.49h.58v.15h-.76v-1.35h.73v.15h-.55v.43h.52s0,.14,0,.14ZM2.24,27.03l.14.21.1.16h0l.1-.16.13-.21h.19l-.33.47.34.5h-.2l-.14-.22-.1-.17h0l-.1.17-.14.22h-.19l.34-.49-.33-.47h.2Z"/>
      </g>
      <g>
        <path class="cls-5" d="M43.68,18.37h3.25v-9.04l-3.01,1.7-.82-1.58,4.2-2.29h1.9v11.22h2.6v1.79h-8.12v-1.79Z"/>
        <path class="cls-5" d="M51.82,15.87l4.5-8.72h3.04v8.81h1.65v1.89h-1.65v2.31h-2.14v-2.31h-5.41v-1.97ZM57.23,15.96v-7.04c-.12.46-.42,1.14-.88,2.02l-2.57,5.01h3.45Z"/>
        <path class="cls-5" d="M61.65,17.86c.82.29,2.02.54,2.94.54,1.72,0,2.58-.9,2.58-2.46s-.82-2.07-2.38-2.07h-3.21l.22-6.71h7.41v1.87h-5.2l-.12,2.96h1.67c2.48,0,3.93,1.31,3.93,3.82s-1.48,4.5-4.62,4.5c-1.56,0-2.91-.49-3.67-.85l.46-1.6Z"/>
        <path class="cls-5" d="M70.91,7.15h7.09v1.92h-4.86v3.35h4.59v1.87h-4.59v3.94h5.05v1.92h-7.28V7.15Z"/>
        <path class="cls-5" d="M81.71,15.89l-2.99-4.33h2.63l1.62,2.43,1.38-2.43h2.72l-3.08,4.18,3.2,4.42h-2.79l-1.67-2.5-1.43,2.5h-2.72l3.13-4.27Z"/>
      </g>
    </g>
  </g>
</svg>