<?xml version="1.0" encoding="utf-8"?>
<!-- Generator: Adobe Illustrator 22.1.0, SVG Export Plug-In . SVG Version: 6.00 Build 0)  -->
<svg version="1.1" xmlns="http://www.w3.org/2000/svg" xmlns:xlink="http://www.w3.org/1999/xlink" x="0px" y="0px"
	 viewBox="0 0 83 28" style="enable-background:new 0 0 83 28;" xml:space="preserve">
<style type="text/css">
	.st0{fill:#EC2227;}
	.st1{fill:#FFFFFF;}
	.st2{fill:#FFFFFF;stroke:#58595A;stroke-width:1.4;stroke-miterlimit:10;}
	.st3{fill:#58595A;}
	.st4{fill:none;}
</style>
<g id="Calque_1">
	<g>
		<g>
			<path class="st0" d="M3.6,0C3.6,0,0,5.4,0,14c0,8.6,3.6,14,3.6,14H35V0C35,0,3.6,0,3.6,0z"/>
			<g>
				<path class="st1" d="M5.9,8.4h3.8c2.4,0,3.5,1.2,3.5,2.7c0,1.6-0.9,2.2-1.4,2.4c0.9,0.3,1.9,1.1,1.9,2.7c0,2.1-1.5,3.5-3.7,3.5
					H5.9V8.4z M9.2,13c1,0,1.7-0.4,1.7-1.5c0-0.7-0.4-1.4-1.6-1.4H8.2V13C8.2,13,9.2,13,9.2,13z M9.4,18c1.1,0,2-0.4,2-1.7
					c0-1.1-0.7-1.6-1.9-1.6H8.2V18H9.4z M24.8,17c0.8,0.4,1.6,0.8,2.9,0.8c1.1,0,1.6-0.6,1.6-1.3c0-0.9-0.6-1.3-2.3-2
					c-1.4-0.6-2.4-1.3-2.4-3.2c0-1.8,1.4-3.3,4-3.3c1.3,0,2.3,0.4,2.9,0.7l-0.7,1.9c-0.6-0.4-1.4-0.6-2.3-0.6
					c-0.9,0-1.6,0.4-1.6,1.2c0,0.7,0.5,1.2,1.7,1.7c2.3,1,2.9,1.8,2.9,3.4c0,2.6-2,3.5-3.7,3.5c-1.7,0-2.9-0.6-3.8-1.2
					C24.1,18.8,24.8,17,24.8,17z M20.8,15.7V8.4h2.4v7.5c0,3.2-2,4.1-4.2,4.1c-2.2,0-4.2-0.9-4.2-4.1V8.4h2.4v7.4
					c0,1.5,0.6,2.2,1.8,2.2C20.2,17.9,20.8,17.2,20.8,15.7z"/>
			</g>
		</g>
		<path class="st2" d="M40.4,0.7h42v26.6h-42V0.7z"/>
		<g>
			<path class="st3" d="M43.8,23.3V21h4.1V9.6l-3.8,2.2l-1-2l5.3-2.9h2.4V21h3.3v2.3C54.1,23.3,43.8,23.3,43.8,23.3z M55.2,20.4
				v-2.5l5.7-11h3.9V18h2.1v2.4h-2.1v2.9h-2.7v-2.9L55.2,20.4L55.2,20.4z M57.7,18h4.4V9c-0.1,0.5-0.5,1.4-1.1,2.6
				C61,11.6,57.7,18,57.7,18z"/>
		</g>
		<g>
			<path class="st4" d="M0.5,26.9L0.5,26.9L0.2,27l0-0.1l0.3-0.2h0.2V28H0.5V26.9z M1.7,28v-0.4H1.1v-0.1l0.6-0.8h0.2v0.8H2v0.1H1.8
				V28C1.8,28,1.7,28,1.7,28z M1.7,27.5v-0.4l0-0.2h0l-0.1,0.2l-0.3,0.4v0L1.7,27.5L1.7,27.5z M2.1,28v-0.1l0.1-0.1
				c0.3-0.3,0.5-0.5,0.5-0.7c0-0.1-0.1-0.3-0.3-0.3c-0.1,0-0.2,0.1-0.3,0.1l-0.1-0.1c0.1-0.1,0.2-0.1,0.4-0.1c0.3,0,0.4,0.2,0.4,0.4
				c0,0.2-0.2,0.4-0.4,0.7l-0.1,0.1v0H3V28H2.1z"/>
		</g>
	</g>
</g>
<g id="Mode_Isolation">
	<path class="st3" d="M70.8,23.2c0-1.9,0.2-3.5,0.5-4.5s0.9-2.3,1.9-3.8l1.2-1.8c1.1-1.5,1.6-2.7,1.7-3.3c0-0.2,0.1-0.5,0.1-0.6
		h-7.6V6.8h10.5c0.1,0.7,0.2,1.2,0.2,1.8c0,1-0.2,1.9-0.5,2.7c-0.3,0.8-1,2-2.2,3.7l-1.5,2.2c-0.5,0.8-0.9,1.6-1.1,2.4
		c-0.2,0.8-0.2,2-0.2,3.8L70.8,23.2L70.8,23.2z"/>
</g>
</svg>
