<?xml version="1.0" encoding="utf-8"?>
<!-- Generator: Adobe Illustrator 22.1.0, SVG Export Plug-In . SVG Version: 6.00 Build 0)  -->
<svg version="1.1" xmlns="http://www.w3.org/2000/svg" xmlns:xlink="http://www.w3.org/1999/xlink" x="0px" y="0px"
	 viewBox="0 0 88.7 33.6" style="enable-background:new 0 0 88.7 33.6;" xml:space="preserve">
<style type="text/css">
	.st0{fill:#FFFFFF;}
	.st1{fill:#EC2227;}
	.st2{fill:#6F4013;}
	.st3{fill:none;}
</style>
<g id="Calque_1" xmlns:serif="http://www.serif.com/">
	<path class="st0" d="M5.3,0C1.7,5.1-0.1,10.9,0,16.8c0,10.3,5.2,16.8,5.2,16.8h83.4V0H5.3z"/>
	<g>
		<g>
			<path class="st1" d="M6.6,2.9c0,0-3.5,5.4-3.5,13.9s3.5,13.9,3.5,13.9H38V2.9H6.6z"/>
			<path class="st0" d="M8.9,11.2h3.7c2.5,0,3.5,1.2,3.5,2.7c0,1.7-0.8,2.3-1.5,2.5c0.8,0.2,1.9,1,1.9,2.7c0,2.1-1.5,3.5-3.7,3.5
				H8.7V11.2H8.9z M12.2,15.8c1,0,1.7-0.4,1.7-1.5c0-0.6-0.4-1.5-1.7-1.5h-0.8v3H12.2z M12.5,20.8c1,0,2.1-0.4,2.1-1.7
				c0-1-0.6-1.7-1.9-1.7h-1.3v3.4H12.5z M28,19.7c0.8,0.4,1.7,0.8,2.9,0.8c1,0,1.7-0.6,1.7-1.2c0-0.8-0.6-1.2-2.3-2.1
				c-1.5-0.6-2.5-1.2-2.5-3.1s1.5-3.3,4-3.3c1.2,0,2.3,0.4,2.9,0.6l-0.6,1.9c-0.6-0.4-1.5-0.6-2.3-0.6c-0.8,0-1.7,0.4-1.7,1.2
				c0,0.6,0.4,1.2,1.7,1.7c2.3,1,2.9,1.9,2.9,3.3c0,2.7-2.1,3.5-3.7,3.5c-1.7,0-2.9-0.6-3.7-1.2C27.2,21.6,28,19.7,28,19.7z
				 M23.9,18.5v-7.3h2.5v7.5c0,3.1-2.1,4.2-4.2,4.2s-4.1-0.9-4.1-4.2v-7.5h2.5v7.5c0,1.5,0.6,2.3,1.9,2.3
				C23.3,20.8,23.9,19.9,23.9,18.5z"/>
		</g>
		<rect x="43.6" y="2.8" class="st2" width="42.7" height="28"/>
		<path class="st3" d="M3.5,29.7H3.3l0,0H3.5L3.5,29.7l0.2,1H3.5V29.7z M5,29.7H4.6v0.2l0,0h0.2L5,30.1c0,0.2-0.2,0.4-0.4,0.4H4.3
			l0,0h0.2c0.2,0,0.2,0,0.2-0.2s0-0.2-0.4-0.2l0,0v-0.6L5,29.7L5,29.7z M6,30.3H5.6v0.4h0.6l0,0H5.4v-1.2H6l0,0H5.6v0.4L6,30.3
			L6,30.3z"/>
		<path class="st0" d="M48.1,25.9v-2.3h4.1V12.3l-3.8,2.2l-1-2l5.3-2.9H55v14h3.3v2.3H48.1z M60,25l0.6-2c1.3,0.5,2.5,0.7,3.7,0.7
			c1.1,0,1.9-0.3,2.4-0.8c0.6-0.5,0.8-1.3,0.8-2.3c0-0.9-0.2-1.6-0.7-2s-1.3-0.6-2.3-0.6h-4.1l0.3-8.4H70V12h-6.6l-0.2,3.7h2.1
			c1.6,0,2.8,0.4,3.7,1.2c0.9,0.8,1.3,2,1.3,3.6c0,1.7-0.5,3.1-1.5,4.1c-1,1.1-2.5,1.6-4.4,1.6C63.1,26.1,61.5,25.7,60,25z
			 M73.3,25.9V9.6h8.9v2.4h-6.2v4.2h5.8v2.4h-5.8v5h6.4v2.4C82.4,25.9,73.3,25.9,73.3,25.9z"/>
	</g>
</g>
<g id="_x37_efe3053-6b5f-4edd-b0b9-b66cb7077bb1">
</g>
</svg>
