<?xml version="1.0" encoding="utf-8"?>
<!-- Generator: Adobe Illustrator 22.1.0, SVG Export Plug-In . SVG Version: 6.00 Build 0)  -->
<svg version="1.1" id="Calque_1" xmlns="http://www.w3.org/2000/svg" xmlns:xlink="http://www.w3.org/1999/xlink" x="0px" y="0px"
	 viewBox="0 0 83 28" style="enable-background:new 0 0 83 28;" xml:space="preserve">
<style type="text/css">
	.st0{fill:#EC2227;}
	.st1{fill:#FFFFFF;}
	.st2{fill:#FFFFFF;stroke:#ED1C24;stroke-width:1.4;stroke-miterlimit:10;}
	.st3{fill:#ED1C24;}
	.st4{fill:none;}
</style>
<g id="Layer_1">
</g>
<g id="TestEtiquetteArret">
	<g id="_x31_Ex">
		<g>
			<g id="Layer_1_1_">
			</g>
			<g id="Isolation_Mode">
				<g>
					<path class="st0" d="M3.6,0C3.6,0,0,5.4,0,14c0,8.6,3.6,14,3.6,14H35V0H3.6z"/>
					<g>
						<path class="st1" d="M5.9,8.4h3.8c2.4,0,3.5,1.2,3.5,2.7c0,1.6-0.9,2.2-1.4,2.4c0.9,0.3,1.9,1.1,1.9,2.7
							c0,2.1-1.5,3.5-3.7,3.5H5.9V8.4z M9.2,13c1,0,1.7-0.4,1.7-1.5c0-0.7-0.4-1.4-1.6-1.4H8.2V13H9.2z M9.4,18c1.1,0,2-0.4,2-1.7
							c0-1.1-0.7-1.6-1.9-1.6H8.2V18H9.4L9.4,18z"/>
						<path class="st1" d="M24.8,17c0.8,0.4,1.6,0.8,2.9,0.8c1.1,0,1.6-0.6,1.6-1.3c0-0.9-0.6-1.3-2.3-2c-1.4-0.6-2.4-1.3-2.4-3.2
							c0-1.8,1.4-3.3,4-3.3c1.3,0,2.3,0.4,2.9,0.7l-0.7,1.9c-0.6-0.4-1.4-0.6-2.3-0.6c-0.9,0-1.6,0.4-1.6,1.2c0,0.7,0.5,1.2,1.7,1.7
							c2.3,1,2.9,1.8,2.9,3.4c0,2.6-2,3.5-3.7,3.5c-1.7,0-2.9-0.6-3.8-1.2L24.8,17z"/>
						<path class="st1" d="M20.8,15.7V8.4h2.4v7.5c0,3.2-2,4.1-4.2,4.1c-2.2,0-4.2-0.9-4.2-4.1V8.4h2.4v7.4c0,1.5,0.6,2.2,1.8,2.2
							C20.2,17.9,20.8,17.2,20.8,15.7z"/>
					</g>
				</g>
			</g>
		</g>
		<rect x="40.4" y="0.7" class="st2" width="42" height="26.6"/>
		<g>
			<path class="st3" d="M50.4,22.2V20h4.1V8.5l-3.8,2.2l-1-2L55,5.8h2.4V20h3.3v2.3H50.4z"/>
			<path class="st3" d="M63.4,22.2V5.8h9v2.4h-6.2v4.2H72v2.4h-5.8v5h6.4v2.4H63.4z"/>
		</g>
		<g>
			<path class="st4" d="M0.5,26.9L0.5,26.9L0.2,27l0-0.1l0.3-0.2h0.2V28H0.5V26.9z"/>
			<path class="st4" d="M1.9,27.4H1.4v0.5h0.6V28H1.2v-1.3h0.7v0.1H1.4v0.4h0.5C1.9,27.2,1.9,27.4,1.9,27.4z"/>
			<path class="st4" d="M2.2,27l0.1,0.2c0,0.1,0.1,0.1,0.1,0.2h0c0-0.1,0.1-0.1,0.1-0.2L2.7,27h0.2l-0.3,0.5L2.9,28H2.7l-0.1-0.2
				c0-0.1-0.1-0.1-0.1-0.2h0c0,0.1-0.1,0.1-0.1,0.2L2.2,28H2l0.3-0.5L2,27H2.2z"/>
		</g>
	</g>
</g>
</svg>
