<svg xmlns="http://www.w3.org/2000/svg" viewBox="0 0 83 28" enable-background="new 0 0 83 28"><g><g><path d="M3.592 0s-3.592 5.425-3.592 14.001c0 8.578 3.592 13.999 3.592 13.999h31.421v-28h-31.421z" fill="#EC2227"/><g fill="#fff"><path d="M5.871 8.355h3.838c2.432 0 3.503 1.25 3.503 2.678 0 1.584-.938 2.231-1.384 2.431.892.268 1.874 1.117 1.874 2.7 0 2.074-1.495 3.48-3.726 3.48h-4.105v-11.289zm3.301 4.597c1.026 0 1.696-.426 1.696-1.451 0-.715-.4-1.361-1.561-1.361h-1.072v2.812h.937zm.179 5.02c1.071 0 1.986-.38 1.986-1.719 0-1.05-.691-1.628-1.942-1.628h-1.16v3.347h1.116zM24.795 17.034c.76.401 1.607.826 2.878.826 1.071 0 1.606-.625 1.606-1.295 0-.915-.647-1.316-2.253-2.006-1.428-.603-2.433-1.34-2.433-3.192 0-1.785 1.361-3.279 3.994-3.279 1.295 0 2.275.358 2.877.692l-.714 1.941c-.581-.357-1.427-.625-2.296-.625-.937 0-1.585.423-1.585 1.16 0 .716.47 1.206 1.74 1.741 2.321.981 2.945 1.786 2.945 3.391 0 2.613-1.964 3.526-3.726 3.526-1.695 0-2.944-.602-3.769-1.162l.736-1.718zM20.833 15.717v-7.362h2.365v7.452c0 3.233-1.964 4.105-4.194 4.105-2.232 0-4.195-.872-4.195-4.105v-7.452h2.366v7.362c0 1.474.602 2.186 1.83 2.186 1.226-.001 1.828-.713 1.828-2.186z"/></g></g><path fill="#fff" stroke="#58595A" stroke-width="1.4" stroke-miterlimit="10" d="M40.414.7h42v26.6h-42z"/><g fill="#58595A"><path d="M43.332 23.284v-2.11c0-.833.237-1.608.711-2.326s1.249-1.486 2.326-2.305l1.981-1.486c.775-.574 1.343-1.112 1.702-1.615.358-.503.538-1.092.538-1.767 0-1.751-.919-2.627-2.757-2.627-1.192 0-2.427.345-3.705 1.034l-.947-2.046c1.579-.948 3.202-1.422 4.867-1.422 1.681 0 3.026.409 4.039 1.228 1.012.818 1.519 1.967 1.519 3.446 0 1.264-.248 2.291-.743 3.08-.495.79-1.317 1.615-2.466 2.477l-2.392 1.788c-.603.445-.994.829-1.174 1.152s-.283.686-.312 1.088h7.344v2.412h-10.531zM56.794 23.284v-16.477h8.981v2.434h-6.16v4.243h5.815v2.369h-5.815v4.997h6.397v2.434h-9.218zM67.585 23.284l3.963-5.406-3.791-5.492h3.339l2.046 3.08 1.744-3.08h3.446l-3.898 5.299 4.05 5.6h-3.534l-2.11-3.166-1.81 3.166h-3.445z"/></g><g fill="none"><path d="M.09 28v-.108l.138-.134c.332-.315.483-.483.483-.68 0-.132-.062-.254-.256-.254-.118 0-.216.061-.276.11l-.056-.124c.088-.074.218-.132.366-.132.28 0 .398.192.398.378 0 .24-.174.434-.448.697l-.101.097v.005h.582v.145h-.83zM1.874 27.368h-.522v.486h.584v.146h-.76v-1.348h.729v.146h-.553v.426h.522v.144zM2.238 27.032l.138.208.1.156h.004l.098-.158.134-.206h.192l-.331.468.338.5h-.198l-.144-.218-.104-.168h-.004l-.102.168-.139.218h-.194l.344-.494-.328-.474h.196z"/></g></g></svg>