<svg xmlns="http://www.w3.org/2000/svg" viewBox="0 0 83 28" enable-background="new 0 0 83 28"><g><g><path d="M3.592 0s-3.592 5.425-3.592 14.001c0 8.578 3.592 13.999 3.592 13.999h31.421v-28h-31.421z" fill="#EC2227"/><g fill="#fff"><path d="M5.871 8.355h3.838c2.432 0 3.503 1.25 3.503 2.678 0 1.584-.938 2.231-1.384 2.431.892.268 1.874 1.117 1.874 2.7 0 2.074-1.495 3.48-3.726 3.48h-4.105v-11.289zm3.301 4.597c1.026 0 1.696-.426 1.696-1.451 0-.715-.4-1.361-1.561-1.361h-1.072v2.812h.937zm.179 5.02c1.071 0 1.986-.38 1.986-1.719 0-1.05-.691-1.628-1.942-1.628h-1.16v3.347h1.116zM24.795 17.034c.76.401 1.607.826 2.878.826 1.071 0 1.606-.625 1.606-1.295 0-.915-.647-1.316-2.253-2.006-1.428-.603-2.433-1.34-2.433-3.192 0-1.785 1.361-3.279 3.994-3.279 1.295 0 2.275.358 2.877.692l-.714 1.941c-.581-.357-1.427-.625-2.296-.625-.937 0-1.585.423-1.585 1.16 0 .716.47 1.206 1.74 1.741 2.321.981 2.945 1.786 2.945 3.391 0 2.613-1.964 3.526-3.726 3.526-1.695 0-2.944-.602-3.769-1.162l.736-1.718zM20.833 15.717v-7.362h2.365v7.452c0 3.233-1.964 4.105-4.194 4.105-2.232 0-4.195-.872-4.195-4.105v-7.452h2.366v7.362c0 1.474.602 2.186 1.83 2.186 1.226-.001 1.828-.713 1.828-2.186z"/></g></g><path fill="#fff" stroke="#ED1C24" stroke-width="1.4" stroke-miterlimit="10" d="M40.414.7h42v26.6h-42z"/><g fill="#ED1C24"><path d="M47.477 22.042l.925-2.531c1.38.714 2.776 1.071 4.188 1.071 1.152 0 2.028-.276 2.629-.828s.901-1.274.901-2.167c0-1.704-1.137-2.557-3.409-2.557h-2.118v-2.679h1.656c1.055 0 1.915-.227 2.58-.682.666-.454.999-1.16.999-2.118 0-1.526-.918-2.289-2.752-2.289-1.558 0-3.076.455-4.553 1.364l-1.12-2.508c1.98-1.12 4.091-1.68 6.331-1.68 1.785 0 3.141.418 4.065 1.254.926.836 1.388 1.952 1.388 3.348 0 1.867-.917 3.23-2.751 4.09.941.325 1.672.873 2.191 1.644.52.771.779 1.717.779 2.837 0 1.688-.581 3.088-1.741 4.2-1.16 1.111-2.779 1.667-4.857 1.667-1.899.001-3.676-.478-5.331-1.436zM70.838 22.979c-.803.35-1.749.523-2.836.523-1.088 0-2.029-.174-2.824-.523-.796-.349-1.429-.803-1.899-1.363-.471-.56-.845-1.266-1.12-2.118-.276-.853-.459-1.704-.548-2.557-.089-.852-.134-1.83-.134-2.934 0-1.299.098-2.479.292-3.543.195-1.063.523-2.065.986-3.007.463-.941 1.14-1.68 2.033-2.215.893-.536 1.964-.804 3.214-.804 1.022 0 1.923.183 2.702.548s1.408.844 1.887 1.437c.479.593.868 1.315 1.169 2.167s.508 1.712.621 2.581c.113.869.171 1.814.171 2.837 0 1.104-.045 2.082-.135 2.934-.089.853-.271 1.704-.548 2.557-.275.853-.649 1.559-1.119 2.118-.472.56-1.108 1.014-1.912 1.362zm-2.836-2.325c1.071 0 1.862-.499 2.374-1.497.511-.998.767-2.625.767-4.882 0-1.428-.081-2.617-.243-3.566-.163-.95-.483-1.737-.962-2.362s-1.124-.938-1.936-.938c-.601 0-1.112.167-1.534.5s-.747.824-.974 1.473c-.228.649-.386 1.364-.475 2.143-.09.779-.135 1.696-.135 2.751 0 2.257.256 3.884.768 4.882.511.997 1.294 1.496 2.35 1.496z"/></g><g fill="none"><path d="M.132 27.8c.05.03.164.08.288.08.224 0 .296-.142.293-.252-.002-.182-.166-.26-.335-.26h-.098v-.132h.098c.128 0 .29-.065.29-.22 0-.104-.066-.196-.228-.196-.104 0-.204.046-.26.086l-.048-.128c.07-.05.202-.1.342-.1.256 0 .372.152.372.31 0 .136-.082.25-.24.309v.004c.16.029.288.149.29.331 0 .208-.164.391-.474.391-.146 0-.274-.047-.338-.089l.048-.134zM1.981 27.336c0 .442-.166.687-.452.687-.254 0-.428-.238-.432-.668 0-.438.19-.676.454-.676.272 0 .43.244.43.657zm-.705.02c0 .338.104.529.264.529.178 0 .264-.21.264-.541 0-.32-.08-.53-.264-.53-.152 0-.264.189-.264.542z"/></g></g></svg>