<?xml version="1.0" encoding="iso-8859-1"?>
<!-- Generator: Adobe Illustrator 22.1.0, SVG Export Plug-In . SVG Version: 6.00 Build 0)  -->
<svg version="1.1" xmlns="http://www.w3.org/2000/svg" xmlns:xlink="http://www.w3.org/1999/xlink" x="0px" y="0px"
	 viewBox="0 0 83 28" style="enable-background:new 0 0 83 28;" xml:space="preserve">
<g id="Layer_1">
</g>
<g id="TestEtiquetteArret">
	<g id="_x34_48">
		<g>
			<g id="Layer_1_1_">
			</g>
			<g id="Isolation_Mode">
				<g>
					<path style="fill:#EC2227;" d="M3.592,0C3.592,0,0,5.425,0,14.001C0,22.579,3.592,28,3.592,28h31.421V0H3.592z"/>
					<g>
						<path style="fill:#FFFFFF;" d="M5.871,8.355h3.838c2.432,0,3.503,1.25,3.503,2.678c0,1.584-0.938,2.231-1.384,2.431
							c0.892,0.268,1.874,1.117,1.874,2.7c0,2.074-1.495,3.48-3.726,3.48H5.871V8.355z M9.172,12.952
							c1.026,0,1.696-0.426,1.696-1.451c0-0.715-0.4-1.361-1.561-1.361H8.235v2.812H9.172z M9.351,17.972
							c1.071,0,1.986-0.38,1.986-1.719c0-1.05-0.691-1.628-1.942-1.628H8.235v3.347L9.351,17.972L9.351,17.972z"/>
						<path style="fill:#FFFFFF;" d="M24.795,17.034c0.76,0.401,1.607,0.826,2.878,0.826c1.071,0,1.606-0.625,1.606-1.295
							c0-0.915-0.647-1.316-2.253-2.006c-1.428-0.603-2.433-1.34-2.433-3.192c0-1.785,1.361-3.279,3.994-3.279
							c1.295,0,2.275,0.358,2.877,0.692l-0.714,1.941c-0.581-0.357-1.427-0.625-2.296-0.625c-0.937,0-1.585,0.423-1.585,1.16
							c0,0.716,0.47,1.206,1.74,1.741c2.321,0.981,2.945,1.786,2.945,3.391c0,2.613-1.964,3.526-3.726,3.526
							c-1.695,0-2.944-0.602-3.769-1.162L24.795,17.034z"/>
						<path style="fill:#FFFFFF;" d="M20.833,15.717V8.355h2.365v7.452c0,3.233-1.964,4.105-4.194,4.105
							c-2.232,0-4.195-0.872-4.195-4.105V8.355h2.366v7.362c0,1.474,0.602,2.186,1.83,2.186
							C20.231,17.902,20.833,17.19,20.833,15.717z"/>
					</g>
				</g>
			</g>
		</g>
		<rect x="40.414" y="0.7" style="fill:#FFFFFF;stroke:#ED1C24;stroke-width:1.4;stroke-miterlimit:10;" width="42" height="26.6"/>
		<g>
			<path style="fill:#ED1C24;" d="M42.837,20.354v-2.498l5.708-11.049H52.4v11.157h2.089v2.391H52.4v2.93h-2.714v-2.93H42.837z
				 M45.313,17.964h4.373V9.047c-0.144,0.546-0.518,1.4-1.12,2.563L45.313,17.964z"/>
			<path style="fill:#ED1C24;" d="M55.222,20.354v-2.498L60.93,6.807h3.855v11.157h2.089v2.391h-2.089v2.93h-2.714v-2.93H55.222z
				 M57.698,17.964h4.373V9.047c-0.144,0.546-0.518,1.4-1.12,2.563L57.698,17.964z"/>
			<path style="fill:#ED1C24;" d="M68.145,18.912c0-1.767,0.89-3.145,2.671-4.136c-1.465-0.89-2.197-2.089-2.197-3.597
				c0-1.393,0.478-2.502,1.433-3.328s2.143-1.239,3.564-1.239s2.531,0.355,3.328,1.066c0.797,0.71,1.195,1.662,1.195,2.854
				c0,1.637-0.812,2.844-2.435,3.619c2.068,0.919,3.102,2.34,3.102,4.264c0,1.394-0.495,2.582-1.485,3.565
				c-0.991,0.983-2.37,1.475-4.136,1.475c-1.666,0-2.922-0.438-3.77-1.313S68.145,20.19,68.145,18.912z M71.225,18.826
				c0,0.818,0.212,1.436,0.636,1.852c0.423,0.417,0.972,0.625,1.647,0.625c0.718,0,1.271-0.227,1.658-0.679s0.582-1.045,0.582-1.776
				c0-0.805-0.234-1.407-0.7-1.81c-0.467-0.402-1.231-0.79-2.294-1.163C71.734,16.478,71.225,17.462,71.225,18.826z M73.486,13.377
				c1.12-0.546,1.68-1.415,1.68-2.606c0-1.25-0.531-1.874-1.594-1.874c-0.531,0-0.97,0.172-1.313,0.517
				c-0.345,0.344-0.518,0.89-0.518,1.637c0,0.502,0.122,0.944,0.366,1.324C72.352,12.756,72.811,13.09,73.486,13.377z"/>
		</g>
		<g>
			<path style="fill:none;" d="M0.634,28v-0.355H0.03V27.53l0.58-0.829H0.8v0.807h0.182v0.137H0.8V28H0.634z M0.634,27.508v-0.434
				c0-0.067,0.002-0.136,0.006-0.203H0.634c-0.04,0.075-0.072,0.132-0.108,0.191l-0.318,0.441v0.004H0.634z"/>
			<path style="fill:none;" d="M1.66,28v-0.355H1.056V27.53l0.58-0.829h0.189v0.807h0.182v0.137H1.825V28H1.66z M1.66,27.508v-0.434
				c0-0.067,0.002-0.136,0.006-0.203H1.66c-0.04,0.075-0.072,0.132-0.108,0.191l-0.318,0.441v0.004H1.66z"/>
			<path style="fill:none;" d="M2.381,27.316c-0.146-0.068-0.208-0.18-0.208-0.292c0-0.206,0.174-0.346,0.404-0.346
				c0.251,0,0.379,0.156,0.379,0.32c0,0.109-0.056,0.229-0.216,0.304v0.006c0.162,0.063,0.262,0.18,0.262,0.336
				c0,0.228-0.194,0.378-0.442,0.378c-0.272,0-0.436-0.16-0.436-0.351c0-0.164,0.098-0.281,0.258-0.35L2.381,27.316z M2.825,27.662
				c0-0.156-0.11-0.233-0.286-0.284c-0.152,0.044-0.234,0.146-0.234,0.271c-0.006,0.13,0.094,0.246,0.26,0.246
				C2.724,27.895,2.825,27.796,2.825,27.662z M2.342,27.013c-0.002,0.13,0.098,0.2,0.248,0.239c0.112-0.037,0.198-0.117,0.198-0.235
				c0-0.104-0.062-0.212-0.22-0.212C2.421,26.805,2.342,26.9,2.342,27.013z"/>
		</g>
	</g>
</g>
</svg>
