<?xml version="1.0" encoding="UTF-8"?>
<svg id="Calque_1" data-name="Calque 1" xmlns="http://www.w3.org/2000/svg" viewBox="0 0 1920 646.93">
  <defs>
    <style>
      .cls-1 {
        fill: #ec2227;
      }

      .cls-2 {
        fill: #fff;
      }

      .cls-3 {
        fill: #6f4013;
      }
    </style>
  </defs>
  <g>
    <path class="cls-1" d="M83.18,0S0,124.77,0,323.47s83.18,323.47,83.18,323.47H808.66V0H83.18Z"/>
    <path class="cls-2" d="M136.32,194.08h87.8c55.45,0,80.87,27.73,80.87,62.38,0,36.97-20.79,50.83-32.35,55.45,20.79,6.93,43.9,25.42,43.9,62.38,0,48.52-34.66,80.87-85.49,80.87h-94.73V194.08Zm76.25,106.28c23.1,0,39.28-9.24,39.28-34.66,0-16.17-9.24-32.35-36.97-32.35h-25.42v67h23.1Zm4.62,115.52c25.42,0,46.21-9.24,46.21-39.28,0-25.42-16.17-36.97-43.9-36.97h-30.04v76.25h27.73Zm355.81-23.1c18.48,9.24,36.97,18.48,67,18.48,25.42,0,36.97-13.86,36.97-30.04,0-20.79-13.86-30.04-53.14-46.21-32.35-13.86-55.45-30.04-55.45-73.93,0-41.59,32.35-76.25,92.42-76.25,30.04,0,53.14,9.24,67,16.17l-16.17,43.9c-13.86-9.24-32.35-13.86-53.14-13.86s-36.97,9.24-36.97,27.73c0,16.17,11.55,27.73,39.28,39.28,53.14,23.1,67,41.59,67,78.56,0,60.07-46.21,80.87-85.49,80.87s-67-13.86-87.8-27.73c2.31,4.62,18.48-36.97,18.48-36.97Zm-92.42-30.04V194.08h55.45v173.29c0,73.94-46.21,94.73-97.04,94.73s-97.04-20.79-97.04-94.73V194.08h55.45v170.97c0,34.66,13.86,50.83,41.59,50.83,27.73-2.31,41.59-18.48,41.59-53.14Z"/>
  </g>
  <g>
    <rect class="cls-2" x="933.43" y="16.17" width="970.4" height="614.58"/>
    <path class="cls-3" d="M1920,646.93H917.26V0h1002.74V646.93Zm-970.4-32.35h938.05V32.35H949.6V614.59Z"/>
  </g>
  <path class="cls-3" d="M1598.84,538.34V157.11h207.94v55.45h-143.25v97.04h134.01v55.45h-134.01v115.52h147.87v55.45c0,2.31-212.56,2.31-212.56,2.31Z"/>
  <g>
    <path class="cls-3" d="M1011.01,469.3c23.88,8.68,58.61,15.2,86.84,15.2,49.93,0,75.98-26.05,75.98-71.64s-23.88-60.79-69.47-60.79h-93.35l6.51-197.55h217.09v54.27h-151.96l-4.34,86.84h47.76c73.81,0,115.06,39.08,115.06,112.89s-43.42,132.43-136.77,132.43c-45.59,0-84.67-15.2-108.55-23.88l15.2-47.76Z"/>
    <path class="cls-3" d="M1282.37,486.67c0-39.08,21.71-69.47,69.47-106.37l45.59-34.73c32.56-23.88,52.1-45.59,52.1-78.15,0-45.59-30.39-60.79-62.96-60.79s-67.3,13.03-86.84,23.88l-21.71-47.76c34.73-21.71,78.15-32.56,112.89-32.56,75.98,0,128.08,39.08,128.08,108.55,0,62.96-26.05,91.18-73.81,128.08l-56.44,41.25c-30.39,23.88-32.56,36.91-34.73,52.1h169.33v56.44h-240.97v-49.93Z"/>
  </g>
</svg>