<svg xmlns="http://www.w3.org/2000/svg" viewBox="0 0 83 28" enable-background="new 0 0 83 28"><g><g><path d="M3.592 0s-3.592 5.425-3.592 14.001c0 8.578 3.592 13.999 3.592 13.999h31.421v-28h-31.421z" fill="#EC2227"/><g fill="#fff"><path d="M5.871 8.355h3.838c2.432 0 3.503 1.25 3.503 2.678 0 1.584-.938 2.231-1.384 2.431.892.268 1.874 1.117 1.874 2.7 0 2.074-1.495 3.48-3.726 3.48h-4.105v-11.289zm3.301 4.597c1.026 0 1.696-.426 1.696-1.451 0-.715-.4-1.361-1.561-1.361h-1.072v2.812h.937zm.179 5.02c1.071 0 1.986-.38 1.986-1.719 0-1.05-.691-1.628-1.942-1.628h-1.16v3.347h1.116zM24.795 17.034c.76.401 1.607.826 2.878.826 1.071 0 1.606-.625 1.606-1.295 0-.915-.647-1.316-2.253-2.006-1.428-.603-2.433-1.34-2.433-3.192 0-1.785 1.361-3.279 3.994-3.279 1.295 0 2.275.358 2.877.692l-.714 1.941c-.581-.357-1.427-.625-2.296-.625-.937 0-1.585.423-1.585 1.16 0 .716.47 1.206 1.74 1.741 2.321.981 2.945 1.786 2.945 3.391 0 2.613-1.964 3.526-3.726 3.526-1.695 0-2.944-.602-3.769-1.162l.736-1.718zM20.833 15.717v-7.362h2.365v7.452c0 3.233-1.964 4.105-4.194 4.105-2.232 0-4.195-.872-4.195-4.105v-7.452h2.366v7.362c0 1.474.602 2.186 1.83 2.186 1.226-.001 1.828-.713 1.828-2.186z"/></g></g><path fill="#fff" stroke="#ED1C24" stroke-width="1.4" stroke-miterlimit="10" d="M40.414.7h42v26.6h-42z"/><g fill="#ED1C24"><path d="M54.075 23.503c-2.046 0-3.563-.755-4.554-2.264-.99-1.51-1.485-3.579-1.485-6.209 0-3.165.67-5.722 2.009-7.669 1.34-1.948 3.267-2.922 5.783-2.922 1.379 0 2.572.244 3.579.73l-.853 2.532c-.715-.357-1.453-.536-2.216-.536-1.412 0-2.548.516-3.408 1.546-.86 1.031-1.363 2.568-1.51 4.614 1.233-.779 2.572-1.169 4.018-1.169.552 0 1.079.073 1.582.219.503.146 1.002.395 1.498.743.495.349.889.864 1.181 1.546s.438 1.502.438 2.459c0 1.899-.553 3.438-1.656 4.614s-2.572 1.766-4.406 1.766zm.219-2.58c1.672 0 2.508-1.071 2.508-3.214 0-.941-.187-1.628-.56-2.058-.374-.43-.967-.646-1.778-.646-1.055 0-2.069.268-3.043.804 0 1.737.223 3.023.67 3.859.446.837 1.18 1.255 2.203 1.255zM61.988 18.342c0-1.997 1.006-3.555 3.019-4.675-1.655-1.007-2.483-2.362-2.483-4.066 0-1.574.539-2.828 1.619-3.762 1.079-.933 2.423-1.4 4.029-1.4 1.607 0 2.861.402 3.762 1.205.901.804 1.352 1.879 1.352 3.226 0 1.851-.917 3.214-2.751 4.091 2.337 1.039 3.506 2.646 3.506 4.82 0 1.575-.56 2.918-1.68 4.03-1.12 1.111-2.679 1.667-4.675 1.667-1.884 0-3.304-.494-4.261-1.484-.958-.99-1.437-2.208-1.437-3.652zm3.482-.098c0 .925.239 1.623.718 2.094s1.1.706 1.863.706c.812 0 1.437-.256 1.874-.767.438-.512.658-1.181.658-2.009 0-.909-.265-1.591-.792-2.045s-1.392-.893-2.593-1.315c-1.152.682-1.728 1.794-1.728 3.336zm2.556-6.16c1.266-.616 1.898-1.599 1.898-2.946 0-1.412-.601-2.118-1.802-2.118-.601 0-1.096.195-1.484.584-.39.39-.585 1.007-.585 1.851 0 .568.138 1.068.414 1.498.276.429.796.807 1.559 1.131z"/></g><g fill="none"><path d="M.832 26.824l-.132.011c-.278.044-.422.243-.452.459h.004c.062-.084.172-.151.316-.151.229 0 .392.168.392.42 0 .239-.162.46-.434.46-.276 0-.458-.217-.458-.554 0-.256.09-.458.22-.586.108-.106.251-.172.416-.192l.128-.01v.143zm-.05.75c0-.186-.106-.298-.268-.298-.106 0-.206.064-.254.16l-.018.076c.002.214.102.373.288.373.15.001.252-.125.252-.311zM1.355 27.316c-.146-.068-.208-.18-.208-.292 0-.206.174-.346.404-.346.251 0 .379.156.379.32 0 .109-.056.229-.216.304v.006c.162.063.262.18.262.336 0 .228-.194.378-.442.378-.272 0-.436-.16-.436-.351 0-.164.098-.281.258-.35l-.001-.005zm.444.346c0-.156-.11-.233-.286-.284-.152.044-.234.146-.234.271-.006.13.094.246.26.246.158 0 .26-.099.26-.233zm-.483-.649c-.002.13.098.2.248.239.112-.037.198-.117.198-.235 0-.104-.062-.212-.22-.212-.146 0-.226.095-.226.208z"/></g></g></svg>