<?xml version="1.0" encoding="utf-8"?>
<!-- Generator: Adobe Illustrator 22.1.0, SVG Export Plug-In . SVG Version: 6.00 Build 0)  -->
<svg version="1.1" id="Calque_1" xmlns="http://www.w3.org/2000/svg" xmlns:xlink="http://www.w3.org/1999/xlink" x="0px" y="0px"
	 viewBox="0 0 83 28" style="enable-background:new 0 0 83 28;" xml:space="preserve">
<style type="text/css">
	.st0{fill:#EC2227;}
	.st1{fill:#FFFFFF;}
	.st2{fill:#6F4013;stroke:#6F4013;stroke-width:1.4;stroke-miterlimit:10;}
	.st3{fill:none;}
</style>
<g>
	<g>
		<path class="st0" d="M3.6,0C3.6,0,0,5.4,0,14c0,8.6,3.6,14,3.6,14H35V0C35,0,3.6,0,3.6,0z"/>
		<g>
			<path class="st1" d="M5.9,8.4h3.8c2.4,0,3.5,1.2,3.5,2.7c0,1.6-0.9,2.2-1.4,2.4c0.9,0.3,1.9,1.1,1.9,2.7c0,2.1-1.5,3.5-3.7,3.5
				H5.9V8.4z M9.2,13c1,0,1.7-0.4,1.7-1.5c0-0.7-0.4-1.4-1.6-1.4H8.2V13C8.2,13,9.2,13,9.2,13z M9.4,18c1.1,0,2-0.4,2-1.7
				c0-1.1-0.7-1.6-1.9-1.6H8.2V18H9.4z M24.8,17c0.8,0.4,1.6,0.8,2.9,0.8c1.1,0,1.6-0.6,1.6-1.3c0-0.9-0.6-1.3-2.3-2
				c-1.4-0.6-2.4-1.3-2.4-3.2c0-1.8,1.4-3.3,4-3.3c1.3,0,2.3,0.4,2.9,0.7l-0.7,1.9c-0.6-0.4-1.4-0.6-2.3-0.6c-0.9,0-1.6,0.4-1.6,1.2
				c0,0.7,0.5,1.2,1.7,1.7c2.3,1,2.9,1.8,2.9,3.4c0,2.6-2,3.5-3.7,3.5c-1.7,0-2.9-0.6-3.8-1.2C24.1,18.8,24.8,17,24.8,17z
				 M20.8,15.7V8.4h2.4v7.5c0,3.2-2,4.1-4.2,4.1c-2.2,0-4.2-0.9-4.2-4.1V8.4h2.4v7.4c0,1.5,0.6,2.2,1.8,2.2
				C20.2,17.9,20.8,17.2,20.8,15.7z"/>
		</g>
	</g>
	<path class="st2" d="M40.4,0.7h42v26.6h-42V0.7z"/>
	<g>
		<path class="st1" d="M45.4,23.3c0-2,0.2-3.5,0.5-4.5c0.3-1.1,1-2.3,1.9-3.8l1.2-1.8c1-1.6,1.6-2.6,1.7-3.3c0-0.3,0-0.5,0-0.6h-7.6
			V6.8h10.5c0.1,0.7,0.1,1.3,0.1,1.8c0,1-0.2,1.9-0.5,2.7c-0.3,0.8-1,2-2.2,3.7l-1.5,2.2c-0.6,0.8-0.9,1.6-1.1,2.4
			c-0.1,0.7-0.2,2-0.2,3.8L45.4,23.3L45.4,23.3z M55.3,22.2l0.8-2.2c1.2,0.6,2.5,0.9,3.7,0.9c1,0,1.8-0.2,2.3-0.7S63,19,63,18.2
			c0-1.5-1-2.3-3-2.3h-1.9v-2.4h1.5c0.9,0,1.7-0.2,2.3-0.6c0.6-0.4,0.9-1,0.9-1.9c0-1.4-0.8-2-2.4-2c-1.4,0-2.7,0.4-4,1.2l-1-2.2
			c1.8-1,3.6-1.5,5.6-1.5c1.6,0,2.8,0.4,3.6,1.1c0.8,0.7,1.2,1.7,1.2,3c0,1.7-0.8,2.9-2.4,3.6c0.8,0.3,1.5,0.8,1.9,1.5
			c0.5,0.7,0.7,1.5,0.7,2.5c0,1.5-0.5,2.7-1.5,3.7c-1,1-2.5,1.5-4.3,1.5C58.3,23.5,56.8,23,55.3,22.2z M69.2,23.3V6.8h9v2.4H72v4.2
			h5.8v2.4H72v5h6.4v2.4C78.4,23.3,69.2,23.3,69.2,23.3z"/>
	</g>
	<g>
		<path class="st3" d="M0.9,26.7v0.1L0.4,28H0.2l0.6-1.1v0H0.1v-0.1C0.1,26.7,0.9,26.7,0.9,26.7z M1.2,27.8c0,0,0.2,0.1,0.3,0.1
			c0.2,0,0.3-0.1,0.3-0.3c0-0.2-0.2-0.3-0.3-0.3H1.3v-0.1h0.1c0.1,0,0.3-0.1,0.3-0.2c0-0.1-0.1-0.2-0.2-0.2c-0.1,0-0.2,0-0.3,0.1
			l0-0.1c0.1,0,0.2-0.1,0.3-0.1c0.3,0,0.4,0.2,0.4,0.3c0,0.1-0.1,0.2-0.2,0.3v0c0.2,0,0.3,0.1,0.3,0.3c0,0.2-0.2,0.4-0.5,0.4
			c-0.1,0-0.3,0-0.3-0.1C1.1,27.9,1.2,27.8,1.2,27.8z M2.9,27.4H2.4v0.5H3V28H2.2v-1.3h0.7v0.1H2.4v0.4h0.5V27.4z"/>
	</g>
</g>
</svg>
