<svg xmlns="http://www.w3.org/2000/svg" viewBox="0 0 83 28" enable-background="new 0 0 83 28"><g><g><path d="M3.592 0s-3.592 5.425-3.592 14.001c0 8.578 3.592 13.999 3.592 13.999h31.421v-28h-31.421z" fill="#EC2227"/><g fill="#fff"><path d="M5.871 8.355h3.838c2.432 0 3.503 1.25 3.503 2.678 0 1.584-.938 2.231-1.384 2.431.892.268 1.874 1.117 1.874 2.7 0 2.074-1.495 3.48-3.726 3.48h-4.105v-11.289zm3.301 4.597c1.026 0 1.696-.426 1.696-1.451 0-.715-.4-1.361-1.561-1.361h-1.072v2.812h.937zm.179 5.02c1.071 0 1.986-.38 1.986-1.719 0-1.05-.691-1.628-1.942-1.628h-1.16v3.347h1.116zM24.795 17.034c.76.401 1.607.826 2.878.826 1.071 0 1.606-.625 1.606-1.295 0-.915-.647-1.316-2.253-2.006-1.428-.603-2.433-1.34-2.433-3.192 0-1.785 1.361-3.279 3.994-3.279 1.295 0 2.275.358 2.877.692l-.714 1.941c-.581-.357-1.427-.625-2.296-.625-.937 0-1.585.423-1.585 1.16 0 .716.47 1.206 1.74 1.741 2.321.981 2.945 1.786 2.945 3.391 0 2.613-1.964 3.526-3.726 3.526-1.695 0-2.944-.602-3.769-1.162l.736-1.718zM20.833 15.717v-7.362h2.365v7.452c0 3.233-1.964 4.105-4.194 4.105-2.232 0-4.195-.872-4.195-4.105v-7.452h2.366v7.362c0 1.474.602 2.186 1.83 2.186 1.226-.001 1.828-.713 1.828-2.186z"/></g></g><path fill="#fff" stroke="#ED1C24" stroke-width="1.4" stroke-miterlimit="10" d="M40.414.7h42v26.6h-42z"/><g fill="#ED1C24"><path d="M47.988 18.342c0-1.997 1.006-3.555 3.019-4.675-1.655-1.007-2.483-2.362-2.483-4.066 0-1.574.539-2.828 1.619-3.762 1.079-.933 2.423-1.4 4.029-1.4 1.607 0 2.861.402 3.762 1.205.901.804 1.352 1.879 1.352 3.226 0 1.851-.917 3.214-2.751 4.091 2.337 1.039 3.506 2.646 3.506 4.82 0 1.575-.56 2.918-1.68 4.03-1.12 1.111-2.679 1.667-4.675 1.667-1.884 0-3.304-.494-4.261-1.484-.958-.99-1.437-2.208-1.437-3.652zm3.482-.098c0 .925.239 1.623.718 2.094s1.1.706 1.863.706c.812 0 1.437-.256 1.874-.767.438-.512.658-1.181.658-2.009 0-.909-.265-1.591-.792-2.045s-1.392-.893-2.593-1.315c-1.152.682-1.728 1.794-1.728 3.336zm2.556-6.16c1.266-.616 1.898-1.599 1.898-2.946 0-1.412-.601-2.118-1.802-2.118-.601 0-1.096.195-1.484.584-.39.39-.585 1.007-.585 1.851 0 .568.138 1.068.414 1.498.276.429.796.807 1.559 1.131zM70.838 22.979c-.803.35-1.749.523-2.836.523-1.088 0-2.029-.174-2.824-.523-.796-.349-1.429-.803-1.899-1.363-.471-.56-.845-1.266-1.12-2.118-.276-.853-.459-1.704-.548-2.557-.089-.852-.134-1.83-.134-2.934 0-1.299.098-2.479.292-3.543.195-1.063.523-2.065.986-3.007.463-.941 1.14-1.68 2.033-2.215.893-.536 1.964-.804 3.214-.804 1.022 0 1.923.183 2.702.548s1.408.844 1.887 1.437c.479.593.868 1.315 1.169 2.167s.508 1.712.621 2.581c.113.869.171 1.814.171 2.837 0 1.104-.045 2.082-.135 2.934-.089.853-.271 1.704-.548 2.557-.275.853-.649 1.559-1.119 2.118-.472.56-1.108 1.014-1.912 1.362zm-2.836-2.325c1.071 0 1.862-.499 2.374-1.497.511-.998.767-2.625.767-4.882 0-1.428-.081-2.617-.243-3.566-.163-.95-.483-1.737-.962-2.362s-1.124-.938-1.936-.938c-.601 0-1.112.167-1.534.5s-.747.824-.974 1.473c-.228.649-.386 1.364-.475 2.143-.09.779-.135 1.696-.135 2.751 0 2.257.256 3.884.768 4.882.511.997 1.294 1.496 2.35 1.496z"/></g><g fill="none"><path d="M.33 27.316c-.146-.068-.208-.18-.208-.292 0-.206.174-.346.404-.346.251 0 .379.156.379.32 0 .109-.056.229-.216.304v.006c.162.063.262.18.262.336 0 .228-.194.378-.442.378-.272 0-.436-.16-.436-.351 0-.164.098-.281.258-.35l-.001-.005zm.443.346c0-.156-.11-.233-.286-.284-.152.044-.234.146-.234.271-.006.13.094.246.26.246.159 0 .26-.099.26-.233zm-.483-.649c-.002.13.098.2.248.239.112-.037.198-.117.198-.235 0-.104-.062-.212-.22-.212-.146 0-.226.095-.226.208zM1.981 27.336c0 .442-.166.687-.452.687-.254 0-.428-.238-.432-.668 0-.438.19-.676.454-.676.272 0 .43.244.43.657zm-.705.02c0 .338.104.529.264.529.178 0 .264-.21.264-.541 0-.32-.08-.53-.264-.53-.152 0-.264.189-.264.542z"/></g></g></svg>