<svg xmlns="http://www.w3.org/2000/svg" viewBox="0 0 83 28" enable-background="new 0 0 83 28"><g><g><path d="M3.592 0s-3.592 5.425-3.592 14.001c0 8.578 3.592 13.999 3.592 13.999h31.421v-28h-31.421z" fill="#EC2227"/><g fill="#fff"><path d="M5.871 8.355h3.838c2.432 0 3.503 1.25 3.503 2.678 0 1.584-.938 2.231-1.384 2.431.892.268 1.874 1.117 1.874 2.7 0 2.074-1.495 3.48-3.726 3.48h-4.105v-11.289zm3.301 4.597c1.026 0 1.696-.426 1.696-1.451 0-.715-.4-1.361-1.561-1.361h-1.072v2.812h.937zm.179 5.02c1.071 0 1.986-.38 1.986-1.719 0-1.05-.691-1.628-1.942-1.628h-1.16v3.347h1.116zM24.795 17.034c.76.401 1.607.826 2.878.826 1.071 0 1.606-.625 1.606-1.295 0-.915-.647-1.316-2.253-2.006-1.428-.603-2.433-1.34-2.433-3.192 0-1.785 1.361-3.279 3.994-3.279 1.295 0 2.275.358 2.877.692l-.714 1.941c-.581-.357-1.427-.625-2.296-.625-.937 0-1.585.423-1.585 1.16 0 .716.47 1.206 1.74 1.741 2.321.981 2.945 1.786 2.945 3.391 0 2.613-1.964 3.526-3.726 3.526-1.695 0-2.944-.602-3.769-1.162l.736-1.718zM20.833 15.717v-7.362h2.365v7.452c0 3.233-1.964 4.105-4.194 4.105-2.232 0-4.195-.872-4.195-4.105v-7.452h2.366v7.362c0 1.474.602 2.186 1.83 2.186 1.226-.001 1.828-.713 1.828-2.186z"/></g></g><path fill="#fff" stroke="#ED1C24" stroke-width="1.4" stroke-miterlimit="10" d="M40.414.7h42v26.6h-42z"/><g fill="#ED1C24"><path d="M47.988 18.342c0-1.997 1.006-3.555 3.019-4.675-1.655-1.007-2.483-2.362-2.483-4.066 0-1.574.539-2.828 1.619-3.762 1.079-.933 2.423-1.4 4.029-1.4 1.607 0 2.861.402 3.762 1.205.901.804 1.352 1.879 1.352 3.226 0 1.851-.917 3.214-2.751 4.091 2.337 1.039 3.506 2.646 3.506 4.82 0 1.575-.56 2.918-1.68 4.03-1.12 1.111-2.679 1.667-4.675 1.667-1.884 0-3.304-.494-4.261-1.484-.958-.99-1.437-2.208-1.437-3.652zm3.482-.098c0 .925.239 1.623.718 2.094s1.1.706 1.863.706c.812 0 1.437-.256 1.874-.767.438-.512.658-1.181.658-2.009 0-.909-.265-1.591-.792-2.045s-1.392-.893-2.593-1.315c-1.152.682-1.728 1.794-1.728 3.336zm2.556-6.16c1.266-.616 1.898-1.599 1.898-2.946 0-1.412-.601-2.118-1.802-2.118-.601 0-1.096.195-1.484.584-.39.39-.585 1.007-.585 1.851 0 .568.138 1.068.414 1.498.276.429.796.807 1.559 1.131zM62.085 22.48l.877-2.581c1.282.536 2.532.804 3.749.804 2.613 0 3.92-1.988 3.92-5.965-1.314.828-2.58 1.241-3.798 1.241-.552 0-1.1-.093-1.644-.279s-1.075-.471-1.595-.853c-.52-.381-.941-.921-1.266-1.619-.325-.697-.487-1.51-.487-2.435 0-1.916.544-3.454 1.631-4.614 1.088-1.16 2.517-1.741 4.285-1.741 2.191 0 3.774.788 4.748 2.362.975 1.575 1.461 3.863 1.461 6.866 0 3.052-.58 5.45-1.74 7.194-1.161 1.745-2.967 2.617-5.418 2.617-.795 0-1.64-.089-2.532-.268s-1.623-.42-2.191-.729zm5.77-9.543c.974 0 1.866-.268 2.679-.804 0-1.51-.216-2.739-.646-3.688-.431-.95-1.124-1.424-2.082-1.424-1.753 0-2.629 1.08-2.629 3.238 0 .828.227 1.481.682 1.959.454.479 1.12.719 1.996.719z"/></g><g fill="none"><path d="M.33 27.316c-.146-.068-.208-.18-.208-.292 0-.206.174-.346.404-.346.251 0 .379.156.379.32 0 .109-.056.229-.216.304v.006c.162.063.262.18.262.336 0 .228-.194.378-.442.378-.272 0-.436-.16-.436-.351 0-.164.098-.281.258-.35l-.001-.005zm.443.346c0-.156-.11-.233-.286-.284-.152.044-.234.146-.234.271-.006.13.094.246.26.246.159 0 .26-.099.26-.233zm-.483-.649c-.002.13.098.2.248.239.112-.037.198-.117.198-.235 0-.104-.062-.212-.22-.212-.146 0-.226.095-.226.208zM1.218 27.876l.142-.006c.102-.014.198-.054.271-.126.086-.078.148-.191.172-.344h-.006c-.072.088-.176.138-.308.138-.232 0-.382-.176-.382-.397 0-.246.178-.462.444-.462s.43.214.43.55c0 .284-.096.483-.224.607-.1.098-.238.158-.377.174l-.162.01v-.144zm.064-.745c0 .161.098.275.25.275.118 0 .21-.058.256-.136l.016-.066c0-.222-.082-.392-.268-.392-.148.001-.254.132-.254.319z"/></g></g></svg>