<svg xmlns="http://www.w3.org/2000/svg" viewBox="0 0 83 28" enable-background="new 0 0 83 28"><g><g><path d="M3.592 0s-3.592 5.425-3.592 14.001c0 8.578 3.592 13.999 3.592 13.999h31.421v-28h-31.421z" fill="#EC2227"/><g fill="#fff"><path d="M5.871 8.355h3.838c2.432 0 3.503 1.25 3.503 2.678 0 1.584-.938 2.231-1.384 2.431.892.268 1.874 1.117 1.874 2.7 0 2.074-1.495 3.48-3.726 3.48h-4.105v-11.289zm3.301 4.597c1.026 0 1.696-.426 1.696-1.451 0-.715-.4-1.361-1.561-1.361h-1.072v2.812h.937zm.179 5.02c1.071 0 1.986-.38 1.986-1.719 0-1.05-.691-1.628-1.942-1.628h-1.16v3.347h1.116zM24.795 17.034c.76.401 1.607.826 2.878.826 1.071 0 1.606-.625 1.606-1.295 0-.915-.647-1.316-2.253-2.006-1.428-.603-2.433-1.34-2.433-3.192 0-1.785 1.361-3.279 3.994-3.279 1.295 0 2.275.358 2.877.692l-.714 1.941c-.581-.357-1.427-.625-2.296-.625-.937 0-1.585.423-1.585 1.16 0 .716.47 1.206 1.74 1.741 2.321.981 2.945 1.786 2.945 3.391 0 2.613-1.964 3.526-3.726 3.526-1.695 0-2.944-.602-3.769-1.162l.736-1.718zM20.833 15.717v-7.362h2.365v7.452c0 3.233-1.964 4.105-4.194 4.105-2.232 0-4.195-.872-4.195-4.105v-7.452h2.366v7.362c0 1.474.602 2.186 1.83 2.186 1.226-.001 1.828-.713 1.828-2.186z"/></g></g><path fill="#fff" stroke="#ED1C24" stroke-miterlimit="10" d="M40.414.7h42v26.6h-42z"/><g fill="#ED1C24"><path d="M42.375 18.912c0-1.767.891-3.145 2.671-4.136-1.464-.89-2.196-2.089-2.196-3.597 0-1.393.477-2.502 1.432-3.328s2.144-1.239 3.565-1.239c1.421 0 2.53.355 3.327 1.066.797.71 1.195 1.662 1.195 2.854 0 1.637-.812 2.844-2.434 3.619 2.067.919 3.102 2.34 3.102 4.264 0 1.394-.495 2.582-1.486 3.565-.99.983-2.369 1.475-4.136 1.475-1.665 0-2.922-.438-3.769-1.313s-1.271-1.952-1.271-3.23zm3.08-.086c0 .818.212 1.436.636 1.852.424.417.973.625 1.647.625.718 0 1.271-.227 1.659-.679s.581-1.045.581-1.776c0-.805-.233-1.407-.7-1.81s-1.231-.79-2.294-1.163c-1.019.603-1.529 1.587-1.529 2.951zm2.262-5.449c1.12-.546 1.681-1.415 1.681-2.606 0-1.25-.532-1.874-1.595-1.874-.531 0-.969.172-1.313.517-.345.344-.517.89-.517 1.637 0 .502.121.944.366 1.324.244.381.703.715 1.378 1.002zM54.847 22.573l.775-2.283c1.134.475 2.239.711 3.316.711 2.312 0 3.468-1.759 3.468-5.276-1.163.731-2.283 1.098-3.36 1.098-.488 0-.973-.082-1.453-.247-.481-.165-.951-.417-1.411-.754s-.833-.815-1.12-1.433-.431-1.335-.431-2.153c0-1.694.481-3.055 1.443-4.082.962-1.026 2.226-1.54 3.791-1.54 1.938 0 3.338.697 4.199 2.089.862 1.393 1.293 3.417 1.293 6.074 0 2.7-.514 4.821-1.54 6.364-1.027 1.544-2.625 2.315-4.793 2.315-.703 0-1.45-.079-2.239-.236-.79-.158-1.436-.373-1.938-.647zm5.104-8.443c.861 0 1.65-.236 2.369-.71 0-1.336-.19-2.424-.571-3.264-.38-.84-.994-1.26-1.841-1.26-1.551 0-2.326.955-2.326 2.864 0 .732.2 1.311.603 1.734s.991.636 1.766.636zM67.179 23.284v-16.477h5.923c1.091 0 2.093.133 3.005.398.911.266 1.751.689 2.52 1.271.768.582 1.368 1.396 1.799 2.444.431 1.049.646 2.291.646 3.727 0 2.915-.808 5.083-2.423 6.505-1.615 1.421-3.751 2.132-6.407 2.132h-5.063zm2.821-2.369h2.046c.891 0 1.69-.101 2.401-.302s1.354-.521 1.928-.958c.574-.438 1.02-1.052 1.336-1.842.315-.79.474-1.73.474-2.821 0-1.896-.452-3.335-1.357-4.318-.904-.984-2.226-1.476-3.963-1.476h-2.865v11.717z"/></g><g fill="none"><path d="M.33 27.316c-.146-.068-.208-.18-.208-.292 0-.206.174-.346.404-.346.251 0 .379.156.379.32 0 .109-.056.229-.216.304v.006c.162.063.262.18.262.336 0 .228-.194.378-.442.378-.272 0-.436-.16-.436-.351 0-.164.098-.281.258-.35l-.001-.005zm.443.346c0-.156-.11-.233-.286-.284-.152.044-.234.146-.234.271-.006.13.094.246.26.246.159 0 .26-.099.26-.233zm-.483-.649c-.002.13.098.2.248.239.112-.037.198-.117.198-.235 0-.104-.062-.212-.22-.212-.146 0-.226.095-.226.208zM1.218 27.876l.142-.006c.102-.014.198-.054.271-.126.086-.078.148-.191.172-.344h-.006c-.072.088-.176.138-.308.138-.232 0-.382-.176-.382-.397 0-.246.178-.462.444-.462s.43.214.43.55c0 .284-.096.483-.224.607-.1.098-.238.158-.377.174l-.162.01v-.144zm.064-.745c0 .161.098.275.25.275.118 0 .21-.058.256-.136l.016-.066c0-.222-.082-.392-.268-.392-.148.001-.254.132-.254.319zM2.204 26.673c.106-.019.232-.03.37-.03.25 0 .428.061.546.168.122.11.192.266.192.483 0 .221-.07.4-.194.524-.128.126-.336.193-.598.193l-.316-.016v-1.322zm.173 1.191l.176.008c.374 0 .573-.208.573-.571.002-.318-.178-.521-.545-.521l-.204.019v1.065z"/></g></g></svg>