<?xml version="1.0" encoding="utf-8"?>
<!-- Generator: Adobe Illustrator 22.1.0, SVG Export Plug-In . SVG Version: 6.00 Build 0)  -->
<svg version="1.1" id="Calque_1" xmlns="http://www.w3.org/2000/svg" xmlns:xlink="http://www.w3.org/1999/xlink" x="0px" y="0px"
	 viewBox="0 0 83 28" style="enable-background:new 0 0 83 28;" xml:space="preserve">
<style type="text/css">
	.st0{fill:#EC2227;}
	.st1{fill:#FFFFFF;}
	.st2{fill:#6F4013;stroke:#6F4013;stroke-width:1.4;stroke-miterlimit:10;}
	.st3{fill:none;}
</style>
<g>
	<g>
		<path class="st0" d="M3.6,0C3.6,0,0,5.4,0,14c0,8.6,3.6,14,3.6,14H35V0C35,0,3.6,0,3.6,0z"/>
		<g>
			<path class="st1" d="M5.9,8.4h3.8c2.4,0,3.5,1.2,3.5,2.7c0,1.6-0.9,2.2-1.4,2.4c0.9,0.3,1.9,1.1,1.9,2.7c0,2.1-1.5,3.5-3.7,3.5
				H5.9V8.4z M9.2,13c1,0,1.7-0.4,1.7-1.5c0-0.7-0.4-1.4-1.6-1.4H8.2V13C8.2,13,9.2,13,9.2,13z M9.4,18c1.1,0,2-0.4,2-1.7
				c0-1.1-0.7-1.6-1.9-1.6H8.2V18H9.4z M24.8,17c0.8,0.4,1.6,0.8,2.9,0.8c1.1,0,1.6-0.6,1.6-1.3c0-0.9-0.6-1.3-2.3-2
				c-1.4-0.6-2.4-1.3-2.4-3.2c0-1.8,1.4-3.3,4-3.3c1.3,0,2.3,0.4,2.9,0.7l-0.7,1.9c-0.6-0.4-1.4-0.6-2.3-0.6c-0.9,0-1.6,0.4-1.6,1.2
				c0,0.7,0.5,1.2,1.7,1.7c2.3,1,2.9,1.8,2.9,3.4c0,2.6-2,3.5-3.7,3.5c-1.7,0-2.9-0.6-3.8-1.2C24.1,18.8,24.8,17,24.8,17z
				 M20.8,15.7V8.4h2.4v7.5c0,3.2-2,4.1-4.2,4.1c-2.2,0-4.2-0.9-4.2-4.1V8.4h2.4v7.4c0,1.5,0.6,2.2,1.8,2.2
				C20.2,17.9,20.8,17.2,20.8,15.7z"/>
		</g>
	</g>
	<path class="st2" d="M40.4,0.7h42v26.6h-42V0.7z"/>
	<g>
		<path class="st1" d="M43.5,22.6l0.8-2.3c1.1,0.5,2.2,0.7,3.3,0.7c2.3,0,3.5-1.8,3.5-5.3c-1.2,0.7-2.3,1.1-3.4,1.1
			c-0.5,0-1-0.1-1.5-0.2c-0.5-0.2-1-0.4-1.4-0.8S44,15,43.7,14.4s-0.4-1.3-0.4-2.2c0-1.7,0.5-3.1,1.4-4.1c1-1,2.2-1.5,3.8-1.5
			c1.9,0,3.3,0.7,4.2,2.1c0.9,1.4,1.3,3.4,1.3,6.1c0,2.7-0.5,4.8-1.5,6.4c-1,1.5-2.6,2.3-4.8,2.3c-0.7,0-1.5-0.1-2.2-0.2
			C44.6,23.1,44,22.8,43.5,22.6z M48.6,14.1c0.9,0,1.7-0.2,2.4-0.7c0-1.3-0.2-2.4-0.6-3.3c-0.4-0.8-1-1.3-1.8-1.3
			c-1.6,0-2.3,1-2.3,2.9c0,0.7,0.2,1.3,0.6,1.7S47.8,14.1,48.6,14.1z M55.8,18.9c0-1.8,0.9-3.1,2.7-4.1c-1.5-0.9-2.2-2.1-2.2-3.6
			c0-1.4,0.5-2.5,1.4-3.3s2.1-1.2,3.6-1.2c1.4,0,2.5,0.4,3.3,1.1c0.8,0.7,1.2,1.7,1.2,2.9c0,1.6-0.8,2.8-2.4,3.6
			c2.1,0.9,3.1,2.3,3.1,4.3c0,1.4-0.5,2.6-1.5,3.6c-1,1-2.4,1.5-4.1,1.5c-1.7,0-2.9-0.4-3.8-1.3S55.8,20.2,55.8,18.9z M58.8,18.8
			c0,0.8,0.2,1.4,0.6,1.9c0.4,0.4,1,0.6,1.6,0.6c0.7,0,1.3-0.2,1.7-0.7s0.6-1,0.6-1.8c0-0.8-0.2-1.4-0.7-1.8s-1.2-0.8-2.3-1.2
			C59.3,16.5,58.8,17.5,58.8,18.8z M61.1,13.4c1.1-0.5,1.7-1.4,1.7-2.6c0-1.2-0.5-1.9-1.6-1.9c-0.5,0-1,0.2-1.3,0.5
			c-0.3,0.3-0.5,0.9-0.5,1.6c0,0.5,0.1,0.9,0.4,1.3C60,12.8,60.4,13.1,61.1,13.4z M69.2,23.3V6.8h9v2.4H72v4.2h5.8v2.4H72v5h6.4v2.4
			C78.4,23.3,69.2,23.3,69.2,23.3z"/>
	</g>
	<g>
		<path class="st3" d="M0.2,27.9l0.1,0c0.1,0,0.2-0.1,0.3-0.1c0.1-0.1,0.1-0.2,0.2-0.3h0c-0.1,0.1-0.2,0.1-0.3,0.1
			c-0.2,0-0.4-0.2-0.4-0.4c0-0.2,0.2-0.5,0.4-0.5S1,26.9,1,27.2c0,0.3-0.1,0.5-0.2,0.6C0.6,27.9,0.5,28,0.4,28l-0.2,0
			C0.2,28,0.2,27.9,0.2,27.9z M0.3,27.1c0,0.2,0.1,0.3,0.3,0.3c0.1,0,0.2-0.1,0.3-0.1l0-0.1c0-0.2-0.1-0.4-0.3-0.4
			C0.4,26.8,0.3,26.9,0.3,27.1z M1.4,27.3c-0.1-0.1-0.2-0.2-0.2-0.3c0-0.2,0.2-0.3,0.4-0.3c0.3,0,0.4,0.2,0.4,0.3
			c0,0.1-0.1,0.2-0.2,0.3v0C1.9,27.4,2,27.5,2,27.6C2,27.9,1.8,28,1.5,28c-0.3,0-0.4-0.2-0.4-0.4C1.1,27.5,1.2,27.4,1.4,27.3
			C1.4,27.3,1.4,27.3,1.4,27.3z M1.8,27.7c0-0.2-0.1-0.2-0.3-0.3c-0.2,0-0.2,0.1-0.2,0.3c0,0.1,0.1,0.2,0.3,0.2
			C1.7,27.9,1.8,27.8,1.8,27.7z M1.3,27c0,0.1,0.1,0.2,0.2,0.2c0.1,0,0.2-0.1,0.2-0.2c0-0.1-0.1-0.2-0.2-0.2
			C1.4,26.8,1.3,26.9,1.3,27z M2.9,27.4H2.4v0.5H3V28H2.2v-1.3h0.7v0.1H2.4v0.4h0.5V27.4z"/>
	</g>
</g>
</svg>
