<?xml version="1.0" encoding="utf-8"?>
<!-- Generator: Adobe Illustrator 22.1.0, SVG Export Plug-In . SVG Version: 6.00 Build 0)  -->
<svg version="1.1" id="Calque_1" xmlns="http://www.w3.org/2000/svg" xmlns:xlink="http://www.w3.org/1999/xlink" x="0px" y="0px"
	 viewBox="0 0 76 25.4" style="enable-background:new 0 0 76 25.4;" xml:space="preserve">
<style type="text/css">
	.st0{display:none;}
	.st1{display:inline;}
	.st2{fill:#FFFFFF;}
	.st3{fill:#1D1D1B;}
	.st4{fill:none;}
	.st5{fill:#E20613;}
	.st6{fill:#575756;}
	.st7{fill:#E30613;}
</style>
<g id="Calque_1_1_" class="st0">
	<title>Fichier 5</title>
	<g class="st1">
		<g>
			<g>
				<rect x="36.7" y="0.9" class="st2" width="38.5" height="23.6"/>
				<path class="st3" d="M74.3,1.7v21.9H37.6V1.7H74.3 M76,0H35.9v25.3H76V0L76,0z"/>
			</g>
			<g>
				<rect x="36" class="st4" width="39.5" height="24.9"/>
				<g>
					<g>
						<path class="st3" d="M43.3,7.8h-4V5.5h10.5v2.2h-4v12.8h-2.6L43.3,7.8L43.3,7.8z"/>
						<path class="st3" d="M51.3,17.6c0.6,0.3,1.9,0.9,3.4,0.9c1.9,0,2.9-1,2.9-2.4c0-1.6-1.2-2.1-2.8-2.1H53v-2.2h1.3
							c1.6,0,2.9-0.6,2.9-2.3c0-1.2-0.6-1.8-2.2-1.8c-1.4,0-2.8,0.5-3.7,1.1l-0.9-2c1.4-0.8,3.3-1.4,5.1-1.4c3,0,4.4,1.6,4.4,3.7
							c0,1.8-1,2.7-2.2,3.3c1.5,0.5,2.4,1.8,2.4,3.6c0,2.6-1.9,4.7-5.3,4.7c-2,0-3.6-0.7-4.3-1.2L51.3,17.6z"/>
						<path class="st3" d="M62.3,13.9c0-4.9,2.1-8.6,6.3-8.6c1.1,0,2.2,0.3,2.9,0.6l-0.7,2c-0.4-0.2-1-0.4-1.8-0.4
							c-2.2,0-3.7,1.6-4,5c0.5-0.3,1.8-0.9,3.2-0.9c1.6,0,3.8,0.8,3.8,4c0,3-1.9,5.2-4.9,5.2C63.7,20.8,62.3,18,62.3,13.9z
							 M69.4,16.1c0-1.5-0.6-2.2-1.9-2.2c-0.7,0-1.7,0.2-2.5,0.6c0,2.8,0.6,4.1,2.3,4.1C68.8,18.7,69.4,17.6,69.4,16.1z"/>
					</g>
				</g>
			</g>
		</g>
		<g>
			<path class="st5" d="M3.2,0C3.2,0,0,4.9,0,12.7s3.2,12.7,3.2,12.7h28.4V0H3.2z"/>
			<path class="st2" d="M22.1,15.4c0.7,0.4,1.5,0.7,2.6,0.7c1,0,1.5-0.6,1.5-1.2c0-0.8-0.6-1.2-2-1.8C22.9,12.6,22,12,22,10.3
				c0-1.6,1.2-3,3.6-3c1.2,0,2.1,0.3,2.6,0.6l-0.6,1.8c-0.5-0.3-1.3-0.6-2.1-0.6c-0.8,0-1.4,0.4-1.4,1s0.4,1.1,1.6,1.6
				c2.1,0.9,2.7,1.6,2.7,3.1c0,2.4-1.8,3.2-3.4,3.2c-1.5,0-2.7-0.5-3.4-1L22.1,15.4z M18.8,14.2V7.6h2.1v6.7c0,2.9-1.8,3.7-3.8,3.7
				s-3.8-0.8-3.8-3.7V7.6h2.1v6.7c0,1.3,0.5,2,1.7,2C18.2,16.2,18.8,15.6,18.8,14.2 M8.5,16.3c1,0,1.8-0.3,1.8-1.6
				c0-0.9-0.6-1.5-1.8-1.5h-1v3h1V16.3z M8.3,11.7c0.9,0,1.5-0.4,1.5-1.3c0-0.6-0.4-1.2-1.4-1.2h-1v2.5H8.3z M5.3,7.6h3.5
				C11,7.6,12,8.7,12,10c0,1.4-0.8,2-1.2,2.2c0.8,0.2,1.7,1,1.7,2.4c0,1.9-1.4,3.1-3.4,3.1H5.3V7.6z"/>
		</g>
	</g>
</g>
<g id="Mode_Isolation">
</g>
<g>
	<g>
		<g>
			<rect x="36.6" y="1.1" class="st2" width="36.7" height="22.5"/>
			<path class="st6" d="M72.4,2v20.8h-35V2H72.4 M74.1,0.3H35.7v24.2h38.4L74.1,0.3L74.1,0.3z"/>
		</g>
		<g>
			<rect x="35.9" y="0.3" class="st4" width="37.8" height="23.8"/>
			<g>
				<g>
					<path class="st6" d="M42.3,5.6h3.4L50.2,20h-2.7l-1-3.4h-4.8l-1,3.4H38L42.3,5.6z M46,14.6L44.4,9c-0.2-0.7-0.2-0.8-0.2-1.4
						h-0.1c-0.1,0.5,0,0.6-0.3,1.5l-1.6,5.4H46V14.6z"/>
					<path class="st6" d="M51.4,17c0.5,0.3,1.8,0.8,3.2,0.8c1.9,0,2.7-1,2.7-2.3c0-1.5-1.2-2-2.6-2h-1.6v-2.1h1.3
						c1.5,0,2.8-0.6,2.8-2.2c0-1.2-0.6-1.8-2.1-1.8c-1.4,0-2.6,0.5-3.5,1.1l-0.9-1.9c1.3-0.8,3.2-1.3,4.9-1.3c2.9,0,4.2,1.5,4.2,3.6
						c0,1.7-1,2.6-2.1,3.2c1.4,0.5,2.3,1.7,2.3,3.5c0,2.5-1.8,4.5-5.1,4.5c-1.9,0-3.4-0.7-4.1-1.1L51.4,17z"/>
					<path class="st6" d="M61.8,18.1c0-1.5,0.8-2.6,2.7-4l1.7-1.3c1.2-0.9,2-1.7,2-3c0-1.7-1.1-2.3-2.4-2.3c-1.2,0-2.5,0.5-3.2,0.9
						l-0.8-1.8c1.3-0.8,3-1.2,4.3-1.2C69,5.4,71,6.8,71,9.5c0,2.4-1,3.5-2.8,4.9L66.1,16c-1.1,0.9-1.3,1.4-1.3,2H71v2h-9.2V18.1z"/>
				</g>
			</g>
		</g>
	</g>
	<g>
		<path class="st7" d="M4.5,0.3c0,0-3.1,4.7-3.1,12.1s3.1,12.1,3.1,12.1h27.2V0.3H4.5z"/>
		<path class="st2" d="M22.6,15c0.7,0.3,1.4,0.7,2.5,0.7c0.9,0,1.4-0.5,1.4-1.1c0-0.8-0.6-1.1-1.9-1.7c-1.2-0.5-2.1-1.2-2.1-2.8
			c0-1.5,1.2-2.8,3.4-2.8c1.1,0,2,0.3,2.5,0.6l-0.6,1.7c-0.5-0.3-1.2-0.5-2-0.5s-1.4,0.4-1.4,1s0.4,1,1.5,1.5c2,0.8,2.5,1.5,2.5,2.9
			c0,2.3-1.7,3-3.2,3s-2.5-0.5-3.3-1L22.6,15z M19.4,13.9V7.5h2v6.4c0,2.8-1.7,3.5-3.6,3.5s-3.6-0.8-3.6-3.5V7.5h2v6.4
			c0,1.3,0.5,1.9,1.6,1.9C18.8,15.8,19.4,15.1,19.4,13.9 M9.5,15.8c0.9,0,1.7-0.3,1.7-1.5c0-0.9-0.6-1.4-1.7-1.4h-1v2.9
			C8.5,15.8,9.5,15.8,9.5,15.8z M6.5,7.5h3.3c2.1,0,3,1.1,3,2.3c0,1.4-0.8,1.9-1.2,2.1c0.8,0.2,1.6,1,1.6,2.3c0,1.8-1.3,3-3.2,3H6.5
			V7.5z M9.4,11.3c0.8,0,1.4-0.3,1.4-1.2c0-0.6-0.3-1.1-1.3-1.1H8.6v2.3H9.4z"/>
	</g>
</g>
</svg>
