<?xml version="1.0" encoding="utf-8"?>
<!-- Generator: Adobe Illustrator 22.1.0, SVG Export Plug-In . SVG Version: 6.00 Build 0)  -->
<svg version="1.1" id="Calque_1" xmlns="http://www.w3.org/2000/svg" xmlns:xlink="http://www.w3.org/1999/xlink" x="0px" y="0px"
	 viewBox="0 0 76 25.4" style="enable-background:new 0 0 76 25.4;" xml:space="preserve">
<style type="text/css">
	.st0{display:none;}
	.st1{display:inline;}
	.st2{fill:#FFFFFF;}
	.st3{fill:#1D1D1B;}
	.st4{fill:none;}
	.st5{fill:#E20613;}
	.st6{fill:#575756;}
	.st7{fill:#E30613;}
</style>
<g id="Calque_1_1_" class="st0">
	<title>Fichier 5</title>
	<g class="st1">
		<g>
			<g>
				<rect x="36.7" y="0.9" class="st2" width="38.5" height="23.6"/>
				<path class="st3" d="M74.3,1.7v21.9H37.6V1.7H74.3 M76,0H35.9v25.3H76V0L76,0z"/>
			</g>
			<g>
				<rect x="36" class="st4" width="39.5" height="24.9"/>
				<g>
					<g>
						<path class="st3" d="M43.3,7.8h-4V5.5h10.5v2.2h-4v12.8h-2.6L43.3,7.8L43.3,7.8z"/>
						<path class="st3" d="M51.3,17.6c0.6,0.3,1.9,0.9,3.4,0.9c1.9,0,2.9-1,2.9-2.4c0-1.6-1.2-2.1-2.8-2.1H53v-2.2h1.3
							c1.6,0,2.9-0.6,2.9-2.3c0-1.2-0.6-1.8-2.2-1.8c-1.4,0-2.8,0.5-3.7,1.1l-0.9-2c1.4-0.8,3.3-1.4,5.1-1.4c3,0,4.4,1.6,4.4,3.7
							c0,1.8-1,2.7-2.2,3.3c1.5,0.5,2.4,1.8,2.4,3.6c0,2.6-1.9,4.7-5.3,4.7c-2,0-3.6-0.7-4.3-1.2L51.3,17.6z"/>
						<path class="st3" d="M62.3,13.9c0-4.9,2.1-8.6,6.3-8.6c1.1,0,2.2,0.3,2.9,0.6l-0.7,2c-0.4-0.2-1-0.4-1.8-0.4
							c-2.2,0-3.7,1.6-4,5c0.5-0.3,1.8-0.9,3.2-0.9c1.6,0,3.8,0.8,3.8,4c0,3-1.9,5.2-4.9,5.2C63.7,20.8,62.3,18,62.3,13.9z
							 M69.4,16.1c0-1.5-0.6-2.2-1.9-2.2c-0.7,0-1.7,0.2-2.5,0.6c0,2.8,0.6,4.1,2.3,4.1C68.8,18.7,69.4,17.6,69.4,16.1z"/>
					</g>
				</g>
			</g>
		</g>
		<g>
			<path class="st5" d="M3.2,0C3.2,0,0,4.9,0,12.7s3.2,12.7,3.2,12.7h28.4V0H3.2z"/>
			<path class="st2" d="M22.1,15.4c0.7,0.4,1.5,0.7,2.6,0.7c1,0,1.5-0.6,1.5-1.2c0-0.8-0.6-1.2-2-1.8C22.9,12.6,22,12,22,10.3
				c0-1.6,1.2-3,3.6-3c1.2,0,2.1,0.3,2.6,0.6l-0.6,1.8c-0.5-0.3-1.3-0.6-2.1-0.6c-0.8,0-1.4,0.4-1.4,1s0.4,1.1,1.6,1.6
				c2.1,0.9,2.7,1.6,2.7,3.1c0,2.4-1.8,3.2-3.4,3.2c-1.5,0-2.7-0.5-3.4-1L22.1,15.4z M18.8,14.2V7.6h2.1v6.7c0,2.9-1.8,3.7-3.8,3.7
				s-3.8-0.8-3.8-3.7V7.6h2.1v6.7c0,1.3,0.5,2,1.7,2C18.2,16.2,18.8,15.6,18.8,14.2 M8.5,16.3c1,0,1.8-0.3,1.8-1.6
				c0-0.9-0.6-1.5-1.8-1.5h-1v3h1V16.3z M8.3,11.7c0.9,0,1.5-0.4,1.5-1.3c0-0.6-0.4-1.2-1.4-1.2h-1v2.5H8.3z M5.3,7.6h3.5
				C11,7.6,12,8.7,12,10c0,1.4-0.8,2-1.2,2.2c0.8,0.2,1.7,1,1.7,2.4c0,1.9-1.4,3.1-3.4,3.1H5.3V7.6z"/>
		</g>
	</g>
</g>
<g id="Mode_Isolation">
</g>
<g>
	<g>
		<g>
			<rect x="36.9" y="2" class="st2" width="35" height="21.4"/>
			<path class="st6" d="M71,2.8v19.7H37.7V2.8H71 M72.7,1.1H36v23.1h36.7V1.1L72.7,1.1z"/>
		</g>
		<g>
			<rect x="36.2" y="1.1" class="st4" width="36" height="22.7"/>
			<g>
				<g>
					<path class="st6" d="M42.4,6.2h3.3l4.2,13.7h-2.6l-0.9-3.2h-4.6l-0.9,3.2h-2.6L42.4,6.2z M45.8,14.8l-1.5-5.3
						c-0.2-0.7-0.2-0.7-0.2-1.3H44c-0.1,0.4,0,0.6-0.3,1.4l-1.5,5.2H45.8z"/>
					<path class="st6" d="M54.4,13l1-1.5c1-1.5,1.3-2.1,1.4-2.7c0-0.2,0-0.3,0-0.5h-6.4v-2h8.7c0.1,0.4,0.1,0.9,0.1,1.5
						c0,1.6-0.3,2.4-2.2,5.3l-1.2,1.8c-1,1.5-1.1,2.4-1.1,5.1h-2.5C52.4,16.7,52.7,15.5,54.4,13z"/>
					<path class="st6" d="M61.4,18.1h3.4V8.5l-3.2,1.8l-0.9-1.7l4.4-2.4h2v11.9H70v1.9h-8.6V18.1z"/>
				</g>
			</g>
		</g>
	</g>
	<g>
		<path class="st7" d="M6.3,1.1c0,0-3,4.5-3,11.6c0,7.1,3,11.6,3,11.6h26V1.1H6.3z"/>
		<path class="st2" d="M23.5,15.2c0.6,0.3,1.3,0.7,2.4,0.7c0.9,0,1.3-0.5,1.3-1.1c0-0.8-0.5-1.1-1.9-1.7c-1.2-0.5-2-1.1-2-2.6
			c0-1.5,1.1-2.7,3.3-2.7c1.1,0,1.9,0.3,2.4,0.6L28.4,10c-0.5-0.3-1.2-0.5-1.9-0.5c-0.8,0-1.3,0.3-1.3,1c0,0.6,0.4,1,1.4,1.4
			c1.9,0.8,2.4,1.5,2.4,2.8c0,2.2-1.6,2.9-3.1,2.9c-1.4,0-2.4-0.5-3.1-1L23.5,15.2z M20.4,14.1V8h1.9v6.1c0,2.7-1.6,3.4-3.5,3.4
			c-1.8,0-3.5-0.7-3.5-3.4V8h1.9v6.1c0,1.2,0.5,1.8,1.5,1.8C19.9,15.9,20.4,15.3,20.4,14.1 M11,16c0.9,0,1.6-0.3,1.6-1.4
			c0-0.9-0.6-1.3-1.6-1.3h-1V16H11z M10.9,11.8c0.8,0,1.4-0.3,1.4-1.2c0-0.6-0.3-1.1-1.3-1.1h-0.9v2.3H10.9z M8.2,8h3.2
			c2,0,2.9,1,2.9,2.2c0,1.3-0.8,1.8-1.1,2c0.7,0.2,1.5,0.9,1.5,2.2c0,1.7-1.2,2.9-3.1,2.9H8.2V8z"/>
	</g>
</g>
</svg>
