<svg xmlns="http://www.w3.org/2000/svg" viewBox="0 0 67 28" enable-background="new 0 0 67 28"><g><g><path d="M3.59 0s-3.59 5.428-3.59 14c0 8.578 3.59 14 3.59 14h31.418v-28h-31.418z" fill="#EC2227"/><path d="M20.693 23.307h-3.777l-3.337-10.91c-.098-.344-.364-1.341-.509-2.219l-.099 13.129h-3.922l.584-18.63h5.018l3.654 12.006c.217.755.437 1.756.437 2.412h.123c0-.656.219-1.657.437-2.412l3.653-12.007h5.018l.585 18.63h-3.921l-.1-13.129c-.145.877-.411 1.875-.51 2.219l-3.334 10.911z" fill="#fff"/></g><path fill="#007DC5" d="M39.007 0h28v28h-28z"/><path d="M47.688 24.284v-19.472h6.949c1.951 0 3.373.433 4.264 1.298s1.336 2.002 1.336 3.411c0 1.069-.25 1.943-.751 2.622-.5.679-1.115 1.154-1.845 1.425.983.204 1.815.705 2.494 1.502.679.798 1.019 1.876 1.019 3.233 0 1.799-.628 3.245-1.884 4.34s-2.868 1.642-4.837 1.642h-6.745zm3.334-11.276h2.621c1.019 0 1.85-.233 2.495-.7.645-.467.967-1.175.967-2.125 0-.797-.267-1.446-.802-1.947-.534-.5-1.345-.75-2.431-.75h-2.851v5.522zm0 8.629h3.08c1.001 0 1.857-.259 2.57-.776s1.069-1.319 1.069-2.405c0-2.02-1.027-3.029-3.08-3.029h-3.64v6.21z" fill="#fff"/><path d="M.152 26.673c.076-.019.198-.03.318-.03.174 0 .286.03.368.098.07.053.114.133.114.238 0 .132-.088.246-.228.296v.006c.128.03.278.136.278.336 0 .116-.046.206-.116.27-.092.086-.244.126-.464.126l-.27-.016v-1.324zm.174.552h.158c.182 0 .29-.098.29-.229 0-.155-.118-.22-.294-.22l-.154.013v.436zm0 .643l.146.008c.18 0 .346-.065.346-.262 0-.182-.158-.26-.348-.26h-.144v.514z" fill="none"/></g></svg>