<?xml version="1.0" encoding="UTF-8"?>
<svg id="Calque_1" data-name="Calque 1" xmlns="http://www.w3.org/2000/svg" viewBox="0 0 280 90">
  <defs>
    <style>
      .cls-1 {
        fill: #fff;
      }

      .cls-2 {
        fill: #cfb254;
      }

      .cls-3 {
        fill: #e30613;
      }
    </style>
  </defs>
  <g>
    <g>
      <path class="cls-3" d="M175.1,0H4.6C2.1,0,0,2.1,0,4.7V85.4c0,2.5,2.1,4.6,4.6,4.6H175.1c2.6,0,4.7-2.1,4.7-4.6V4.7c0-2.6-2.1-4.7-4.7-4.7ZM78,82.7H7.3V7.3H78V82.7Z"/>
      <path class="cls-1" d="M7.3,7.3V82.7H78V7.3H7.3Zm49.7,59.1c-.4,.1-1,.3-1.7,.4-.7,.1-1.5,.2-2.4,.2-1,0-1.9-.1-2.6-.2-.8-.1-1.4-.2-1.7-.3l-13.5-23v22.9c-1.7,.4-3.3,.5-4.7,.5s-3-.2-4.7-.5V24.5h-.1c.9-.1,1.6-.3,2.3-.3,.7-.1,1.4-.1,2-.1,.7,0,1.4,.1,2.2,.1,.8,.1,1.4,.2,2,.3l13.6,23V24.5c1-.1,1.9-.3,2.8-.3,.8-.1,1.6-.1,2.2-.1,.7,0,1.4,0,2.1,.1,.7,.1,1.5,.2,2.3,.3l-.1,41.9Z"/>
      <path class="cls-2" d="M57.1,24.5l-.1,41.9c-.4,.1-1,.3-1.7,.4-.7,.1-1.5,.2-2.4,.2-1,0-1.9-.1-2.6-.2-.8-.1-1.4-.2-1.7-.3l-13.5-23v22.9c-1.7,.4-3.3,.5-4.7,.5s-3-.2-4.7-.5V24.5h-.1c.9-.1,1.6-.3,2.3-.3,.7-.1,1.4-.1,2-.1,.7,0,1.4,.1,2.2,.1,.8,.1,1.4,.2,2,.3l13.6,23V24.5c1-.1,1.9-.3,2.8-.3,.8-.1,1.6-.1,2.2-.1,.7,0,1.4,0,2.1,.1,.7,.1,1.5,.2,2.3,.3Z"/>
    </g>
    <g>
      <path class="cls-1" d="M100.02,33.42h8.26c4.96,0,6.66,2.54,6.66,5.6,0,2.72-1.54,4.24-3.09,4.81,2.12,.42,4.18,2.18,4.18,5.63,0,4.33-3.36,7.11-7.99,7.11h-8.02v-23.16Zm7.08,9.75c2.24,0,4.12-.97,4.12-3.36,0-1.79-1.15-3.21-3.84-3.21h-3.39v6.57h3.12Zm.54,10.26c2.06,0,4.33-.97,4.33-3.78,0-2.42-1.21-3.6-3.66-3.6h-4.33v7.39h3.66Z"/>
      <path class="cls-1" d="M120.84,33.42h3.97v15.2c0,2.97,1.63,4.81,4.72,4.81s4.72-1.85,4.72-4.81v-15.2h3.97v16.08c0,5-3.75,7.54-8.69,7.54s-8.69-2.54-8.69-7.54v-16.08Z"/>
      <path class="cls-1" d="M144.03,51.98c1.54,.64,3.27,1.36,5.75,1.36,3.27,0,3.91-1.88,3.91-3.15,0-1.6-.91-2.6-3.09-3.48l-2.57-1.03c-3.03-1.21-5.18-2.54-5.18-6.05s2.82-6.66,8.36-6.66c3.06,0,4.96,.64,6.27,1.27l-1.36,3.54c-1.3-.76-2.91-1.36-5.12-1.36-2.03,0-3.63,1.03-3.63,2.72,0,1.24,.61,2.03,2.54,2.82l3.12,1.27c3.39,1.39,4.96,3.18,4.96,6.42,0,6.08-4.57,7.39-7.96,7.39s-5.75-.91-7.45-1.97l1.45-3.09Z"/>
    </g>
  </g>
  <rect class="cls-2" x="190" width="90" height="90" rx="4.34" ry="4.34"/>
  <path class="cls-1" d="M221.35,47.39c0-13.73,5.88-23.89,17.57-23.89,3.07,0,6.15,.71,8.07,1.65l-1.92,5.71c-1.21-.6-2.75-1.21-5-1.21-6.15,0-10.43,4.39-11.09,13.89,1.48-.93,5.11-2.63,9.06-2.63,4.45,0,10.6,2.14,10.6,11.2,0,8.46-5.33,14.39-13.67,14.39-9.61,0-13.62-7.8-13.62-19.11Zm19.77,6.04c0-4.23-1.59-6.1-5.27-6.1-2.09,0-4.67,.6-6.87,1.81,0,7.69,1.81,11.53,6.48,11.53,4.12,0,5.66-3.08,5.66-7.25Z"/>
</svg>