<?xml version="1.0" encoding="UTF-8"?>
<svg id="Calque_1" data-name="Calque 1" xmlns="http://www.w3.org/2000/svg" viewBox="0 0 1754.69 537.59">
  <defs>
    <style>
      .cls-1 {
        fill: #fff;
      }

      .cls-2 {
        fill: #e20613;
      }

      .cls-3 {
        fill: #ffdc04;
      }
    </style>
  </defs>
  <g>
    <g>
      <path class="cls-1" d="M935.48,13.43h805.77v510.32H935.48V13.43Z"/>
      <path class="cls-2" d="M1754.69,537.18H922.05V0h832.64V537.18Zm-805.77-26.86h778.91V26.86H948.92V510.32Z"/>
    </g>
    <path class="cls-2" d="M1197.57,450.91c-39.25,0-68.36-14.48-87.37-43.44-18.99-28.97-28.49-68.66-28.49-119.12,0-60.72,12.85-109.78,38.54-147.13,25.71-37.37,62.68-56.06,110.95-56.06,26.46,0,49.34,4.68,68.66,14.01l-16.36,48.58c-13.72-6.85-27.88-10.28-42.51-10.28-27.09,0-48.88,9.9-65.38,29.66-16.5,19.78-26.15,49.27-28.97,88.52,23.66-14.95,49.34-22.43,77.09-22.43,10.59,0,20.7,1.4,30.35,4.2,9.65,2.8,19.22,7.58,28.74,14.25,9.5,6.7,17.06,16.58,22.66,29.66,5.6,13.08,8.4,28.82,8.4,47.18,0,36.43-10.61,65.96-31.77,88.52-21.16,22.56-49.34,33.88-84.53,33.88Zm4.2-49.5c32.08,0,48.12-20.55,48.12-61.66,0-18.05-3.59-31.23-10.74-39.48-7.18-8.25-18.55-12.39-34.11-12.39-20.24,0-39.69,5.14-58.38,15.42,0,33.32,4.28,58,12.85,74.04,8.56,16.06,22.64,24.08,42.26,24.08Zm317.4,39.44c-15.41,6.71-33.55,10.03-54.41,10.03s-38.93-3.34-54.18-10.03c-15.27-6.7-27.42-15.41-36.43-26.15-9.04-10.74-16.21-24.29-21.49-40.63-5.3-16.36-8.81-32.69-10.51-49.06-1.71-16.35-2.57-35.11-2.57-56.29,0-24.92,1.88-47.56,5.6-67.97,3.74-20.39,10.03-39.62,18.92-57.69,8.88-18.05,21.87-32.23,39-42.5,17.13-10.28,37.68-15.42,61.66-15.42,19.61,0,36.89,3.51,51.84,10.51s27.01,16.19,36.2,27.57c9.19,11.38,16.65,25.23,22.43,41.57,5.77,16.35,9.75,32.84,11.91,49.52,2.17,16.67,3.28,34.8,3.28,54.43,0,21.18-.86,39.94-2.59,56.29-1.71,16.36-5.2,32.69-10.51,49.06-5.28,16.36-12.45,29.91-21.47,40.63-9.06,10.74-21.26,19.45-36.68,26.13Zm-54.41-44.61c20.55,0,35.72-9.57,45.55-28.72,9.8-19.15,14.71-50.36,14.71-93.66,0-27.4-1.55-50.21-4.66-68.41-3.13-18.23-9.27-33.32-18.46-45.32-9.19-11.99-21.56-18-37.14-18-11.53,0-21.33,3.2-29.43,9.59-8.1,6.39-14.33,15.81-18.69,28.26-4.37,12.45-7.41,26.17-9.11,41.11-1.73,14.95-2.59,32.54-2.59,52.78,0,43.3,4.91,74.51,14.73,93.66,9.8,19.13,24.83,28.7,45.08,28.7Z"/>
  </g>
  <rect class="cls-3" x="0" y="1.21" width="851.26" height="536.38"/>
  <path d="M136.85,152.87c22.54,0,35.63-8.19,35.63-29.22s-13.08-27.68-31.51-27.68h-31.53v56.9h27.42Zm-61.51-83.8h74.32c32.55,0,57.68,16.4,57.68,52.03,0,21.27-8.72,41.52-33.07,52.54l44.08,91.5h-39.74l-37.92-84.83h-31.53v84.83h-33.82V69.06Z"/>
  <path d="M319.59,182.85c-1.02-12.82-5.9-26.9-23.32-26.9-13.84,0-24.86,9.75-26.92,26.9h50.25Zm-22.54-50.74c32.8,0,55.61,20.5,55.61,56.63,0,5.9-.27,11.28-.78,16.91h-83.54c0,23.59,14.86,34.36,38.43,34.36,14.11,0,25.39-3.34,34.34-7.43l9.23,17.69c-14.86,11.26-33.07,17.16-54.07,17.16-39.48,0-62.02-24.61-62.02-66.13s24.61-69.19,62.8-69.19"/>
  <path d="M385.21,69.06h32.31V222.83c0,14.11,7.43,16.15,17.92,15.38v25.12c-5.36,1.8-12.28,4.12-22.28,4.12-16.91,0-27.95-7.7-27.95-36.4V69.06Z"/>
  <path d="M506.45,247.19c6.9,0,12.04-1.8,16.91-4.36v-34.09l-18.2,5.38c-9.99,3.07-16.4,6.67-16.4,17.42s8.21,15.64,17.69,15.64m-15.4-49.98l32.31-7.43v-8.97c0-15.89-6.16-21.52-18.45-21.52-11.04,0-25.14,4.34-34.09,8.7l-8.21-22.81c13.6-8.21,29.71-13.06,46.15-13.06,30.73,0,48.69,14.84,48.69,43.3v53.83c0,9.21,2.29,12.31,12.55,10.75v22.32c-5.63,1.78-13.06,4.09-23.05,4.09-12.57,0-17.44-5.63-21.03-11.28-9.23,7.68-19.23,12.31-32.55,12.31-20.23,0-36.9-10.26-36.9-32.56,0-21.03,10.5-32.04,34.58-37.67"/>
  <path d="M598.21,135.43h34.09v129.69h-34.09V135.43Zm-6.41-45.86c0-12.3,10.24-22.56,23.32-22.56s23.59,10.26,23.59,22.56-10.01,21.79-23.59,21.79-23.32-10.01-23.32-21.79"/>
  <path d="M671,232.83c7.68,4.1,21.01,10.5,36.12,10.5,9.75,0,18.71-3.58,18.71-13.06,0-8.46-5.36-11.53-17.44-16.42l-15.87-6.39c-14.35-5.9-27.95-14.62-27.95-34.36,0-33.05,29.22-40.99,49.73-40.99s30.75,3.83,38.94,7.43l-9.73,26.13c-7.94-5.12-18.45-8.7-28.17-8.7s-19.76,2.8-19.76,12.31c0,7.17,4.87,9.73,15.13,13.84l15.62,6.41c16.91,6.92,28.19,17.18,28.19,35.87,0,32.8-28.19,42.03-48.18,42.03s-32.55-5.12-43.59-11.01l8.23-23.59Z"/>
  <g>
    <path d="M75.35,341.7h46.45c27.91,0,37.44,14.29,37.44,31.48,0,15.31-8.68,23.82-17.36,27.05,11.92,2.38,23.49,12.26,23.49,31.65,0,24.33-18.89,39.99-44.92,39.99h-45.09v-130.17Zm39.81,54.79c12.59,0,23.15-5.45,23.15-18.89,0-10.04-6.47-18.03-21.61-18.03h-19.06v36.93h17.53Zm3.06,57.69c11.58,0,24.34-5.45,24.34-21.28,0-13.61-6.81-20.25-20.59-20.25h-24.34v41.53h20.59Z"/>
    <path d="M188.57,385.76h22.29v53.09c0,9.02,2.38,16,12.26,16,5.27,0,10.04-2.72,12.93-6.98,2.21-3.06,3.4-6.98,3.4-11.4v-50.71h22.63v86.11h-21.44l-.85-11.06c-5.11,7.49-13.1,12.59-24.5,12.59-17.19,0-26.71-12.42-26.71-31.14v-56.5Z"/>
    <path d="M287.14,450.43c5.1,2.72,13.95,6.98,23.99,6.98,6.46,0,12.42-2.38,12.42-8.67,0-5.62-3.57-7.66-11.57-10.89l-10.55-4.26c-9.53-3.91-18.55-9.7-18.55-22.8,0-21.95,19.4-27.23,33.01-27.23s20.42,2.55,25.86,4.93l-6.46,17.36c-5.28-3.41-12.26-5.78-18.72-5.78s-13.1,1.87-13.1,8.17c0,4.76,3.23,6.46,10.04,9.19l10.38,4.25c11.23,4.59,18.72,11.4,18.72,23.82,0,21.78-18.72,27.91-31.99,27.91s-21.61-3.4-28.92-7.32l5.45-15.66Z"/>
  </g>
</svg>