<svg clip-rule="evenodd" fill-rule="evenodd" stroke-linejoin="round" stroke-miterlimit="2" viewBox="0 0 76 28" xmlns="http://www.w3.org/2000/svg"><path d="m0 .010659h44.126875v27.833875h-44.126875z" fill="#ffdc00" stroke-width="1.35775"/><g fill="#1d1d1b" transform="matrix(1.35775 0 0 1.35775 0 .010659)"><path d="m2.9 2.6h2.9c1.2 0 2.2.6 2.2 2 0 .8-.3 1.6-1.3 2l1.7 3.5h-1.5l-1.5-3.3h-1.2v3.3h-1.3zm2.3 3.2c.9 0 1.4-.3 1.4-1.1s-.5-1.1-1.2-1.1h-1.2v2.2zm6.2-.8c1.3 0 2.1.8 2.1 2.2v.7h-3.2c0 .9.6 1.3 1.5 1.3.5 0 1-.1 1.3-.3l.4.7c-.6.4-1.3.7-2.1.7-1.5 0-2.4-.9-2.4-2.5 0-1.7.9-2.8 2.4-2.8m.8 2c0-.5-.2-1-.9-1-.5 0-1 .4-1 1zm2.6-4.4h1.2v5.9c0 .5.3.6.7.6v1c-.2.1-.5.2-.9.2-.6 0-1.1-.3-1.1-1.4zm4 4.9 1.2-.3v-.3c0-.6-.2-.8-.7-.8-.4 0-1 .2-1.3.3l-.3-.9c.5-.3 1.1-.5 1.8-.5 1.2 0 1.9.6 1.9 1.7v2.1c0 .4.1.5.5.4v.9c-.2.1-.5.2-.9.2-.5 0-.7-.2-.8-.4-.4.3-.7.5-1.3.5-.8 0-1.4-.4-1.4-1.3s.4-1.3 1.3-1.6m.6 2c.3 0 .5-.1.6-.2v-1.3l-.7.2c-.4.1-.6.3-.6.7s.4.6.7.6"/><path d="m22.7 3.4c0-.5.4-.9.9-.9s.9.4.9.9-.4.8-.9.8-.9-.3-.9-.8m.2 1.8h1.3v5h-1.3zm2.8 3.7c.3.2.8.4 1.4.4.4 0 .7-.1.7-.5 0-.3-.2-.4-.7-.6l-.5-.3c-.6-.2-1.1-.6-1.1-1.3 0-1.3 1.1-1.6 1.9-1.6s1.2.1 1.5.3l-.4 1c-.3-.2-.7-.3-1.1-.3s-.8.1-.8.5c0 .3.2.4.6.5l.6.2c.6.3 1.1.7 1.1 1.4 0 1.3-1.1 1.6-1.8 1.6-.8 0-1.2-.2-1.7-.4zm-23.2 3.7h2.4v.6h-1.7v1.2h1.6v.6h-1.6v1.9h-.7zm3 1.5h.7v1.8c0 .3.1.5.4.5.2 0 .3-.1.4-.2s.1-.2.1-.4v-1.7h.7v2.9h-.7v-.4c-.2.2-.4.4-.8.4-.6 0-.9-.4-.9-1zm3.3 0h.7v.4c.2-.3.5-.4.9-.4.6 0 .9.4.9 1v1.9h-.8v-1.7c0-.4-.1-.6-.4-.6-.2 0-.3.1-.4.2s-.2.3-.2.4v1.7h-.8zm3.1-1.1c0-.3.2-.5.5-.5s.5.2.5.5-.2.5-.5.5c-.2 0-.5-.2-.5-.5m.2 1.1h.8v2.9h-.8zm2.9-.1c.3 0 .6.1.7.1l-.2.6c-.1-.1-.3-.2-.5-.2-.4 0-.8.2-.8.9 0 .6.3.8.8.8l.6-.1.1.4c-.2.2-.5.3-1 .3-.7 0-1.3-.4-1.3-1.5.1-.8.7-1.3 1.6-1.3"/><path d="m16.4 14.1h.7v1.8c0 .3.1.5.4.5.2 0 .3-.1.4-.2s.1-.2.1-.4v-1.7h.7v2.9h-.7v-.4c-.2.2-.4.4-.8.4-.6 0-.9-.4-.9-1zm3.2-1.5h.7v3.4c0 .3.2.4.4.3v.6c-.1 0-.3.1-.5.1-.4 0-.6-.2-.6-.8zm2.4 2.8.7-.2v-.2c0-.3-.1-.5-.4-.5-.2 0-.6.1-.8.2l-.2-.4c.3-.2.7-.3 1-.3.7 0 1.1.3 1.1 1v1.2c0 .2.1.3.3.2v.5c-.1 0-.3.1-.5.1-.3 0-.4-.1-.5-.2-.2.2-.4.3-.7.3-.4 0-.8-.2-.8-.7 0-.6.2-.9.8-1m.3 1.1c.2 0 .3 0 .4-.1v-.8l-.4.1c-.2.1-.4.1-.4.4s.2.4.4.4"/><path d="m24.2 13c0-.3.2-.5.5-.5s.5.2.5.5-.2.5-.5.5-.5-.2-.5-.5m.1 1.1h.8v2.9h-.8zm1.6 0h.7v.4c.3-.4.6-.5.9-.5.2 0 .3 0 .4.1l-.2.6c-.1-.1-.2-.1-.4-.1-.4 0-.7.3-.7.6v1.7h-.8zm3.5-.1c.7 0 1.2.5 1.2 1.2v.4h-1.8c0 .5.3.8.8.8.3 0 .6-.1.8-.2l.2.4c-.3.3-.7.4-1.2.4-.9 0-1.4-.5-1.4-1.5 0-.9.6-1.5 1.4-1.5m.5 1.1c0-.3-.1-.6-.5-.6-.3 0-.5.2-.6.6z"/></g><path d="m48.1506966272.00000055388h27.847115778v27.847115778h-27.847115778z" fill="#8bc751" stroke-width="1.365054695"/><path d="m55.053 24.896v-2.744c0-1.082.308-2.09.924-3.023s1.624-1.933 3.024-2.996l2.575-1.933c1.009-.746 1.745-1.446 2.212-2.1s.7-1.418.7-2.296c0-2.277-1.194-3.416-3.584-3.416-1.55 0-3.154.448-4.815 1.344l-1.232-2.66c2.054-1.232 4.162-1.848 6.328-1.848 2.184 0 3.934.532 5.25 1.596s1.974 2.558 1.974 4.48c0 1.643-.321 2.978-.966 4.004-.644 1.026-1.713 2.1-3.206 3.22l-3.107 2.324c-.784.579-1.293 1.078-1.526 1.498s-.369.892-.406 1.414h9.548v3.136z" fill="#fff" fill-rule="nonzero" transform="matrix(.8374602 0 0 .8374602 10.8138677625 2.2201663075)"/></svg>