<svg clip-rule="evenodd" fill-rule="evenodd" stroke-linejoin="round" stroke-miterlimit="2" viewBox="0 0 77 28" xmlns="http://www.w3.org/2000/svg"><path d="M0 0h44.292v28H0z" fill="#fedc00"/><g fill="#010101"><path d="M3.956 3.566h3.903c1.71 0 3.028.858 3.028 2.733 0 1.115-.46 2.181-1.735 2.759l2.314 4.806H9.38l-1.993-4.46H5.734v4.459H3.956zm3.229 4.4c1.187 0 1.873-.428 1.873-1.536 0-1.062-.686-1.454-1.657-1.454H5.747v2.989h1.438zm8.413-1.091c1.725 0 2.922 1.077 2.922 2.975 0 .309-.012.593-.041.89H14.09c0 1.236.782 1.801 2.02 1.801.739 0 1.332-.172 1.802-.388l.483.927c-.779.591-1.735.902-2.837.902-2.075 0-3.258-1.292-3.258-3.473.001-2.154 1.293-3.634 3.298-3.634zm1.187 2.666c-.053-.674-.311-1.413-1.225-1.413-.73 0-1.306.51-1.413 1.413zm3.443-5.975h1.698v8.076c0 .738.39.846.939.808v1.318a3.372 3.372 0 0 1-1.169.215c-.889 0-1.469-.405-1.469-1.912V3.566zm5.562 6.727l1.695-.39v-.47c0-.835-.32-1.13-.966-1.13-.58 0-1.322.229-1.791.459l-.432-1.199a4.745 4.745 0 0 1 2.426-.687c1.612 0 2.555.782 2.555 2.277v2.825c0 .484.118.647.661.565v1.174c-.3.093-.691.214-1.213.214-.661 0-.914-.297-1.105-.591-.484.403-1.008.645-1.71.645-1.062 0-1.939-.538-1.939-1.709-.001-1.106.554-1.684 1.819-1.983zm.807 2.628c.365 0 .632-.096.888-.229v-1.79l-.953.281c-.527.164-.863.354-.863.917-.001.576.431.821.928.821zm4.484-8.279c0-.648.535-1.185 1.223-1.185.713 0 1.242.537 1.242 1.185 0 .62-.528 1.142-1.242 1.142-.687-.001-1.223-.522-1.223-1.142zm.334 2.408h1.792v6.813h-1.792zm3.824 5.117c.402.212 1.104.551 1.898.551.512 0 .982-.188.982-.688 0-.447-.28-.606-.916-.861l-.832-.337c-.754-.309-1.468-.767-1.468-1.803 0-1.737 1.536-2.154 2.612-2.154 1.037 0 1.618.201 2.049.392l-.514 1.37c-.417-.267-.97-.459-1.482-.459-.497 0-1.035.15-1.035.65 0 .377.255.509.795.727l.821.335c.887.364 1.478.902 1.478 1.886 0 1.721-1.478 2.206-2.529 2.206-1.066 0-1.712-.268-2.291-.58zM3.755 17.796h1.62l1.477 4.754c.09.288.123.485.134.722h.024a2.82 2.82 0 0 1 .138-.722l1.474-4.754h1.621l.233 6.924h-1.29l-.046-4.966-.228.751-1.267 4.215H6.354L5.06 20.405l-.201-.652-.043 4.967H3.523zm10.08 2.228c1.159 0 1.963.726 1.963 1.999 0 .208-.009.397-.025.598h-2.95c0 .832.525 1.213 1.355 1.213.501 0 .897-.117 1.216-.266l.325.625c-.528.399-1.169.608-1.912.608-1.392 0-2.188-.87-2.188-2.337 0-1.446.868-2.44 2.216-2.44zm.797 1.791c-.038-.452-.209-.951-.824-.951-.486 0-.875.343-.948.951zm-.39-4.019h1.396l-1.331 1.54h-1.023zm3.051 3.222h-.944v-.677l.96-.207.317-1.385h.87v1.393h1.501v.876h-1.501v1.847c0 .842.38.986.751.986.32 0 .642-.081.767-.126v.759a1.988 1.988 0 0 1-1.12.318c-.957 0-1.6-.554-1.6-1.609l-.001-2.175zm3.71-.875h1.142l.042.608c.462-.563.985-.726 1.439-.726.29 0 .461.064.615.136l-.371 1.037a.928.928 0 0 0-.58-.19c-.613 0-1.085.536-1.085 1.045v2.667h-1.203v-4.577zm5.581-.119c1.314 0 2.217.907 2.217 2.359 0 1.612-1.013 2.419-2.217 2.419-1.194 0-2.208-.788-2.208-2.419-.001-1.451.907-2.359 2.208-2.359zm1.029 2.359c0-.877-.368-1.462-1.03-1.462-.658 0-1.023.585-1.023 1.462 0 1.034.47 1.516 1.023 1.516.59.001 1.03-.481 1.03-1.516z" fill-rule="nonzero"/></g><path d="M48.292 0h28v28h-28z" fill="#007dc5"/><path d="M56.972 24.284V4.812h6.949c1.951 0 3.373.433 4.264 1.298s1.336 2.002 1.336 3.411c0 1.069-.25 1.943-.751 2.622-.5.679-1.115 1.154-1.845 1.425.983.204 1.815.705 2.494 1.502.679.798 1.019 1.876 1.019 3.233 0 1.799-.628 3.245-1.884 4.34s-2.868 1.642-4.837 1.642h-6.745zm3.335-11.276h2.621c1.019 0 1.85-.233 2.495-.7s.967-1.175.967-2.125c0-.797-.267-1.446-.802-1.947-.534-.5-1.345-.75-2.431-.75h-2.851v5.522zm0 8.629h3.08c1.001 0 1.857-.259 2.57-.776s1.069-1.319 1.069-2.405c0-2.02-1.027-3.029-3.08-3.029h-3.64v6.21z" fill="#fff" fill-rule="nonzero"/></svg>