<svg viewBox="0 0 77 29" xmlns="http://www.w3.org/2000/svg" fill-rule="evenodd" clip-rule="evenodd" stroke-linejoin="round" stroke-miterlimit="2"><g transform="translate(0 .002)"><path fill="rgb(254,220,0)" d="M0 0H44.438V28H0z"/><path d="M4.088 3.561h3.903c1.713 0 3.031.862 3.031 2.733 0 1.118-.456 2.183-1.737 2.76l2.314 4.806H9.512L7.521 9.403H5.865v4.457H4.088V3.561zm3.23 4.405c1.186 0 1.872-.433 1.872-1.538 0-1.061-.687-1.452-1.66-1.452H5.877v2.988h1.441v.002zm8.414-1.092c1.725 0 2.921 1.077 2.921 2.977 0 .309-.013.59-.041.888h-4.389c0 1.237.785 1.801 2.022 1.801.738 0 1.329-.174 1.803-.386l.483.928c-.777.589-1.733.901-2.842.901-2.069 0-3.254-1.292-3.254-3.473 0-2.156 1.294-3.636 3.297-3.636zm1.184 2.662c-.053-.669-.307-1.413-1.227-1.413-.721 0-1.306.513-1.413 1.413h2.64zm3.449-5.975h1.697v8.081c0 .74.388.849.938.807v1.317c-.284.094-.644.217-1.167.217-.892 0-1.467-.403-1.467-1.913V3.561h-.001zm5.561 6.732l1.695-.39v-.47c0-.836-.323-1.13-.971-1.13-.577 0-1.319.229-1.789.458l-.427-1.196a4.696 4.696 0 0 1 2.417-.689c1.619 0 2.559.777 2.559 2.275v2.825c0 .485.12.648.658.564v1.175c-.294.09-.685.212-1.206.212-.66 0-.918-.294-1.108-.59-.48.405-1.01.646-1.705.646-1.068 0-1.944-.542-1.944-1.711-.002-1.102.553-1.681 1.821-1.979zm.804 2.627a1.8 1.8 0 0 0 .89-.229V10.9l-.957.281c-.523.161-.86.356-.86.918-.001.573.43.821.927.821zm4.483-8.279c0-.644.538-1.186 1.229-1.186.712 0 1.235.542 1.235 1.186 0 .618-.523 1.143-1.235 1.143-.691-.001-1.229-.527-1.229-1.143zm.339 2.405h1.789v6.814h-1.789V7.046zm3.826 5.119c.403.217 1.102.552 1.895.552.509 0 .983-.188.983-.685 0-.444-.283-.607-.916-.862l-.836-.337c-.755-.311-1.469-.766-1.469-1.803 0-1.737 1.538-2.155 2.615-2.155 1.038 0 1.615.2 2.048.39l-.515 1.372c-.414-.268-.965-.458-1.478-.458-.497 0-1.036.153-1.036.65 0 .374.257.509.791.725l.826.335c.883.366 1.48.899 1.48 1.883 0 1.725-1.48 2.209-2.533 2.209-1.065 0-1.709-.268-2.288-.583l.433-1.233zM4.851 18.818h-1.83v-1.02h4.841v1.02H6.035v5.904H4.851v-5.904zm3.801 1.322H9.79l.047.609c.458-.566.983-.723 1.435-.723.29 0 .459.062.618.135l-.372 1.04a.926.926 0 0 0-.579-.193c-.615 0-1.085.534-1.085 1.04v2.672H8.652v-4.58zm4.729 2.181l1.145-.264v-.315c0-.562-.223-.759-.654-.759-.392 0-.89.153-1.206.307l-.288-.807a3.212 3.212 0 0 1 1.628-.458c1.087 0 1.72.521 1.72 1.525v1.903c0 .323.082.435.448.378v.791a2.577 2.577 0 0 1-.815.141c-.444 0-.618-.198-.744-.397-.326.27-.678.433-1.147.433-.718 0-1.306-.364-1.306-1.151-.003-.738.37-1.124 1.219-1.327zm.543 1.767c.247 0 .427-.062.603-.155v-1.204l-.648.19c-.35.11-.577.238-.577.615 0 .389.288.554.622.554zm3.241-3.948h1.137l.045.56c.309-.414.725-.675 1.261-.675.513 0 .993.195 1.284.777.298-.433.705-.777 1.337-.777.673 0 1.37.414 1.37 1.339v3.357h-1.186v-2.979c0-.444-.129-.734-.544-.734a.833.833 0 0 0-.644.328 1.007 1.007 0 0 0-.243.642v2.743h-1.186v-2.962c0-.431-.116-.75-.532-.75-.292 0-.536.165-.691.371-.135.186-.208.39-.208.583v2.76h-1.201V20.14h.001zm7.2 0h1.313l.66 3.465.705-3.465h1.439l.718 3.465.676-3.465h1.196l-1.19 4.581h-1.4l-.75-3.375-.77 3.375h-1.409l-1.188-4.581zm8.568 2.181l1.143-.264v-.315c0-.562-.217-.759-.654-.759-.384 0-.888.153-1.202.307l-.288-.807a3.212 3.212 0 0 1 1.628-.458c1.085 0 1.722.521 1.722 1.525v1.903c0 .323.08.435.444.378v.791c-.2.064-.464.141-.815.141-.444 0-.615-.198-.742-.397-.326.27-.676.433-1.149.433-.714 0-1.304-.364-1.304-1.151-.004-.738.368-1.124 1.217-1.327zm.545 1.767c.243 0 .425-.062.597-.155v-1.204l-.642.19c-.354.11-.579.238-.579.615.001.389.289.554.624.554zm3.067 1.574c.763 0 1.104-.283 1.339-.94l-1.727-4.581h1.302l.924 3.05.785-3.05h1.27l-1.574 4.661c-.427 1.251-1.106 1.675-1.991 1.675-.345 0-.462-.01-.642-.035v-.799c.114.006.213.019.314.019z" fill="rgb(1,1,1)" fill-rule="nonzero"/></g><path fill="rgb(136,63,152)" transform="translate(.894)" d="M47.549 0H75.549V28H47.549z"/><path d="M55.302 21.088V17.84l7.42-14.365h5.013v14.504h2.716v3.108h-2.716v3.808h-3.528v-3.808h-8.905v.001zm3.221-3.109h5.684V6.387c-.187.709-.672 1.82-1.456 3.332l-4.228 8.26z" fill="white" fill-rule="nonzero"/></svg>