<svg xmlns="http://www.w3.org/2000/svg" viewBox="0 0 83 28" enable-background="new 0 0 83 28"><g><g><path d="M35.011 0h-31.419s-3.592 5.425-3.592 14c0 8.577 3.592 14 3.592 14h31.418" fill="#EC2227"/><path d="M20.266 4.306c2.093 0 3.75.439 4.869.876l-1.022 3.339c-1.094-.537-2.315-.805-3.801-.805-3.045 0-5.967 2.047-5.967 6.48 0 4.97 3.263 6.261 5.943 6.261 1.828 0 2.702-.439 3.922-.875l.998 2.558c-1.704.997-3.702 1.534-5.918 1.534-4.29 0-8.915-2.388-8.915-9.427.001-5.993 3.749-9.941 9.891-9.941z" fill="#fff"/></g><path fill="#6D6E71" d="M39.011 0h44.8v28h-44.8z"/><g fill="#fff"><path d="M48.896 24.284v-2.673h4.862v-13.541l-4.506 2.545-1.222-2.367 6.287-3.437h2.852v16.8h3.895v2.673h-12.168zM72.251 23.966c-.84.365-1.828.548-2.965.548-1.138 0-2.122-.183-2.953-.548-.832-.364-1.493-.84-1.985-1.425-.492-.586-.883-1.324-1.171-2.215-.289-.891-.479-1.782-.573-2.673-.093-.891-.14-1.913-.14-3.067 0-1.357.102-2.592.306-3.704.203-1.111.547-2.159 1.03-3.144.484-.984 1.192-1.756 2.126-2.316.933-.56 2.053-.84 3.36-.84 1.068 0 2.011.191 2.825.573s1.472.882 1.973 1.501c.5.62.907 1.375 1.222 2.266.313.891.53 1.791.649 2.698.118.908.178 1.896.178 2.966 0 1.154-.047 2.177-.14 3.067-.094.891-.284 1.782-.573 2.673-.288.891-.679 1.629-1.171 2.215-.492.585-1.158 1.061-1.998 1.425zm-2.965-2.431c1.119 0 1.947-.521 2.481-1.565s.802-2.745.802-5.104c0-1.493-.085-2.736-.255-3.729-.17-.993-.505-1.815-1.005-2.469-.501-.653-1.176-.98-2.023-.98-.629 0-1.163.174-1.604.521-.441.348-.78.862-1.018 1.54-.238.679-.403 1.426-.496 2.24-.094.814-.141 1.773-.141 2.877 0 2.358.268 4.06.802 5.104.535 1.044 1.354 1.565 2.457 1.565z"/></g><g fill="none"><path d="M.472 26.864h-.004l-.226.122-.034-.134.284-.151h.15v1.299h-.17v-1.136zM1.981 27.336c0 .442-.166.687-.452.687-.254 0-.428-.238-.432-.668 0-.438.19-.676.454-.676.272 0 .43.244.43.657zm-.705.02c0 .338.104.529.264.529.178 0 .264-.21.264-.541 0-.32-.08-.53-.264-.53-.152 0-.264.189-.264.542z"/></g></g></svg>