<svg xmlns="http://www.w3.org/2000/svg" viewBox="0 0 83 28" enable-background="new 0 0 83 28"><g><g><path d="M35.011 0h-31.419s-3.592 5.425-3.592 14c0 8.577 3.592 14 3.592 14h31.418" fill="#EC2227"/><path d="M20.266 4.306c2.093 0 3.75.439 4.869.876l-1.022 3.339c-1.094-.537-2.315-.805-3.801-.805-3.045 0-5.967 2.047-5.967 6.48 0 4.97 3.263 6.261 5.943 6.261 1.828 0 2.702-.439 3.922-.875l.998 2.558c-1.704.997-3.702 1.534-5.918 1.534-4.29 0-8.915-2.388-8.915-9.427.001-5.993 3.749-9.941 9.891-9.941z" fill="#fff"/></g><path fill="#6D6E71" d="M39.011 0h44.8v28h-44.8z"/><g fill="#fff"><path d="M48.896 24.284v-2.673h4.862v-13.541l-4.506 2.545-1.222-2.367 6.287-3.437h2.852v16.8h3.895v2.673h-12.168zM62.362 20.822v-2.952l6.745-13.059h4.557v13.186h2.469v2.825h-2.469v3.462h-3.207v-3.462h-8.095zm2.927-2.825h5.168v-10.539c-.17.646-.611 1.655-1.324 3.029l-3.844 7.51z"/></g><g fill="none"><path d="M.472 26.864h-.004l-.226.122-.034-.134.284-.151h.15v1.299h-.17v-1.136zM1.66 28v-.355h-.604v-.115l.58-.829h.189v.807h.182v.137h-.182v.355h-.165zm0-.492v-.434l.006-.203h-.006l-.108.191-.318.441v.004h.426z"/></g></g></svg>