<?xml version="1.0" encoding="iso-8859-1"?>
<!-- Generator: Adobe Illustrator 22.1.0, SVG Export Plug-In . SVG Version: 6.00 Build 0)  -->
<svg version="1.1" xmlns="http://www.w3.org/2000/svg" xmlns:xlink="http://www.w3.org/1999/xlink" x="0px" y="0px"
	 viewBox="0 0 83 28" style="enable-background:new 0 0 83 28;" xml:space="preserve">
<g id="Layer_1">
</g>
<g id="TestEtiquetteArret">
	<g id="C15E">
		<g>
			<g id="Layer_1_1_">
			</g>
			<g id="Liste_des_l_ignes">
				<path style="fill:#EC2227;" d="M35.011,0H3.592C3.592,0,0,5.425,0,14c0,8.577,3.592,14,3.592,14h31.418"/>
				<path style="fill:#FFFFFF;" d="M20.266,4.306c2.093,0,3.75,0.439,4.869,0.876l-1.022,3.339
					c-1.094-0.537-2.315-0.805-3.801-0.805c-3.045,0-5.967,2.047-5.967,6.48c0,4.97,3.263,6.261,5.943,6.261
					c1.828,0,2.702-0.439,3.922-0.875l0.998,2.558c-1.704,0.997-3.702,1.534-5.918,1.534c-4.29,0-8.915-2.388-8.915-9.427
					C10.376,8.254,14.124,4.306,20.266,4.306z"/>
			</g>
		</g>
		<rect x="39.011" style="fill:#673D17;stroke:#673D17;stroke-width:0;stroke-miterlimit:10;" width="44.8" height="28"/>
		<g>
			<path style="fill:#FFFFFF;" d="M43.208,22.284v-2.405h4.376V7.691l-4.055,2.292l-1.1-2.131l5.658-3.093h2.565v15.12h3.506v2.405
				H43.208z"/>
			<path style="fill:#FFFFFF;" d="M55.923,21.345l0.618-2.153c1.375,0.489,2.696,0.733,3.964,0.733c1.146,0,2.012-0.287,2.6-0.859
				s0.883-1.394,0.883-2.463c0-0.992-0.264-1.706-0.791-2.142c-0.526-0.436-1.332-0.653-2.417-0.653H56.45l0.298-9.049h9.988v2.52
				h-7.011l-0.16,3.986h2.245c1.695,0,3.001,0.439,3.917,1.317c0.917,0.879,1.375,2.157,1.375,3.838
				c0,1.802-0.531,3.264-1.592,4.387c-1.063,1.122-2.608,1.684-4.64,1.684C59.206,22.49,57.557,22.108,55.923,21.345z"/>
			<path style="fill:#FFFFFF;" d="M70.172,22.284V4.759h9.553v2.589h-6.552v4.513h6.186v2.521h-6.186v5.314h6.805v2.589H70.172z"/>
		</g>
		<g>
			<path style="fill:none;" d="M0.472,26.864H0.468l-0.226,0.122l-0.034-0.134l0.284-0.151h0.15V28h-0.17V26.864z"/>
			<path style="fill:none;" d="M1.892,26.849H1.396l-0.05,0.334c0.03-0.004,0.058-0.006,0.106-0.006c0.102,0,0.2,0.02,0.28,0.069
				c0.102,0.057,0.186,0.17,0.186,0.332c0,0.254-0.202,0.444-0.484,0.444c-0.142,0-0.26-0.04-0.324-0.08l0.044-0.134
				c0.054,0.031,0.16,0.071,0.28,0.071c0.164,0,0.308-0.107,0.306-0.281c0-0.168-0.114-0.286-0.372-0.286
				c-0.076,0-0.134,0.006-0.182,0.012l0.084-0.623h0.622V26.849z"/>
			<path style="fill:none;" d="M2.899,27.368H2.377v0.486h0.584V28h-0.76v-1.348h0.729v0.146H2.377v0.426h0.522V27.368z"/>
		</g>
	</g>
</g>
</svg>
