<svg xmlns="http://www.w3.org/2000/svg" viewBox="0 0 83 28" enable-background="new 0 0 83 28"><g><g><path d="M35.011 0h-31.419s-3.592 5.425-3.592 14c0 8.577 3.592 14 3.592 14h31.418" fill="#EC2227"/><path d="M20.266 4.306c2.093 0 3.75.439 4.869.876l-1.022 3.339c-1.094-.537-2.315-.805-3.801-.805-3.045 0-5.967 2.047-5.967 6.48 0 4.97 3.263 6.261 5.943 6.261 1.828 0 2.702-.439 3.922-.875l.998 2.558c-1.704.997-3.702 1.534-5.918 1.534-4.29 0-8.915-2.388-8.915-9.427.001-5.993 3.749-9.941 9.891-9.941z" fill="#fff"/></g><path fill="#6D6E71" d="M39.011 0h44.8v28h-44.8z"/><g fill="#fff"><path d="M48.896 24.284v-2.673h4.862v-13.541l-4.506 2.545-1.222-2.367 6.287-3.437h2.852v16.8h3.895v2.673h-12.168zM62.998 19.117c0-2.088 1.053-3.717 3.156-4.888-1.73-1.052-2.596-2.469-2.596-4.251 0-1.646.563-2.957 1.692-3.933s2.533-1.463 4.213-1.463 2.991.42 3.933 1.26c.942.84 1.413 1.964 1.413 3.373 0 1.934-.959 3.36-2.877 4.276 2.444 1.087 3.666 2.767 3.666 5.04 0 1.646-.586 3.051-1.757 4.213s-2.8 1.744-4.887 1.744c-1.969 0-3.454-.518-4.455-1.553s-1.501-2.307-1.501-3.818zm3.641-.102c0 .968.25 1.697.751 2.189.5.492 1.149.738 1.947.738.848 0 1.502-.268 1.96-.802s.687-1.234.687-2.1c0-.95-.275-1.663-.827-2.139-.552-.475-1.455-.933-2.711-1.375-1.206.714-1.807 1.877-1.807 3.489zm2.673-6.44c1.323-.645 1.985-1.671 1.985-3.08 0-1.477-.628-2.214-1.884-2.214-.628 0-1.146.204-1.553.611s-.611 1.052-.611 1.935c0 .594.145 1.116.433 1.565.289.449.832.843 1.63 1.183z"/></g><g fill="none"><path d="M.472 26.864h-.004l-.226.122-.034-.134.284-.151h.15v1.299h-.17v-1.136zM1.355 27.316c-.146-.068-.208-.18-.208-.292 0-.206.174-.346.404-.346.251 0 .379.156.379.32 0 .109-.056.229-.216.304v.006c.162.063.262.18.262.336 0 .228-.194.378-.442.378-.272 0-.436-.16-.436-.351 0-.164.098-.281.258-.35l-.001-.005zm.444.346c0-.156-.11-.233-.286-.284-.152.044-.234.146-.234.271-.006.13.094.246.26.246.158 0 .26-.099.26-.233zm-.483-.649c-.002.13.098.2.248.239.112-.037.198-.117.198-.235 0-.104-.062-.212-.22-.212-.146 0-.226.095-.226.208z"/></g></g></svg>