<svg xmlns="http://www.w3.org/2000/svg" viewBox="0 0 83 28" enable-background="new 0 0 83 28"><g><g><path d="M35.011 0h-31.419s-3.592 5.425-3.592 14c0 8.577 3.592 14 3.592 14h31.418" fill="#EC2227"/><path d="M20.266 4.306c2.093 0 3.75.439 4.869.876l-1.022 3.339c-1.094-.537-2.315-.805-3.801-.805-3.045 0-5.967 2.047-5.967 6.48 0 4.97 3.263 6.261 5.943 6.261 1.828 0 2.702-.439 3.922-.875l.998 2.558c-1.704.997-3.702 1.534-5.918 1.534-4.29 0-8.915-2.388-8.915-9.427.001-5.993 3.749-9.941 9.891-9.941z" fill="#fff"/></g><path fill="#673D17" d="M39.011 0h44.8v28h-44.8z"/><g fill="#fff"><path d="M42.682 22.284v-2.245c0-.886.252-1.71.756-2.475.504-.763 1.328-1.58 2.474-2.451l2.108-1.58c.824-.611 1.428-1.184 1.81-1.719.382-.534.572-1.16.572-1.878 0-1.863-.978-2.795-2.932-2.795-1.269 0-2.582.367-3.94 1.1l-1.009-2.176c1.681-1.008 3.406-1.512 5.178-1.512 1.787 0 3.219.435 4.296 1.306 1.076.871 1.615 2.093 1.615 3.665 0 1.345-.264 2.437-.791 3.276-.526.84-1.401 1.718-2.623 2.635l-2.543 1.901c-.642.474-1.058.882-1.248 1.226-.191.344-.302.729-.332 1.157h7.812v2.565h-11.203zM64.228 21.998c-.756.328-1.646.492-2.669.492s-1.909-.164-2.657-.492c-.749-.328-1.345-.756-1.787-1.283-.443-.526-.794-1.191-1.054-1.993s-.432-1.604-.516-2.405-.126-1.722-.126-2.761c0-1.222.092-2.333.274-3.333.184-1 .493-1.943.929-2.83.435-.885 1.072-1.581 1.912-2.084s1.848-.756 3.024-.756c.962 0 1.81.171 2.543.515s1.324.794 1.775 1.352c.45.558.816 1.237 1.1 2.039.282.802.478 1.612.584 2.428.106.817.16 1.707.16 2.669 0 1.039-.042 1.959-.126 2.761s-.256 1.604-.515 2.405c-.261.802-.611 1.467-1.055 1.993-.441.527-1.041.955-1.796 1.283zm-2.669-2.188c1.008 0 1.753-.469 2.233-1.408.481-.939.722-2.471.722-4.594 0-1.344-.076-2.463-.229-3.356-.153-.893-.455-1.634-.905-2.222-.451-.588-1.058-.882-1.821-.882-.565 0-1.046.157-1.443.469-.397.313-.702.775-.916 1.386-.215.611-.363 1.283-.447 2.016-.084.733-.126 1.597-.126 2.589 0 2.123.241 3.654.722 4.594.48.939 1.216 1.408 2.21 1.408zM70.172 22.284v-17.525h9.553v2.589h-6.552v4.513h6.186v2.521h-6.186v5.314h6.805v2.589h-9.806z"/></g><g fill="none"><path d="M.09 28v-.108l.138-.134c.332-.315.483-.483.483-.68 0-.132-.062-.254-.256-.254-.118 0-.216.061-.276.11l-.056-.124c.088-.074.218-.132.366-.132.28 0 .398.192.398.378 0 .24-.174.434-.448.697l-.101.097v.005h.582v.145h-.83zM1.981 27.336c0 .442-.166.687-.452.687-.254 0-.428-.238-.432-.668 0-.438.19-.676.454-.676.272 0 .43.244.43.657zm-.705.02c0 .338.104.529.264.529.178 0 .264-.21.264-.541 0-.32-.08-.53-.264-.53-.152 0-.264.189-.264.542zM2.899 27.368h-.522v.486h.584v.146h-.76v-1.348h.729v.146h-.553v.426h.522v.144z"/></g></g></svg>