<svg enable-background="new 0 0 83 28" viewBox="0 0 83 28" xmlns="http://www.w3.org/2000/svg"><path d="m35.011 0h-31.419s-3.592 5.425-3.592 14c0 8.577 3.592 14 3.592 14h31.418" fill="#ec2227"/><path d="m20.266 4.306c2.093 0 3.75.439 4.869.876l-1.022 3.339c-1.094-.537-2.315-.805-3.801-.805-3.045 0-5.967 2.047-5.967 6.48 0 4.97 3.263 6.261 5.943 6.261 1.828 0 2.702-.439 3.922-.875l.998 2.558c-1.704.997-3.702 1.534-5.918 1.534-4.29 0-8.915-2.388-8.915-9.427.001-5.993 3.749-9.941 9.891-9.941z" fill="#fff"/><path d="m39.011 0h44.8v28h-44.8z" fill="#6d6e71"/><path d="m48.312 24.284v-2.494c0-.984.279-1.9.84-2.749.56-.849 1.477-1.757 2.749-2.724l2.342-1.757c.916-.679 1.587-1.314 2.011-1.909.424-.594.637-1.289.637-2.087 0-2.07-1.086-3.105-3.259-3.105-1.408 0-2.867.408-4.378 1.222l-1.12-2.418c1.867-1.12 3.784-1.68 5.753-1.68 1.985 0 3.576.483 4.772 1.451s1.795 2.325 1.795 4.073c0 1.494-.293 2.707-.878 3.64-.586.934-1.558 1.909-2.915 2.927l-2.825 2.113c-.713.526-1.176.979-1.388 1.361s-.335.811-.369 1.286h8.681v2.851h-12.448zm14.635 0v-2.494c0-.984.28-1.9.84-2.749.561-.849 1.477-1.757 2.749-2.724l2.342-1.757c.917-.679 1.587-1.314 2.012-1.909.424-.594.636-1.289.636-2.087 0-2.07-1.086-3.105-3.258-3.105-1.409 0-2.868.408-4.378 1.222l-1.12-2.418c1.866-1.12 3.784-1.68 5.753-1.68 1.985 0 3.576.483 4.772 1.451s1.794 2.325 1.794 4.073c0 1.494-.292 2.707-.878 3.64-.585.934-1.557 1.909-2.914 2.927l-2.826 2.113c-.712.526-1.175.979-1.387 1.361-.213.382-.335.811-.369 1.286h8.68v2.851h-12.448z" fill="#fff"/><path d="m.09 28v-.108l.138-.134c.332-.315.483-.483.483-.68 0-.132-.062-.254-.256-.254-.118 0-.216.061-.276.11l-.056-.124c.088-.074.218-.132.366-.132.28 0 .398.192.398.378 0 .24-.174.434-.448.697l-.101.097v.005h.582v.145zm1.026 0v-.108l.138-.134c.332-.315.483-.483.483-.68 0-.132-.062-.254-.256-.254-.118 0-.216.061-.276.11l-.055-.123c.088-.074.218-.132.366-.132.28 0 .398.192.398.378 0 .24-.174.434-.448.697l-.102.096v.005h.582v.145z" fill="none"/></svg>