<?xml version="1.0" encoding="UTF-8"?>
<svg id="Calque_1" data-name="Calque 1" xmlns="http://www.w3.org/2000/svg" version="1.1" viewBox="0 0 83 28">
  <defs>
    <style>
      .cls-1 {
        fill: #ec2227;
      }

      .cls-1, .cls-2, .cls-3, .cls-4 {
        stroke-width: 0px;
      }

      .cls-2 {
        fill: none;
      }

      .cls-3 {
        fill: #673d17;
      }

      .cls-4 {
        fill: #fff;
      }
    </style>
  </defs>
  <g>
    <path class="cls-1" d="M35,0H3.6S0,5.4,0,14s3.6,14,3.6,14h31.4"/>
    <path class="cls-4" d="M20.3,4.3c2.1,0,3.8.4,4.9.9l-1,3.3c-1.1-.5-2.3-.8-3.8-.8-3,0-6,2-6,6.5s3.3,6.3,5.9,6.3,2.7-.4,3.9-.9l1,2.6c-1.7,1-3.7,1.5-5.9,1.5-4.3,0-8.9-2.4-8.9-9.4,0-6,3.7-9.9,9.9-9.9Z"/>
  </g>
  <path class="cls-3" d="M39,0h44.8v28h-44.8V0Z"/>
  <path class="cls-4" d="M70.2,22.3V4.8h9.6v2.6h-6.6v4.5h6.2v2.5h-6.2v5.3h6.8v2.6h-9.8Z"/>
  <path class="cls-2" d="M0,28H0c0-.1.1-.2.1-.2.3-.3.5-.5.5-.7s0-.3-.3-.3-.2,0-.3.1h0c0-.2.2-.3.4-.3.3,0,.4.2.4.4s-.2.4-.4.7h-.1c0,.1.6.1.6.1h0c0,.1-.8.1-.8.1ZM1.7,28v-.4h-.6c0-.1.6-.9.6-.9h.2v.8h.2c0,.1-.2.1-.2.1v.4s-.2,0-.2,0ZM1.7,27.5v-.6s0,0,0,0v.2c-.1,0-.4.4-.4.4h0s.4,0,.4,0h0ZM2.9,27.4h-.5v.5h.6c0,.1-.8.1-.8.1v-1.3h.7c0,.1-.6.1-.6.1v.4h.5Z"/>
  <path class="cls-4" d="M42.7,22.3v-2.2c0-.9.3-1.7.8-2.5.5-.8,1.3-1.6,2.5-2.5l2.1-1.6c.8-.6,1.4-1.2,1.8-1.7.4-.5.6-1.2.6-1.9,0-1.9-1-2.8-2.9-2.8s-2.6.4-3.9,1.1l-1-2.2c1.7-1,3.4-1.5,5.2-1.5s3.2.4,4.3,1.3,1.6,2.1,1.6,3.7-.3,2.4-.8,3.3c-.5.8-1.4,1.7-2.6,2.6l-2.5,1.9c-.6.5-1.1.9-1.2,1.2s-.3.7-.3,1.2h7.8v2.6h-11.2ZM55.9,22.3v-2.2c0-.9.3-1.7.8-2.5.5-.8,1.3-1.6,2.5-2.5l2.1-1.6c.8-.6,1.4-1.2,1.8-1.7.4-.5.6-1.2.6-1.9,0-1.9-1-2.8-2.9-2.8s-2.6.4-3.9,1.1l-1-2.2c1.7-1,3.4-1.5,5.2-1.5s3.2.4,4.3,1.3,1.6,2.1,1.6,3.7-.3,2.4-.8,3.3c-.5.8-1.4,1.7-2.6,2.6l-2.5,1.9c-.6.5-1.1.9-1.2,1.2-.2.3-.3.7-.3,1.2h7.8v2.6h-11.2Z"/>
  <path class="cls-2" d="M3.1,73.7h0c0-.1.1-.2.1-.2.3-.3.5-.5.5-.7s0-.3-.3-.3-.2,0-.3.1h0c0-.2.2-.3.4-.3.3,0,.4.2.4.4s-.2.4-.4.7h-.1c0,.1.6.1.6.1h0c0,.1-.8.1-.8.1ZM4.1,73.7h0c0-.1.1-.2.1-.2.3-.3.5-.5.5-.7s0-.3-.3-.3-.2,0-.3.1h0c0-.2.2-.3.4-.3.3,0,.4.2.4.4s-.2.4-.4.7h-.1c0,.1.6.1.6.1h0c0,.1-.8.1-.8.1Z"/>
</svg>