<svg xmlns="http://www.w3.org/2000/svg" viewBox="0 0 83 28" enable-background="new 0 0 83 28"><g><g><path d="M35.011 0h-31.419s-3.592 5.425-3.592 14c0 8.577 3.592 14 3.592 14h31.418" fill="#EC2227"/><path d="M20.266 4.306c2.093 0 3.75.439 4.869.876l-1.022 3.339c-1.094-.537-2.315-.805-3.801-.805-3.045 0-5.967 2.047-5.967 6.48 0 4.97 3.263 6.261 5.943 6.261 1.828 0 2.702-.439 3.922-.875l.998 2.558c-1.704.997-3.702 1.534-5.918 1.534-4.29 0-8.915-2.388-8.915-9.427.001-5.993 3.749-9.941 9.891-9.941z" fill="#fff"/></g><path fill="#6D6E71" d="M39.011 0h44.8v28h-44.8z"/><g fill="#fff"><path d="M48.312 24.284v-2.494c0-.984.279-1.9.84-2.749.56-.849 1.477-1.757 2.749-2.724l2.342-1.757c.916-.679 1.587-1.314 2.011-1.909.424-.594.637-1.289.637-2.087 0-2.07-1.086-3.105-3.259-3.105-1.408 0-2.867.408-4.378 1.222l-1.12-2.418c1.867-1.12 3.784-1.68 5.753-1.68 1.985 0 3.576.483 4.772 1.451s1.795 2.325 1.795 4.073c0 1.494-.293 2.707-.878 3.64-.586.934-1.558 1.909-2.915 2.927l-2.825 2.113c-.713.526-1.176.979-1.388 1.361s-.335.811-.369 1.286h8.681v2.851h-12.448zM62.362 20.822v-2.952l6.745-13.059h4.557v13.186h2.469v2.825h-2.469v3.462h-3.207v-3.462h-8.095zm2.927-2.825h5.168v-10.539c-.17.646-.611 1.655-1.324 3.029l-3.844 7.51z"/></g><g fill="none"><path d="M.09 28v-.108l.138-.134c.332-.315.483-.483.483-.68 0-.132-.062-.254-.256-.254-.118 0-.216.061-.276.11l-.056-.124c.088-.074.218-.132.366-.132.28 0 .398.192.398.378 0 .24-.174.434-.448.697l-.101.097v.005h.582v.145h-.83zM1.66 28v-.355h-.604v-.115l.58-.829h.189v.807h.182v.137h-.182v.355h-.165zm0-.492v-.434l.006-.203h-.006l-.108.191-.318.441v.004h.426z"/></g></g></svg>