<svg xmlns="http://www.w3.org/2000/svg" viewBox="0 0 83 28" enable-background="new 0 0 83 28"><g><g><path d="M35.011 0h-31.419s-3.592 5.425-3.592 14c0 8.577 3.592 14 3.592 14h31.418" fill="#EC2227"/><path d="M20.266 4.306c2.093 0 3.75.439 4.869.876l-1.022 3.339c-1.094-.537-2.315-.805-3.801-.805-3.045 0-5.967 2.047-5.967 6.48 0 4.97 3.263 6.261 5.943 6.261 1.828 0 2.702-.439 3.922-.875l.998 2.558c-1.704.997-3.702 1.534-5.918 1.534-4.29 0-8.915-2.388-8.915-9.427.001-5.993 3.749-9.941 9.891-9.941z" fill="#fff"/></g><path fill="#673D17" d="M39.011 0h44.8v28h-44.8z"/><g fill="#fff"><path d="M42.682 22.284v-2.245c0-.886.252-1.71.756-2.475.504-.763 1.328-1.58 2.474-2.451l2.108-1.58c.824-.611 1.428-1.184 1.81-1.719.382-.534.572-1.16.572-1.878 0-1.863-.978-2.795-2.932-2.795-1.269 0-2.582.367-3.94 1.1l-1.009-2.176c1.681-1.008 3.406-1.512 5.178-1.512 1.787 0 3.219.435 4.296 1.306 1.076.871 1.615 2.093 1.615 3.665 0 1.345-.264 2.437-.791 3.276-.526.84-1.401 1.718-2.623 2.635l-2.543 1.901c-.642.474-1.058.882-1.248 1.226-.191.344-.302.729-.332 1.157h7.812v2.565h-11.203zM55.327 19.169v-2.658l6.071-11.752h4.101v11.867h2.222v2.543h-2.222v3.115h-2.887v-3.115h-7.285zm2.635-2.543h4.65v-9.485c-.152.581-.55 1.489-1.191 2.726l-3.459 6.759zM70.172 22.284v-17.525h9.553v2.589h-6.552v4.513h6.186v2.521h-6.186v5.314h6.805v2.589h-9.806z"/></g><g fill="none"><path d="M.09 28v-.108l.138-.134c.332-.315.483-.483.483-.68 0-.132-.062-.254-.256-.254-.118 0-.216.061-.276.11l-.056-.124c.088-.074.218-.132.366-.132.28 0 .398.192.398.378 0 .24-.174.434-.448.697l-.101.097v.005h.582v.145h-.83zM1.66 28v-.355h-.604v-.115l.58-.829h.189v.807h.182v.137h-.182v.355h-.165zm0-.492v-.434l.006-.203h-.006l-.108.191-.318.441v.004h.426zM2.899 27.368h-.522v.486h.584v.146h-.76v-1.348h.729v.146h-.553v.426h.522v.144z"/></g></g></svg>