<svg xmlns="http://www.w3.org/2000/svg" viewBox="0 0 83 28" enable-background="new 0 0 83 28"><g><g><path d="M35.011 0h-31.419s-3.592 5.425-3.592 14c0 8.577 3.592 14 3.592 14h31.418" fill="#EC2227"/><path d="M20.266 4.306c2.093 0 3.75.439 4.869.876l-1.022 3.339c-1.094-.537-2.315-.805-3.801-.805-3.045 0-5.967 2.047-5.967 6.48 0 4.97 3.263 6.261 5.943 6.261 1.828 0 2.702-.439 3.922-.875l.998 2.558c-1.704.997-3.702 1.534-5.918 1.534-4.29 0-8.915-2.388-8.915-9.427.001-5.993 3.749-9.941 9.891-9.941z" fill="#fff"/></g><path fill="#6D6E71" d="M39.011 0h44.8v28h-44.8z"/><g fill="#fff"><path d="M48.312 24.284v-2.494c0-.984.279-1.9.84-2.749.56-.849 1.477-1.757 2.749-2.724l2.342-1.757c.916-.679 1.587-1.314 2.011-1.909.424-.594.637-1.289.637-2.087 0-2.07-1.086-3.105-3.259-3.105-1.408 0-2.867.408-4.378 1.222l-1.12-2.418c1.867-1.12 3.784-1.68 5.753-1.68 1.985 0 3.576.483 4.772 1.451s1.795 2.325 1.795 4.073c0 1.494-.293 2.707-.878 3.64-.586.934-1.558 1.909-2.915 2.927l-2.825 2.113c-.713.526-1.176.979-1.388 1.361s-.335.811-.369 1.286h8.681v2.851h-12.448zM63.023 23.24l.688-2.393c1.527.543 2.995.814 4.404.814 1.272 0 2.235-.318 2.889-.954.653-.637.979-1.549.979-2.736 0-1.104-.292-1.896-.878-2.38-.585-.484-1.48-.726-2.686-.726h-4.811l.332-10.053h11.098v2.8h-7.789l-.178 4.43h2.494c1.884 0 3.335.487 4.353 1.463 1.019.977 1.527 2.397 1.527 4.264 0 2.003-.59 3.628-1.769 4.875-1.18 1.247-2.898 1.871-5.154 1.871-1.85-.001-3.682-.426-5.499-1.275z"/></g><g fill="none"><path d="M.09 28v-.108l.138-.134c.332-.315.483-.483.483-.68 0-.132-.062-.254-.256-.254-.118 0-.216.061-.276.11l-.056-.124c.088-.074.218-.132.366-.132.28 0 .398.192.398.378 0 .24-.174.434-.448.697l-.101.097v.005h.582v.145h-.83zM1.892 26.849h-.496l-.05.334.106-.006c.102 0 .2.02.28.069.102.057.186.17.186.332 0 .254-.202.444-.484.444-.142 0-.26-.04-.324-.08l.044-.134c.054.031.16.071.28.071.164 0 .308-.107.306-.281 0-.168-.114-.286-.372-.286l-.182.012.084-.623h.622v.148z"/></g></g></svg>