<svg xmlns="http://www.w3.org/2000/svg" viewBox="0 0 83 28" enable-background="new 0 0 83 28"><g><g><path d="M35.011 0h-31.419s-3.592 5.425-3.592 14c0 8.577 3.592 14 3.592 14h31.418" fill="#EC2227"/><path d="M20.266 4.306c2.093 0 3.75.439 4.869.876l-1.022 3.339c-1.094-.537-2.315-.805-3.801-.805-3.045 0-5.967 2.047-5.967 6.48 0 4.97 3.263 6.261 5.943 6.261 1.828 0 2.702-.439 3.922-.875l.998 2.558c-1.704.997-3.702 1.534-5.918 1.534-4.29 0-8.915-2.388-8.915-9.427.001-5.993 3.749-9.941 9.891-9.941z" fill="#fff"/></g><path fill="#6D6E71" d="M39.011 0h44.8v28h-44.8z"/><path d="M53.494 22.986l.967-2.647c1.442.747 2.902 1.12 4.379 1.12 1.204 0 2.121-.289 2.749-.865.627-.577.941-1.332.941-2.266 0-1.782-1.188-2.673-3.563-2.673h-2.215v-2.8h1.731c1.103 0 2.002-.238 2.698-.713.695-.476 1.043-1.213 1.043-2.215 0-1.595-.958-2.393-2.876-2.393-1.629 0-3.216.475-4.76 1.425l-1.171-2.622c2.07-1.171 4.276-1.756 6.618-1.756 1.866 0 3.283.437 4.251 1.311.967.875 1.45 2.041 1.45 3.5 0 1.952-.958 3.377-2.876 4.277.984.34 1.748.912 2.291 1.718.543.807.814 1.795.814 2.966 0 1.765-.606 3.229-1.82 4.391-1.213 1.162-2.906 1.744-5.078 1.744-1.984 0-3.842-.501-5.573-1.502z" fill="#fff"/><path d="M.132 27.8c.05.03.164.08.288.08.224 0 .296-.142.293-.252-.002-.182-.166-.26-.335-.26h-.098v-.132h.098c.128 0 .29-.065.29-.22 0-.104-.066-.196-.228-.196-.104 0-.204.046-.26.086l-.048-.128c.07-.05.202-.1.342-.1.256 0 .372.152.372.31 0 .136-.082.25-.24.309v.004c.16.029.288.149.29.331 0 .208-.164.391-.474.391-.146 0-.274-.047-.338-.089l.048-.134z" fill="none"/></g></svg>