<svg xmlns="http://www.w3.org/2000/svg" viewBox="0 0 83 28" enable-background="new 0 0 83 28"><g><g><path d="M35.011 0h-31.419s-3.592 5.425-3.592 14c0 8.577 3.592 14 3.592 14h31.418" fill="#EC2227"/><path d="M20.266 4.306c2.093 0 3.75.439 4.869.876l-1.022 3.339c-1.094-.537-2.315-.805-3.801-.805-3.045 0-5.967 2.047-5.967 6.48 0 4.97 3.263 6.261 5.943 6.261 1.828 0 2.702-.439 3.922-.875l.998 2.558c-1.704.997-3.702 1.534-5.918 1.534-4.29 0-8.915-2.388-8.915-9.427.001-5.993 3.749-9.941 9.891-9.941z" fill="#fff"/></g><path fill="#6D6E71" d="M39.011 0h44.8v28h-44.8z"/><path d="M60.393 24.514c-2.139 0-3.726-.789-4.761-2.367-1.035-1.579-1.553-3.742-1.553-6.491 0-3.31.7-5.982 2.101-8.019 1.399-2.036 3.415-3.054 6.045-3.054 1.442 0 2.689.254 3.742.764l-.891 2.647c-.747-.373-1.52-.56-2.316-.56-1.477 0-2.665.539-3.563 1.617-.9 1.078-1.426 2.686-1.578 4.823 1.289-.814 2.689-1.222 4.199-1.222.577 0 1.129.076 1.655.229.525.152 1.047.411 1.565.776.518.365.929.903 1.234 1.616s.458 1.569.458 2.57c0 1.986-.577 3.594-1.73 4.824-1.154 1.231-2.69 1.847-4.607 1.847zm.228-2.699c1.748 0 2.622-1.12 2.622-3.36 0-.984-.195-1.701-.585-2.151-.391-.449-1.011-.674-1.858-.674-1.104 0-2.164.279-3.182.84 0 1.816.232 3.161.699 4.034.467.874 1.236 1.311 2.304 1.311z" fill="#fff"/><path d="M.832 26.824l-.132.011c-.278.044-.422.243-.452.459h.004c.062-.084.172-.151.316-.151.229 0 .392.168.392.42 0 .239-.162.46-.434.46-.276 0-.458-.217-.458-.554 0-.256.09-.458.22-.586.108-.106.251-.172.416-.192l.128-.01v.143zm-.05.75c0-.186-.106-.298-.268-.298-.106 0-.206.064-.254.16l-.018.076c.002.214.102.373.288.373.15.001.252-.125.252-.311z" fill="none"/></g></svg>