<?xml version="1.0" encoding="utf-8"?>
<!-- Generator: Adobe Illustrator 22.1.0, SVG Export Plug-In . SVG Version: 6.00 Build 0)  -->
<svg version="1.1" xmlns="http://www.w3.org/2000/svg" xmlns:xlink="http://www.w3.org/1999/xlink" x="0px" y="0px"
	 viewBox="0 0 83 28" style="enable-background:new 0 0 83 28;" xml:space="preserve">
<style type="text/css">
	.st0{fill:#EC2227;}
	.st1{fill:#FFFFFF;}
	.st2{fill:#673D17;}
	.st3{fill:none;}
</style>
<g id="Calque_1">
	<g>
		<g>
			<path class="st0" d="M35,0H3.6C3.6,0,0,5.4,0,14c0,8.6,3.6,14,3.6,14H35"/>
			<path class="st1" d="M20.3,4.3c2.1,0,3.8,0.4,4.9,0.9l-1,3.3C23,8,21.8,7.7,20.3,7.7c-3,0-6,2-6,6.5c0,5,3.3,6.3,5.9,6.3
				c1.8,0,2.7-0.4,3.9-0.9l1,2.6c-1.7,1-3.7,1.5-5.9,1.5c-4.3,0-8.9-2.4-8.9-9.4C10.4,8.3,14.1,4.3,20.3,4.3z"/>
		</g>
		<path class="st2" d="M39,0h44.8v28H39L39,0z"/>
		<path class="st1" d="M55.4,24.3c-2.1,0-3.7-0.8-4.8-2.4c-1-1.6-1.6-3.7-1.6-6.5c0-3.3,0.7-6,2.1-8c1.4-2,3.4-3.1,6-3.1
			c1.4,0,2.7,0.3,3.7,0.8l-0.9,2.6c-0.7-0.4-1.5-0.6-2.3-0.6c-1.5,0-2.7,0.5-3.6,1.6c-0.9,1.1-1.4,2.7-1.6,4.8
			c1.3-0.8,2.7-1.2,4.2-1.2c0.6,0,1.1,0.1,1.7,0.2c0.5,0.2,1,0.4,1.6,0.8s0.9,0.9,1.2,1.6s0.5,1.6,0.5,2.6c0,2-0.6,3.6-1.7,4.8
			C58.9,23.7,57.3,24.3,55.4,24.3z M55.6,21.6c1.7,0,2.6-1.1,2.6-3.4c0-1-0.2-1.7-0.6-2.2c-0.4-0.4-1-0.7-1.9-0.7
			c-1.1,0-2.2,0.3-3.2,0.8c0,1.8,0.2,3.2,0.7,4C53.8,21.2,54.6,21.6,55.6,21.6z"/>
		<path class="st1" d="M64.1,24.3V4.7h10.7v2.9h-7.3v5h6.9v2.8h-6.9v5.9h7.6v2.9L64.1,24.3L64.1,24.3z"/>
		<path class="st3" d="M0.8,26.8l-0.1,0c-0.3,0-0.4,0.2-0.5,0.5h0c0.1-0.1,0.2-0.2,0.3-0.2c0.2,0,0.4,0.2,0.4,0.4
			C1,27.8,0.8,28,0.5,28c-0.3,0-0.5-0.2-0.5-0.6c0-0.3,0.1-0.5,0.2-0.6c0.1-0.1,0.3-0.2,0.4-0.2l0.1,0C0.8,26.7,0.8,26.8,0.8,26.8z
			 M0.8,27.6c0-0.2-0.1-0.3-0.3-0.3c-0.1,0-0.2,0.1-0.3,0.2l0,0.1c0,0.2,0.1,0.4,0.3,0.4C0.7,27.9,0.8,27.8,0.8,27.6z"/>
	</g>
</g>
<g id="Mode_Isolation">
</g>
</svg>
