<svg xmlns="http://www.w3.org/2000/svg" viewBox="0 0 83 28" enable-background="new 0 0 83 28"><g><g><path d="M35.011 0h-31.419s-3.592 5.425-3.592 14c0 8.577 3.592 14 3.592 14h31.418" fill="#EC2227"/><path d="M20.266 4.306c2.093 0 3.75.439 4.869.876l-1.022 3.339c-1.094-.537-2.315-.805-3.801-.805-3.045 0-5.967 2.047-5.967 6.48 0 4.97 3.263 6.261 5.943 6.261 1.828 0 2.702-.439 3.922-.875l.998 2.558c-1.704.997-3.702 1.534-5.918 1.534-4.29 0-8.915-2.388-8.915-9.427.001-5.993 3.749-9.941 9.891-9.941z" fill="#fff"/></g><path fill="#6D6E71" d="M39.011 0h44.8v28h-44.8z"/><path d="M56.422 24.284c0-2.308.182-4.09.547-5.346.364-1.256 1.133-2.757 2.304-4.505l1.451-2.164c1.238-1.833 1.917-3.131 2.036-3.895.033-.305.051-.535.051-.687h-9.011v-2.875h12.371c.102.781.152 1.493.152 2.138 0 1.188-.183 2.244-.547 3.169-.365.925-1.218 2.372-2.559 4.34l-1.73 2.57c-.68 1.002-1.1 1.939-1.261 2.813s-.241 2.354-.241 4.441h-3.563z" fill="#fff"/><path d="M.934 26.701v.115l-.566 1.184h-.182l.563-1.149v-.004h-.635v-.146h.82z" fill="none"/></g></svg>