<svg xmlns="http://www.w3.org/2000/svg" viewBox="0 0 83 28" enable-background="new 0 0 83 28"><g><g><path d="M35.011 0h-31.419s-3.592 5.425-3.592 14c0 8.577 3.592 14 3.592 14h31.418" fill="#EC2227"/><path d="M20.266 4.306c2.093 0 3.75.439 4.869.876l-1.022 3.339c-1.094-.537-2.315-.805-3.801-.805-3.045 0-5.967 2.047-5.967 6.48 0 4.97 3.263 6.261 5.943 6.261 1.828 0 2.702-.439 3.922-.875l.998 2.558c-1.704.997-3.702 1.534-5.918 1.534-4.29 0-8.915-2.388-8.915-9.427.001-5.993 3.749-9.941 9.891-9.941z" fill="#fff"/></g><path fill="#6D6E71" d="M39.011 0h44.8v28h-44.8z"/><path d="M54.131 23.444l.916-2.698c1.34.56 2.647.84 3.92.84 2.732 0 4.099-2.078 4.099-6.236-1.375.865-2.698 1.298-3.972 1.298-.577 0-1.149-.097-1.718-.292s-1.124-.492-1.667-.892c-.544-.398-.984-.963-1.324-1.692s-.509-1.578-.509-2.545c0-2.002.568-3.61 1.705-4.824 1.137-1.213 2.631-1.82 4.48-1.82 2.291 0 3.945.823 4.964 2.469 1.018 1.646 1.527 4.039 1.527 7.178 0 3.19-.607 5.698-1.82 7.521-1.214 1.825-3.102 2.737-5.664 2.737-.831 0-1.714-.094-2.646-.28-.934-.187-1.697-.441-2.291-.764zm6.032-9.978c1.019 0 1.951-.28 2.8-.84 0-1.578-.225-2.864-.674-3.856-.45-.993-1.176-1.489-2.177-1.489-1.833 0-2.749 1.128-2.749 3.385 0 .865.237 1.549.713 2.049.475.501 1.171.751 2.087.751z" fill="#fff"/><path d="M.192 27.876l.142-.006c.102-.014.198-.054.271-.126.086-.078.148-.191.172-.344h-.006c-.072.088-.176.138-.308.138-.232 0-.382-.176-.382-.397 0-.246.178-.462.444-.462s.43.214.43.55c0 .284-.096.483-.224.607-.1.098-.238.158-.377.174l-.162.01v-.144zm.064-.745c0 .161.098.275.25.275.118 0 .21-.058.256-.136l.016-.066c0-.222-.082-.392-.268-.392-.148.001-.254.132-.254.319z" fill="none"/></g></svg>