<svg xmlns="http://www.w3.org/2000/svg" viewBox="0 0 67 28" enable-background="new 0 0 67 28"><g><g><path d="M3.59 0s-3.59 5.428-3.59 14c0 8.578 3.59 14 3.59 14h31.418v-28h-31.418z" fill="#EC2227"/><path d="M20.693 23.307h-3.777l-3.337-10.91c-.098-.344-.364-1.341-.509-2.219l-.099 13.129h-3.922l.584-18.63h5.018l3.654 12.006c.217.755.437 1.756.437 2.412h.123c0-.656.219-1.657.437-2.412l3.653-12.007h5.018l.585 18.63h-3.921l-.1-13.129c-.145.877-.411 1.875-.51 2.219l-3.334 10.911z" fill="#fff"/></g><path fill="#00AB4E" d="M39.007 0h28v28h-28z"/><path d="M45.688 24.284v-19.472h7c1.289 0 2.473.157 3.551.471 1.077.314 2.07.814 2.979 1.502.907.688 1.616 1.65 2.125 2.889.51 1.239.764 2.707.764 4.404 0 3.445-.954 6.007-2.863 7.688-1.909 1.68-4.434 2.52-7.573 2.52h-5.983zm3.334-2.8h2.418c1.052 0 1.998-.119 2.838-.356s1.6-.615 2.278-1.133 1.205-1.243 1.578-2.177c.373-.933.56-2.044.56-3.334 0-2.24-.534-3.941-1.604-5.104-1.068-1.162-2.63-1.744-4.684-1.744h-3.385v13.848z" fill="#fff"/><path d="M.152 26.673c.106-.019.232-.03.37-.03.25 0 .428.061.546.168.122.11.192.266.192.483 0 .221-.07.4-.194.524-.128.126-.336.193-.598.193l-.316-.016v-1.322zm.174 1.191l.176.008c.374 0 .573-.208.573-.571.002-.318-.178-.521-.545-.521l-.204.019v1.065z" fill="none"/></g></svg>