<svg viewBox="0 0 68 29" xmlns="http://www.w3.org/2000/svg" fill-rule="evenodd" clip-rule="evenodd"><path d="M3.6 0s-3.6 5.5-3.6 14.1c0 8.7 3.6 14.1 3.6 14.1h31.7v-28.2h-31.7z" fill="#ed1c24"/><path d="M13.5 5.1h10.3v2.8h-7v5.1h6.6v2.8h-6.6v8.2h-3.3v-18.9z" fill="#fff"/><path fill="#8bc751" d="M38.9 0h28.2v28.2h-28.2z"/><path d="M47.2 23.9v-2.4c0-.9.3-1.8.8-2.6s1.4-1.7 2.6-2.6l2.3-1.7c.9-.7 1.5-1.3 1.9-1.8.4-.6.6-1.2.6-2 0-2-1-3-3.1-3-1.4 0-2.8.4-4.2 1.2l-1.1-2.3c1.8-1.1 3.6-1.6 5.5-1.6s3.4.5 4.6 1.4c1.2.9 1.7 2.2 1.7 3.9 0 1.4-.3 2.6-.8 3.5-.6.9-1.5 1.8-2.8 2.8l-2.7 2c-.7.5-1.1.9-1.3 1.3-.2.4-.3.8-.4 1.2h8.4v2.7h-12z" fill="#fff"/></svg>