<svg xmlns="http://www.w3.org/2000/svg" viewBox="0 0 83 28" enable-background="new 0 0 83 28"><g><g><path d="M3.592 0s-3.592 5.425-3.592 14.001c0 8.578 3.592 13.999 3.592 13.999h31.421v-28h-31.421z" fill="#EC2227"/><g fill="#fff"><path d="M5.871 8.355h3.838c2.432 0 3.503 1.25 3.503 2.678 0 1.584-.938 2.231-1.384 2.431.892.268 1.874 1.117 1.874 2.7 0 2.074-1.495 3.48-3.726 3.48h-4.105v-11.289zm3.301 4.597c1.026 0 1.696-.426 1.696-1.451 0-.715-.4-1.361-1.561-1.361h-1.072v2.812h.937zm.179 5.02c1.071 0 1.986-.38 1.986-1.719 0-1.05-.691-1.628-1.942-1.628h-1.16v3.347h1.116zM24.795 17.034c.76.401 1.607.826 2.878.826 1.071 0 1.606-.625 1.606-1.295 0-.915-.647-1.316-2.253-2.006-1.428-.603-2.433-1.34-2.433-3.192 0-1.785 1.361-3.279 3.994-3.279 1.295 0 2.275.358 2.877.692l-.714 1.941c-.581-.357-1.427-.625-2.296-.625-.937 0-1.585.423-1.585 1.16 0 .716.47 1.206 1.74 1.741 2.321.981 2.945 1.786 2.945 3.391 0 2.613-1.964 3.526-3.726 3.526-1.695 0-2.944-.602-3.769-1.162l.736-1.718zM20.833 15.717v-7.362h2.365v7.452c0 3.233-1.964 4.105-4.194 4.105-2.232 0-4.195-.872-4.195-4.105v-7.452h2.366v7.362c0 1.474.602 2.186 1.83 2.186 1.226-.001 1.828-.713 1.828-2.186z"/></g></g><path fill="#fff" stroke="#005496" stroke-width="1.4" stroke-miterlimit="10" d="M40.414.7h42v26.6h-42z"/><path d="M65.541 23.284v-2.386c0-.941.268-1.818.803-2.63.536-.812 1.413-1.68 2.63-2.605l2.24-1.68c.876-.649 1.518-1.258 1.924-1.826.405-.568.608-1.233.608-1.997 0-1.98-1.039-2.97-3.117-2.97-1.347 0-2.743.389-4.188 1.168l-1.071-2.312c1.785-1.071 3.619-1.607 5.503-1.607 1.899 0 3.421.462 4.565 1.388 1.144.925 1.716 2.224 1.716 3.896 0 1.429-.279 2.589-.84 3.481-.56.893-1.489 1.826-2.788 2.8l-2.702 2.021c-.682.503-1.124.938-1.327 1.303s-.32.774-.353 1.229h8.303v2.727h-11.906z" fill="#005496"/><g><path fill="#025596" d="M40.414 0h21.944v27.293h-21.944z"/><path fill="none" d="M43.668 8.334h14.672v14.18h-14.672z"/><path d="M41.952 14.207c0-2.133.658-3.852 1.973-5.156 1.316-1.304 3.129-1.956 5.44-1.956 1.185 0 2.376.237 3.574.711l-.925 2.028c-.865-.451-1.79-.677-2.774-.677-1.434 0-2.599.428-3.494 1.28-.895.853-1.342 2.139-1.342 3.858 0 1.683.439 2.937 1.316 3.76.877.825 2.009 1.236 3.396 1.236.427 0 .936-.07 1.529-.213v-3.467h-2.098v-2.009h4.427v6.578c-1.327.699-2.744 1.049-4.249 1.049-2.062 0-3.707-.593-4.934-1.778-1.226-1.183-1.839-2.932-1.839-5.244zM54.692 20.963v-9.067h4.943v1.339h-3.39v2.335h3.2v1.304h-3.2v2.749h3.519v1.339l-5.072.001z" fill="#fff" enable-background="new"/></g><path d="M.09 28v-.108l.138-.134c.332-.315.483-.483.483-.68 0-.132-.062-.254-.256-.254-.118 0-.216.061-.276.11l-.056-.124c.088-.074.218-.132.366-.132.28 0 .398.192.398.378 0 .24-.174.434-.448.697l-.101.097v.005h.582v.145h-.83z" fill="none"/></g></svg>