<svg xmlns="http://www.w3.org/2000/svg" viewBox="0 0 83 28" enable-background="new 0 0 83 28"><g><g><path d="M3.592 0s-3.592 5.425-3.592 14.001c0 8.578 3.592 13.999 3.592 13.999h31.421v-28h-31.421z" fill="#EC2227"/><g fill="#fff"><path d="M5.871 8.355h3.838c2.432 0 3.503 1.25 3.503 2.678 0 1.584-.938 2.231-1.384 2.431.892.268 1.874 1.117 1.874 2.7 0 2.074-1.495 3.48-3.726 3.48h-4.105v-11.289zm3.301 4.597c1.026 0 1.696-.426 1.696-1.451 0-.715-.4-1.361-1.561-1.361h-1.072v2.812h.937zm.179 5.02c1.071 0 1.986-.38 1.986-1.719 0-1.05-.691-1.628-1.942-1.628h-1.16v3.347h1.116zM24.795 17.034c.76.401 1.607.826 2.878.826 1.071 0 1.606-.625 1.606-1.295 0-.915-.647-1.316-2.253-2.006-1.428-.603-2.433-1.34-2.433-3.192 0-1.785 1.361-3.279 3.994-3.279 1.295 0 2.275.358 2.877.692l-.714 1.941c-.581-.357-1.427-.625-2.296-.625-.937 0-1.585.423-1.585 1.16 0 .716.47 1.206 1.74 1.741 2.321.981 2.945 1.786 2.945 3.391 0 2.613-1.964 3.526-3.726 3.526-1.695 0-2.944-.602-3.769-1.162l.736-1.718zM20.833 15.717v-7.362h2.365v7.452c0 3.233-1.964 4.105-4.194 4.105-2.232 0-4.195-.872-4.195-4.105v-7.452h2.366v7.362c0 1.474.602 2.186 1.83 2.186 1.226-.001 1.828-.713 1.828-2.186z"/></g></g><path fill="#fff" stroke="#005496" stroke-width="1.4" stroke-miterlimit="10" d="M40.414.7h42v26.6h-42z"/><path d="M71.677 23.503c-2.046 0-3.563-.755-4.554-2.264-.99-1.51-1.485-3.579-1.485-6.209 0-3.165.67-5.722 2.009-7.669 1.34-1.948 3.267-2.922 5.783-2.922 1.379 0 2.572.244 3.579.73l-.853 2.532c-.715-.357-1.453-.536-2.216-.536-1.412 0-2.548.516-3.408 1.546-.86 1.031-1.363 2.568-1.51 4.614 1.233-.779 2.572-1.169 4.018-1.169.552 0 1.079.073 1.582.219.503.146 1.002.395 1.498.743.495.349.889.864 1.181 1.546s.438 1.502.438 2.459c0 1.899-.553 3.438-1.656 4.614s-2.572 1.766-4.406 1.766zm.219-2.58c1.672 0 2.508-1.071 2.508-3.214 0-.941-.187-1.628-.56-2.058-.374-.43-.967-.646-1.778-.646-1.055 0-2.069.268-3.043.804 0 1.737.223 3.023.67 3.859.446.837 1.18 1.255 2.203 1.255z" fill="#005496"/><g><path fill="#025596" d="M40.414 0h21.944v27.293h-21.944z"/><path fill="none" d="M43.668 8.334h14.672v14.18h-14.672z"/><path d="M41.952 14.207c0-2.133.658-3.852 1.973-5.156 1.316-1.304 3.129-1.956 5.44-1.956 1.185 0 2.376.237 3.574.711l-.925 2.028c-.865-.451-1.79-.677-2.774-.677-1.434 0-2.599.428-3.494 1.28-.895.853-1.342 2.139-1.342 3.858 0 1.683.439 2.937 1.316 3.76.877.825 2.009 1.236 3.396 1.236.427 0 .936-.07 1.529-.213v-3.467h-2.098v-2.009h4.427v6.578c-1.327.699-2.744 1.049-4.249 1.049-2.062 0-3.707-.593-4.934-1.778-1.226-1.183-1.839-2.932-1.839-5.244zM54.692 20.963v-9.067h4.943v1.339h-3.39v2.335h3.2v1.304h-3.2v2.749h3.519v1.339l-5.072.001z" fill="#fff" enable-background="new"/></g><path d="M.832 26.824l-.132.011c-.278.044-.422.243-.452.459h.004c.062-.084.172-.151.316-.151.229 0 .392.168.392.42 0 .239-.162.46-.434.46-.276 0-.458-.217-.458-.554 0-.256.09-.458.22-.586.108-.106.251-.172.416-.192l.128-.01v.143zm-.05.75c0-.186-.106-.298-.268-.298-.106 0-.206.064-.254.16l-.018.076c.002.214.102.373.288.373.15.001.252-.125.252-.311z" fill="none"/></g></svg>