<svg enable-background="new 0 0 87.2 25.4" viewBox="0 0 87.2 25.4" xmlns="http://www.w3.org/2000/svg"><path d="m3.3 0s-3.3 4.9-3.3 12.7 3.3 12.7 3.3 12.7h28.5v-25.4z" fill="#e20613"/><path d="m22.2 15.5c.7.4 1.5.7 2.6.7 1 0 1.5-.6 1.5-1.2 0-.8-.6-1.2-2-1.8-1.4-.5-2.3-1.2-2.3-2.9 0-1.6 1.2-3 3.6-3 1.2 0 2.1.3 2.6.6l-.6 1.8c-.5-.3-1.3-.6-2.1-.6s-1.4.4-1.4 1.1c0 .6.4 1.1 1.6 1.6 2.1.9 2.7 1.6 2.7 3.1 0 2.4-1.8 3.2-3.4 3.2-1.5 0-2.7-.5-3.4-1.1zm-3.4-1.2v-6.7h2.1v6.7c0 2.9-1.8 3.7-3.8 3.7s-3.8-.8-3.8-3.7v-6.7h2.1v6.7c0 1.3.5 2 1.7 2 1.2-.1 1.7-.7 1.7-2m-10.3 2c1 0 1.8-.3 1.8-1.6 0-1-.6-1.5-1.8-1.5h-1v3h1zm-.2-4.5c.9 0 1.5-.4 1.5-1.3 0-.6-.4-1.2-1.4-1.2h-1v2.5zm-3-4.2h3.5c2.2 0 3.2 1.1 3.2 2.4 0 1.4-.8 2-1.3 2.2.8.2 1.7 1 1.7 2.4 0 1.9-1.4 3.2-3.4 3.2h-3.7z" fill="#fff"/><path d="m36.1 0h51.2v25.4h-51.2z" fill="#fff"/><path d="m87.2 0h-51.1v25.4h51.2v-25.4zm-1 24.4h-49.1v-23.4h49.1z" fill="#ee7d00"/><path d="m36.9.6h11.8v23.9h-11.8z" fill="#ee7d00"/><path d="m39 7.4h1.7l3.6 6.6c.2.3.4 1 .5 1.6v-8.2h1.7v11.1h-1.7l-3.6-6.6c-.2-.4-.4-1-.5-1.6v8.1h-1.7z" fill="#fff"/><g fill="#ee7d00"><path d="m50.7 18.9h4.1v-11.5l-3.8 2.2-1-2 5.3-2.9h2.4v14.2h3.3v2.2h-10.3z"/><path d="m61.1 12.9c0-4.2 1.1-8.5 5.8-8.5 4.6 0 5.8 4.2 5.8 8.5 0 4.4-.8 8.4-5.8 8.4s-5.8-3.9-5.8-8.4m8.6.3c0-3.5-.5-6.1-2.8-6.1-2.2 0-2.8 2.6-2.8 6.1 0 4.1.9 5.6 2.8 5.6 1.8 0 2.8-1.6 2.8-5.6"/><path d="m73.1 12.9c0-4.2 1.1-8.5 5.8-8.5s5.8 4.2 5.8 8.5c0 4.4-.8 8.4-5.8 8.4s-5.8-3.9-5.8-8.4m8.5.3c0-3.5-.5-6.1-2.8-6.1-2.2 0-2.8 2.6-2.8 6.1 0 4.1.9 5.6 2.8 5.6s2.8-1.6 2.8-5.6"/></g></svg>