<?xml version="1.0" encoding="UTF-8"?><svg id="Calque_1" xmlns="http://www.w3.org/2000/svg" viewBox="0 0 88.2 29.6"><defs><style>.cls-1{fill:#eb212e;}.cls-2{fill:#fff;}.cls-3{isolation:isolate;}.cls-4{fill:#f08231;}.cls-5{fill:#f38230;}</style></defs><path class="cls-1" d="M3.8,0C1.2,4.5-.1,9.6,0,14.8c-.1,5.2,1.2,10.3,3.8,14.8H37V0H3.8Z"/><path class="cls-2" d="M25.9,18c.9,.5,1.9,.8,3,.9,1.1,0,1.7-.7,1.7-1.4,0-1-.7-1.4-2.4-2.1-1.5-.6-2.5-1.4-2.5-3.4s1.4-3.5,4.2-3.5c1,0,2.1,.2,3,.7l-.8,2.1c-.7-.4-1.6-.7-2.4-.7-1,0-1.7,.4-1.7,1.2s.5,1.3,1.8,1.8c2.4,1,3.1,1.9,3.1,3.6,0,2.8-2.1,3.7-3.9,3.7-1.4,0-2.8-.4-4-1.2l.9-1.7Zm-4-1.4v-7.7h2.5v7.9c0,3.4-2.1,4.3-4.4,4.3s-4.4-.9-4.4-4.3v-7.9h2.4v7.8c0,1.5,.6,2.3,1.9,2.3s2-.8,2-2.4m-12,2.4c1.1,0,2.1-.4,2.1-1.8,0-1.1-.7-1.7-2-1.7h-1.3v3.5h1.2Zm-.2-5.3c1.1,0,1.8-.4,1.8-1.5,0-.8-.4-1.4-1.6-1.4h-1.2v3l1-.1Zm-3.5-4.8h4.1c2.6,0,3.7,1.3,3.7,2.8,.1,1.1-.5,2.1-1.5,2.6,1.2,.4,2.1,1.6,2,2.9,0,2-1.5,3.6-3.5,3.7H6.2V8.9Z"/><path class="cls-2" d="M42.1,.5h46.2V29.6H42.1V.5Z"/><path class="cls-5" d="M88.2,.5H42.1V29.6h46.2V.5h-.1Zm-1.2,27.9H43.3V1.7h43.7V28.4Z"/><path class="cls-5" d="M43,1.2h13.7V28.6h-13.7V1.2Z"/><path class="cls-2" d="M45.4,8.6h1.9l4.2,7.7c.3,.6,.5,1.2,.6,1.8V8.6h2v13h-2l-4.1-7.7c-.3-.6-.5-1.2-.6-1.8v9.5h-2V8.6Z"/><g class="cls-3"><path class="cls-4" d="M59.96,22.24c0-1.98,.95-3.55,3.18-5.46l2.08-1.75c1.49-1.24,2.35-2.28,2.35-3.98,0-2.36-1.36-3.1-2.89-3.1-1.45,0-3.05,.71-3.88,1.22l-.99-2.41c1.58-1.07,3.57-1.67,5.1-1.67,3.43,0,5.83,1.95,5.83,5.51,0,3.17-1.15,4.67-3.36,6.55l-2.51,2.11c-1.38,1.17-1.51,1.83-1.56,2.64h7.7v2.84h-11.04v-2.49Z"/><path class="cls-4" d="M72.52,15.06c0-4.97,1.2-9.97,6.05-9.97s6.08,5,6.08,9.97c0,5.23-.86,9.9-6.08,9.9s-6.05-4.67-6.05-9.9Zm8.97,.28c0-4.09-.56-7.16-2.91-7.16s-2.89,3.07-2.89,7.16c0,4.8,.97,6.65,2.89,6.65s2.91-1.85,2.91-6.65Z"/></g></svg>