<svg xmlns="http://www.w3.org/2000/svg" viewBox="0 0 88.23 29.61"><defs><style>.cls-1{fill:#eb212e;}.cls-2{fill:#fff;}.cls-3{fill:#f38230;}</style></defs><title>Fichier 2</title><g id="Calque_2" data-name="Calque 2"><g id="Calque_1-2" data-name="Calque 1"><path class="cls-1" d="M3.8,0A28.76,28.76,0,0,0,0,14.81a28.7,28.7,0,0,0,3.8,14.8H37V0Z"/><path class="cls-2" d="M25.87,18a6.08,6.08,0,0,0,3,.87c1.13,0,1.69-.66,1.69-1.37,0-1-.68-1.39-2.37-2.12C26.72,14.76,25.66,14,25.66,12s1.44-3.47,4.21-3.47a6.3,6.3,0,0,1,3,.73l-.75,2.05a4.89,4.89,0,0,0-2.43-.66c-1,0-1.67.45-1.67,1.23s.5,1.27,1.84,1.84c2.45,1,3.11,1.88,3.11,3.57,0,2.76-2.07,3.73-3.94,3.73a7,7,0,0,1-4-1.23Zm-4-1.39V8.85h2.5v7.86c0,3.42-2.07,4.34-4.42,4.34s-4.43-.92-4.43-4.34V8.85h2.49v7.77c0,1.55.64,2.31,1.94,2.31s1.92-.76,1.92-2.31M9.88,19C11,19,12,18.6,12,17.18c0-1.1-.72-1.72-2-1.72H8.7V19Zm-.19-5.3c1.09,0,1.79-.45,1.79-1.53,0-.76-.42-1.44-1.65-1.44H8.7v3ZM6.21,8.85h4.05c2.56,0,3.69,1.31,3.69,2.82a2.61,2.61,0,0,1-1.46,2.57,2.81,2.81,0,0,1,2,2.85,3.6,3.6,0,0,1-3.93,3.67H6.21Z"/><rect class="cls-2" x="42.07" y="0.47" width="46.16" height="29.14"/><path class="cls-3" d="M88.23.47H42.07V29.61H88.23ZM87,28.43H43.26V1.66H87Z"/><rect class="cls-3" x="42.98" y="1.15" width="13.74" height="27.37"/><path class="cls-2" d="M45.42,8.61h1.94l4.2,7.68a8.4,8.4,0,0,1,.61,1.81V8.61h2v13h-2L48,13.92a7.25,7.25,0,0,1-.61-1.81V21.6h-2Z"/><path class="cls-3" d="M62,14.71a4.59,4.59,0,0,1-2.56-4.19c0-3.34,2.61-5.32,5.82-5.32S70.57,7,70.57,9.77A4.58,4.58,0,0,1,67.74,14c2.36,1,3.61,2.66,3.61,5,0,3-2.21,5.87-6.55,5.87-4.11,0-5.87-2.56-5.87-5.3A5.29,5.29,0,0,1,62,14.71Zm3.14,7.6a2.55,2.55,0,0,0,2.61-2.86c0-2-1.31-2.69-3.49-3.46a3.86,3.86,0,0,0-1.78,3.43A2.56,2.56,0,0,0,65.18,22.31ZM67.11,10c0-1.28-.5-2.18-1.86-2.18-1.12,0-2.13.65-2.13,2.51,0,1,.3,2,2,2.71A3.14,3.14,0,0,0,67.11,10Z"/><path class="cls-3" d="M73.13,22h4.79V8.64l-4.44,2.51L72.27,8.81l6.2-3.38h2.81V22h3.84v2.64h-12Z"/></g></g></svg>