<svg xmlns="http://www.w3.org/2000/svg" viewBox="0 0 83 28" enable-background="new 0 0 83 28"><g><g><path d="M3.592 0s-3.592 5.425-3.592 14.001c0 8.578 3.592 13.999 3.592 13.999h31.421v-28h-31.421z" fill="#EC2227"/><g fill="#fff"><path d="M5.871 8.355h3.838c2.432 0 3.503 1.25 3.503 2.678 0 1.584-.938 2.231-1.384 2.431.892.268 1.874 1.117 1.874 2.7 0 2.074-1.495 3.48-3.726 3.48h-4.105v-11.289zm3.301 4.597c1.026 0 1.696-.426 1.696-1.451 0-.715-.4-1.361-1.561-1.361h-1.072v2.812h.937zm.179 5.02c1.071 0 1.986-.38 1.986-1.719 0-1.05-.691-1.628-1.942-1.628h-1.16v3.347h1.116zM24.795 17.034c.76.401 1.607.826 2.878.826 1.071 0 1.606-.625 1.606-1.295 0-.915-.647-1.316-2.253-2.006-1.428-.603-2.433-1.34-2.433-3.192 0-1.785 1.361-3.279 3.994-3.279 1.295 0 2.275.358 2.877.692l-.714 1.941c-.581-.357-1.427-.625-2.296-.625-.937 0-1.585.423-1.585 1.16 0 .716.47 1.206 1.74 1.741 2.321.981 2.945 1.786 2.945 3.391 0 2.613-1.964 3.526-3.726 3.526-1.695 0-2.944-.602-3.769-1.162l.736-1.718zM20.833 15.717v-7.362h2.365v7.452c0 3.233-1.964 4.105-4.194 4.105-2.232 0-4.195-.872-4.195-4.105v-7.452h2.366v7.362c0 1.474.602 2.186 1.83 2.186 1.226-.001 1.828-.713 1.828-2.186z"/></g></g><path fill="#fff" stroke="#21409A" stroke-width="1.4" stroke-miterlimit="10" d="M40.414.7h42v26.6h-42z"/><path d="M64.883 22.042l.926-2.531c1.379.714 2.775 1.071 4.188 1.071 1.152 0 2.029-.276 2.63-.828s.9-1.274.9-2.167c0-1.704-1.136-2.557-3.408-2.557h-2.119v-2.679h1.655c1.055 0 1.915-.227 2.581-.682.665-.454.998-1.16.998-2.118 0-1.526-.917-2.289-2.751-2.289-1.559 0-3.076.455-4.553 1.364l-1.12-2.508c1.979-1.12 4.09-1.68 6.33-1.68 1.785 0 3.141.418 4.066 1.254.925.836 1.388 1.952 1.388 3.348 0 1.867-.917 3.23-2.751 4.09.94.325 1.671.873 2.19 1.644.52.771.779 1.717.779 2.837 0 1.688-.58 3.088-1.74 4.2-1.161 1.111-2.78 1.667-4.857 1.667-1.899.001-3.676-.478-5.332-1.436z" fill="#21409A"/><g><path fill="#214497" d="M40.414 0h21.777v27.049h-21.777z"/><path d="M43.839 11h4.791c.557 0 1.08.075 1.569.224.489.135.915.357 1.278.664.376.295.666.681.87 1.16.216.467.324 1.03.324 1.69 0 .532-.091 1.051-.273 1.551-.182.5-.466.947-.852 1.346-.375.388-.853.7-1.432.937-.579.239-1.267.359-2.063.359h-1.963v5.116h-2.249v-13.047zm4.058 6.105c.762 0 1.358-.176 1.791-.528.443-.364.665-.921.665-1.67 0-.683-.194-1.206-.58-1.569-.374-.364-.892-.546-1.552-.546h-2.132v4.313h1.808zM54.146 10.881h1.664v7.416h3.187v1.551h-4.852c.001-.001.001-8.967.001-8.967zM55.601 1.482l1.328 1.439 1.934-.282-.956 1.705.865 1.754-1.917-.38-1.399 1.362-.231-1.943-1.73-.911 1.775-.817z" fill="#fff"/></g><path d="M.132 27.8c.05.03.164.08.288.08.224 0 .296-.142.293-.252-.002-.182-.166-.26-.335-.26h-.098v-.132h.098c.128 0 .29-.065.29-.22 0-.104-.066-.196-.228-.196-.104 0-.204.046-.26.086l-.048-.128c.07-.05.202-.1.342-.1.256 0 .372.152.372.31 0 .136-.082.25-.24.309v.004c.16.029.288.149.29.331 0 .208-.164.391-.474.391-.146 0-.274-.047-.338-.089l.048-.134z" fill="none"/></g></svg>