<?xml version="1.0" encoding="iso-8859-1"?>
<!-- Generator: Adobe Illustrator 22.1.0, SVG Export Plug-In . SVG Version: 6.00 Build 0)  -->
<svg version="1.1" xmlns="http://www.w3.org/2000/svg" xmlns:xlink="http://www.w3.org/1999/xlink" x="0px" y="0px"
	 viewBox="0 0 83 28" style="enable-background:new 0 0 83 28;" xml:space="preserve">
<g id="Layer_1">
</g>
<g id="TestEtiquetteArret">
	<g id="R2">
		<rect x="40.407" y="0.7" style="fill:#FFFFFF;stroke:#EF5BA1;stroke-width:1.4;stroke-miterlimit:10;" width="42" height="26.6"/>
		<g>
			<path style="fill:#EF5BA1;" d="M65.809,24.284V21.79c0-0.984,0.279-1.9,0.84-2.749c0.56-0.849,1.477-1.757,2.749-2.724
				l2.342-1.757c0.916-0.679,1.587-1.314,2.011-1.909c0.424-0.594,0.637-1.289,0.637-2.087c0-2.07-1.086-3.105-3.259-3.105
				c-1.408,0-2.867,0.408-4.378,1.222l-1.12-2.418c1.867-1.12,3.784-1.68,5.753-1.68c1.985,0,3.576,0.483,4.772,1.451
				s1.795,2.325,1.795,4.073c0,1.494-0.293,2.707-0.878,3.64c-0.586,0.934-1.558,1.909-2.915,2.927l-2.825,2.113
				c-0.713,0.526-1.176,0.979-1.388,1.361s-0.335,0.811-0.369,1.286h8.681v2.851H65.809z"/>
		</g>
		<g>
			<g id="Layer_1_1_">
			</g>
			<g id="Mode_Isolation">
				<g>
					<path style="fill:#E92829;" d="M3.591,0C3.591,0,0,5.427,0,14.001C0,22.578,3.591,28,3.591,28h31.417V0H3.591z"/>
					<g>
						<path style="fill:#FFFFFF;" d="M21.94,4.502c-0.622-0.236-0.564-0.213-0.564-0.213l-1.875,4.938
							c1.448,0.551,0.89,2.907-0.133,5.608c-1.028,2.705-2.129,4.809-3.63,4.233l-1.888,4.979c0,0-0.36-0.131,0.482,0.184
							c2.529,0.959,5.867-0.289,8.788-7.976C26.029,8.577,24.361,5.42,21.94,4.502"/>
						<path style="fill:#FFFFFF;" d="M20.43,4.165c-0.044,0.112-1.813,4.773-1.813,4.773l-1.021-0.385l1.496-4.903
							c0,0,0.028-0.218,0.211-0.147c0.184,0.071,0.911,0.344,1.051,0.397C20.499,3.951,20.481,4.022,20.43,4.165"/>
						<path style="fill:#FFFFFF;" d="M13.079,23.539c0.048-0.112,1.808-4.773,1.808-4.773l-1.023-0.385l-2.129,4.66
							c0,0-0.124,0.177,0.06,0.255c0.184,0.064,0.906,0.344,1.053,0.397C12.987,23.741,13.026,23.682,13.079,23.539"/>
					</g>
				</g>
			</g>
		</g>
		<g>
			<g id="Layer_1_2_">
			</g>
			<g id="Mode_Isolation_1_">
				<g>
					<rect x="40.407" style="fill:#EF5CA1;" width="22.222" height="27.05"/>
					<g>
						<path style="fill:#FFFFFF;" d="M45.804,21.596V7.092h5.498c1.264,0,2.292,0.326,3.082,0.977
							c0.789,0.652,1.186,1.608,1.186,2.873c0,1.859-0.815,3.155-2.446,3.887l3.261,6.769h-2.937l-2.806-6.276h-2.334v6.276
							L45.804,21.596L45.804,21.596z M48.328,13.292h2.028c1.758,0,2.634-0.72,2.634-2.161c0-1.365-0.776-2.049-2.331-2.049h-2.334
							L48.328,13.292L48.328,13.292z"/>
					</g>
				</g>
			</g>
		</g>
		<g>
			<path style="fill:none;" d="M0.09,28v-0.108l0.138-0.134c0.332-0.315,0.483-0.483,0.483-0.68c0-0.132-0.062-0.254-0.256-0.254
				c-0.118,0-0.216,0.061-0.276,0.11l-0.056-0.124c0.088-0.074,0.218-0.132,0.366-0.132c0.28,0,0.398,0.192,0.398,0.378
				c0,0.24-0.174,0.434-0.448,0.697L0.338,27.85v0.005h0.582V28H0.09z"/>
		</g>
	</g>
</g>
</svg>
