<?xml version="1.0" encoding="iso-8859-1"?>
<!-- Generator: Adobe Illustrator 22.1.0, SVG Export Plug-In . SVG Version: 6.00 Build 0)  -->
<svg version="1.1" xmlns="http://www.w3.org/2000/svg" xmlns:xlink="http://www.w3.org/1999/xlink" x="0px" y="0px"
	 viewBox="0 0 83 28" style="enable-background:new 0 0 83 28;" xml:space="preserve">
<g id="Layer_1">
</g>
<g id="TestEtiquetteArret">
	<g id="R3">
		<rect x="40.407" y="0.7" style="fill:#FFFFFF;stroke:#EF5BA1;stroke-width:1.4;stroke-miterlimit:10;" width="42" height="26.6"/>
		<g>
			<path style="fill:#EF5BA1;" d="M65.324,22.986l0.968-2.647c1.442,0.747,2.901,1.12,4.378,1.12c1.205,0,2.121-0.289,2.749-0.865
				c0.628-0.577,0.942-1.332,0.942-2.266c0-1.782-1.188-2.673-3.563-2.673h-2.215v-2.8h1.73c1.104,0,2.003-0.238,2.698-0.713
				c0.696-0.476,1.044-1.213,1.044-2.215c0-1.595-0.959-2.393-2.876-2.393c-1.63,0-3.217,0.475-4.761,1.425l-1.171-2.622
				c2.07-1.171,4.276-1.756,6.618-1.756c1.867,0,3.284,0.437,4.251,1.311c0.968,0.875,1.451,2.041,1.451,3.5
				c0,1.952-0.959,3.377-2.876,4.277c0.983,0.34,1.747,0.912,2.29,1.718c0.543,0.807,0.815,1.795,0.815,2.966
				c0,1.765-0.607,3.229-1.82,4.391c-1.214,1.162-2.906,1.744-5.078,1.744C68.914,24.488,67.056,23.987,65.324,22.986z"/>
		</g>
		<g>
			<g id="Layer_1_1_">
			</g>
			<g id="Mode_Isolation">
				<g>
					<path style="fill:#E92829;" d="M3.591,0C3.591,0,0,5.427,0,14.001C0,22.578,3.591,28,3.591,28h31.417V0H3.591z"/>
					<g>
						<path style="fill:#FFFFFF;" d="M21.94,4.502c-0.622-0.236-0.564-0.213-0.564-0.213l-1.875,4.938
							c1.448,0.551,0.89,2.907-0.133,5.608c-1.028,2.705-2.129,4.809-3.63,4.233l-1.888,4.979c0,0-0.36-0.131,0.482,0.184
							c2.529,0.959,5.867-0.289,8.788-7.976C26.029,8.577,24.361,5.42,21.94,4.502"/>
						<path style="fill:#FFFFFF;" d="M20.43,4.165c-0.044,0.112-1.813,4.773-1.813,4.773l-1.021-0.385l1.496-4.903
							c0,0,0.028-0.218,0.211-0.147c0.184,0.071,0.911,0.344,1.051,0.397C20.499,3.951,20.481,4.022,20.43,4.165"/>
						<path style="fill:#FFFFFF;" d="M13.079,23.539c0.048-0.112,1.808-4.773,1.808-4.773l-1.023-0.385l-2.129,4.66
							c0,0-0.124,0.177,0.06,0.255c0.184,0.064,0.906,0.344,1.053,0.397C12.987,23.741,13.026,23.682,13.079,23.539"/>
					</g>
				</g>
			</g>
		</g>
		<g>
			<g id="Layer_1_2_">
			</g>
			<g id="Mode_Isolation_1_">
				<g>
					<rect x="40.407" style="fill:#EF5CA1;" width="22.222" height="27.05"/>
					<g>
						<path style="fill:#FFFFFF;" d="M45.804,21.596V7.092h5.498c1.264,0,2.292,0.326,3.082,0.977
							c0.789,0.652,1.186,1.608,1.186,2.873c0,1.859-0.815,3.155-2.446,3.887l3.261,6.769h-2.937l-2.806-6.276h-2.334v6.276
							L45.804,21.596L45.804,21.596z M48.328,13.292h2.028c1.758,0,2.634-0.72,2.634-2.161c0-1.365-0.776-2.049-2.331-2.049h-2.334
							L48.328,13.292L48.328,13.292z"/>
					</g>
				</g>
			</g>
		</g>
		<g>
			<path style="fill:none;" d="M0.132,27.8c0.05,0.03,0.164,0.08,0.288,0.08c0.224,0,0.296-0.142,0.293-0.252
				c-0.002-0.182-0.166-0.26-0.335-0.26H0.28v-0.132h0.098c0.128,0,0.29-0.065,0.29-0.22c0-0.104-0.066-0.196-0.228-0.196
				c-0.104,0-0.204,0.046-0.26,0.086l-0.048-0.128c0.07-0.05,0.202-0.1,0.342-0.1c0.256,0,0.372,0.152,0.372,0.31
				c0,0.136-0.082,0.25-0.24,0.309v0.004c0.16,0.029,0.288,0.149,0.29,0.331c0,0.208-0.164,0.391-0.474,0.391
				c-0.146,0-0.274-0.047-0.338-0.089L0.132,27.8z"/>
		</g>
	</g>
</g>
</svg>
