<svg xmlns="http://www.w3.org/2000/svg" viewBox="0 0 83 28" enable-background="new 0 0 83 28"><g><g><path d="M3.592 0s-3.592 5.425-3.592 14.001c0 8.578 3.592 13.999 3.592 13.999h31.421v-28h-31.421z" fill="#EC2227"/><g fill="#fff"><path d="M5.871 8.355h3.838c2.432 0 3.503 1.25 3.503 2.678 0 1.584-.938 2.231-1.384 2.431.892.268 1.874 1.117 1.874 2.7 0 2.074-1.495 3.48-3.726 3.48h-4.105v-11.289zm3.301 4.597c1.026 0 1.696-.426 1.696-1.451 0-.715-.4-1.361-1.561-1.361h-1.072v2.812h.937zm.179 5.02c1.071 0 1.986-.38 1.986-1.719 0-1.05-.691-1.628-1.942-1.628h-1.16v3.347h1.116zM24.795 17.034c.76.401 1.607.826 2.878.826 1.071 0 1.606-.625 1.606-1.295 0-.915-.647-1.316-2.253-2.006-1.428-.603-2.433-1.34-2.433-3.192 0-1.785 1.361-3.279 3.994-3.279 1.295 0 2.275.358 2.877.692l-.714 1.941c-.581-.357-1.427-.625-2.296-.625-.937 0-1.585.423-1.585 1.16 0 .716.47 1.206 1.74 1.741 2.321.981 2.945 1.786 2.945 3.391 0 2.613-1.964 3.526-3.726 3.526-1.695 0-2.944-.602-3.769-1.162l.736-1.718zM20.833 15.717v-7.362h2.365v7.452c0 3.233-1.964 4.105-4.194 4.105-2.232 0-4.195-.872-4.195-4.105v-7.452h2.366v7.362c0 1.474.602 2.186 1.83 2.186 1.226-.001 1.828-.713 1.828-2.186z"/></g></g><path fill="#fff" stroke="#007F3E" stroke-width="1.4" stroke-miterlimit="10" d="M40.414.7h42v26.6h-42z"/><g fill="#007F3E"><path d="M55.214 23.284v-2.557h4.65v-12.953l-4.31 2.435-1.169-2.265 6.014-3.287h2.728v16.069h3.725v2.557h-11.638zM77.553 22.979c-.804.35-1.749.523-2.837.523-1.087 0-2.029-.174-2.824-.523-.795-.349-1.429-.803-1.899-1.363-.471-.56-.844-1.266-1.119-2.118-.276-.853-.459-1.704-.548-2.557-.09-.852-.135-1.83-.135-2.934 0-1.299.098-2.479.293-3.543.194-1.063.523-2.065.985-3.007.463-.941 1.141-1.68 2.033-2.215s1.964-.804 3.214-.804c1.022 0 1.924.183 2.703.548s1.408.844 1.887 1.437c.479.593.868 1.315 1.169 2.167.3.852.507 1.712.621 2.581.113.869.17 1.814.17 2.837 0 1.104-.045 2.082-.134 2.934-.09.853-.272 1.704-.548 2.557s-.649 1.559-1.12 2.118c-.471.56-1.108 1.014-1.911 1.362zm-2.837-2.325c1.071 0 1.863-.499 2.374-1.497.512-.998.768-2.625.768-4.882 0-1.428-.082-2.617-.244-3.566-.162-.95-.483-1.737-.962-2.362s-1.124-.938-1.936-.938c-.601 0-1.111.167-1.533.5-.423.333-.747.824-.975 1.473-.228.649-.386 1.364-.475 2.143s-.133 1.696-.133 2.75c0 2.257.256 3.884.767 4.882.511.998 1.294 1.497 2.349 1.497z"/></g><g><path fill="#048040" d="M40.414 1h12.795v27.031h-12.795z"/><path fill="none" d="M41.383 4.172h10.535v22.388h-10.535z"/><path d="M42.344 18.837l.816-1.732c1.235.51 2.31.764 3.228.764.816 0 1.385-.179 1.707-.535.324-.356.484-.766.484-1.232 0-.452-.135-.83-.407-1.13s-.714-.575-1.326-.824l-1.444-.577c-.476-.193-.869-.376-1.181-.552-.312-.176-.608-.393-.892-.655-.283-.261-.493-.571-.628-.933-.136-.362-.204-.782-.204-1.257 0-1.076.408-1.968 1.223-2.676s1.971-1.062 3.466-1.062c1.37 0 2.542.238 3.516.714l-.763 1.986c-.872-.51-1.829-.764-2.871-.764-.589 0-1.076.139-1.461.417-.385.278-.577.648-.577 1.112 0 .362.105.663.314.901.209.238.581.465 1.113.68l1.749.713c.974.396 1.682.873 2.124 1.427.442.554.663 1.28.663 2.174 0 .804-.139 1.495-.417 2.073-.278.578-.652 1.009-1.121 1.292-.471.283-.943.484-1.419.603-.475.12-.98.179-1.512.179-1.609-.001-3.003-.369-4.18-1.106z" fill="#fff" enable-background="new"/></g><g fill="none"><path d="M.472 26.864h-.004l-.226.122-.034-.134.284-.151h.15v1.299h-.17v-1.136zM1.981 27.336c0 .442-.166.687-.452.687-.254 0-.428-.238-.432-.668 0-.438.19-.676.454-.676.272 0 .43.244.43.657zm-.705.02c0 .338.104.529.264.529.178 0 .264-.21.264-.541 0-.32-.08-.53-.264-.53-.152 0-.264.189-.264.542z"/></g></g></svg>