<svg xmlns="http://www.w3.org/2000/svg" viewBox="0 0 83 28" enable-background="new 0 0 83 28"><g><g><path d="M3.592 0s-3.592 5.425-3.592 14.001c0 8.578 3.592 13.999 3.592 13.999h31.421v-28h-31.421z" fill="#EC2227"/><g fill="#fff"><path d="M5.871 8.355h3.838c2.432 0 3.503 1.25 3.503 2.678 0 1.584-.938 2.231-1.384 2.431.892.268 1.874 1.117 1.874 2.7 0 2.074-1.495 3.48-3.726 3.48h-4.105v-11.289zm3.301 4.597c1.026 0 1.696-.426 1.696-1.451 0-.715-.4-1.361-1.561-1.361h-1.072v2.812h.937zm.179 5.02c1.071 0 1.986-.38 1.986-1.719 0-1.05-.691-1.628-1.942-1.628h-1.16v3.347h1.116zM24.795 17.034c.76.401 1.607.826 2.878.826 1.071 0 1.606-.625 1.606-1.295 0-.915-.647-1.316-2.253-2.006-1.428-.603-2.433-1.34-2.433-3.192 0-1.785 1.361-3.279 3.994-3.279 1.295 0 2.275.358 2.877.692l-.714 1.941c-.581-.357-1.427-.625-2.296-.625-.937 0-1.585.423-1.585 1.16 0 .716.47 1.206 1.74 1.741 2.321.981 2.945 1.786 2.945 3.391 0 2.613-1.964 3.526-3.726 3.526-1.695 0-2.944-.602-3.769-1.162l.736-1.718zM20.833 15.717v-7.362h2.365v7.452c0 3.233-1.964 4.105-4.194 4.105-2.232 0-4.195-.872-4.195-4.105v-7.452h2.366v7.362c0 1.474.602 2.186 1.83 2.186 1.226-.001 1.828-.713 1.828-2.186z"/></g></g><path fill="#fff" stroke="#007F3E" stroke-width="1.4" stroke-miterlimit="10" d="M40.414.7h42v26.6h-42z"/><path d="M62.131 19.973v-2.824l6.452-12.49h4.358v12.612h2.361v2.702h-2.361v3.312h-3.068v-3.312h-7.742zm2.8-2.702h4.942v-10.081c-.162.617-.584 1.583-1.266 2.897l-3.676 7.184z" fill="#007F3E"/><g><path fill="#048040" d="M40.414 1h12.795v27.031h-12.795z"/><path fill="none" d="M41.383 4.172h10.535v22.388h-10.535z"/><path d="M42.344 18.837l.816-1.732c1.235.51 2.31.764 3.228.764.816 0 1.385-.179 1.707-.535.324-.356.484-.766.484-1.232 0-.452-.135-.83-.407-1.13s-.714-.575-1.326-.824l-1.444-.577c-.476-.193-.869-.376-1.181-.552-.312-.176-.608-.393-.892-.655-.283-.261-.493-.571-.628-.933-.136-.362-.204-.782-.204-1.257 0-1.076.408-1.968 1.223-2.676s1.971-1.062 3.466-1.062c1.37 0 2.542.238 3.516.714l-.763 1.986c-.872-.51-1.829-.764-2.871-.764-.589 0-1.076.139-1.461.417-.385.278-.577.648-.577 1.112 0 .362.105.663.314.901.209.238.581.465 1.113.68l1.749.713c.974.396 1.682.873 2.124 1.427.442.554.663 1.28.663 2.174 0 .804-.139 1.495-.417 2.073-.278.578-.652 1.009-1.121 1.292-.471.283-.943.484-1.419.603-.475.12-.98.179-1.512.179-1.609-.001-3.003-.369-4.18-1.106z" fill="#fff" enable-background="new"/></g><path d="M.634 28v-.355h-.604v-.115l.58-.829h.19v.807h.182v.137h-.182v.355h-.166zm0-.492v-.434l.006-.203h-.006l-.108.191-.318.441v.004h.426z" fill="none"/></g></svg>