<svg xmlns="http://www.w3.org/2000/svg" viewBox="0 0 66 28" enable-background="new 0 0 66 28"><g><g><path d="M3.595 0s-3.59 5.425-3.595 13.991c-.003 8.572 3.58 13.991 3.58 13.991l31.397.018.017-27.981-31.399-.019z" fill="#EC2227"/><path fill="#fff" d="M17.496 8.469l-5.919-.003v-3.475l15.56.008-.003 3.475-5.92-.003-.008 15.244-3.72-.002z"/></g><path fill="#883F98" d="M38.105 0h28v28h-28z"/><path d="M46.253 24.896v-2.94h5.349v-14.897l-4.956 2.8-1.345-2.604 6.916-3.78h3.137v18.48h4.283v2.94h-13.384z" fill="#fff"/><path d="M.472 26.864h-.004l-.226.122-.034-.134.284-.151h.15v1.299h-.17v-1.136z" fill="none"/></g></svg>