<svg xmlns="http://www.w3.org/2000/svg" viewBox="0 0 66 28" enable-background="new 0 0 66 28"><g><g><path d="M3.595 0s-3.59 5.425-3.595 13.991c-.003 8.572 3.58 13.991 3.58 13.991l31.397.018.017-27.981-31.399-.019z" fill="#EC2227"/><path fill="#fff" d="M17.496 8.469l-5.919-.003v-3.475l15.56.008-.003 3.475-5.92-.003-.008 15.244-3.72-.002z"/></g><path fill="#883F98" d="M38.105 0h28v28h-28z"/><path d="M45.609 24.896v-2.744c0-1.082.308-2.09.924-3.023s1.624-1.933 3.024-2.996l2.575-1.933c1.009-.746 1.745-1.446 2.212-2.1s.7-1.418.7-2.296c0-2.277-1.194-3.416-3.584-3.416-1.55 0-3.154.448-4.815 1.344l-1.232-2.66c2.054-1.232 4.162-1.848 6.328-1.848 2.184 0 3.934.532 5.25 1.596s1.974 2.558 1.974 4.48c0 1.643-.321 2.978-.966 4.004-.644 1.026-1.713 2.1-3.206 3.22l-3.107 2.324c-.784.579-1.293 1.078-1.526 1.498s-.369.892-.406 1.414h9.548v3.136h-13.693z" fill="#fff"/><path d="M.09 28v-.108l.138-.134c.332-.315.483-.483.483-.68 0-.132-.062-.254-.256-.254-.118 0-.216.061-.276.11l-.056-.124c.088-.074.218-.132.366-.132.28 0 .398.192.398.378 0 .24-.174.434-.448.697l-.101.097v.005h.582v.145h-.83z" fill="none"/></g></svg>