<svg xmlns="http://www.w3.org/2000/svg" viewBox="0 0 66 28" enable-background="new 0 0 66 28"><g><g><path d="M3.595 0s-3.59 5.425-3.595 13.991c-.003 8.572 3.58 13.991 3.58 13.991l31.397.018.017-27.981-31.399-.019z" fill="#EC2227"/><path fill="#fff" d="M17.496 8.469l-5.919-.003v-3.475l15.56.008-.003 3.475-5.92-.003-.008 15.244-3.72-.002z"/></g><path fill="#883F98" d="M38.105 0h28v28h-28z"/><path d="M45.077 23.468l1.064-2.912c1.586.821 3.191 1.231 4.815 1.231 1.325 0 2.333-.316 3.024-.951.69-.635 1.036-1.466 1.036-2.492 0-1.96-1.308-2.94-3.921-2.94h-2.436v-3.081h1.904c1.213 0 2.202-.261 2.968-.784.766-.522 1.148-1.334 1.148-2.436 0-1.754-1.056-2.632-3.164-2.632-1.792 0-3.538.522-5.236 1.568l-1.288-2.884c2.277-1.288 4.704-1.932 7.28-1.932 2.053 0 3.611.48 4.676 1.442 1.063.961 1.596 2.245 1.596 3.85 0 2.146-1.055 3.715-3.164 4.704 1.083.373 1.923 1.003 2.521 1.89.597.887.896 1.975.896 3.262 0 1.942-.667 3.552-2.002 4.83-1.335 1.279-3.196 1.918-5.586 1.918-2.183 0-4.227-.55-6.131-1.651z" fill="#fff"/><path d="M.132 27.8c.05.03.164.08.288.08.224 0 .296-.142.293-.252-.002-.182-.166-.26-.335-.26h-.098v-.132h.098c.128 0 .29-.065.29-.22 0-.104-.066-.196-.228-.196-.104 0-.204.046-.26.086l-.048-.128c.07-.05.202-.1.342-.1.256 0 .372.152.372.31 0 .136-.082.25-.24.309v.004c.16.029.288.149.29.331 0 .208-.164.391-.474.391-.146 0-.274-.047-.338-.089l.048-.134z" fill="none"/></g></svg>