<svg enable-background="new 0 0 76 25.3" viewBox="0 0 76 25.3" xmlns="http://www.w3.org/2000/svg"><path d="m36.7.9h38.5v23.6h-38.5z" fill="#fff"/><path d="m74.3 1.7v21.9h-36.7v-21.9zm1.7-1.7h-40.1v25.3h40.1z" fill="#58595a"/><path d="m36 0h39.5v24.9h-39.5z" fill="none"/><g fill="#58595a"><path d="m43.1 7.8h-4.1v-2.4h10.8v2.3h-4.1v13.2h-2.7v-13.1z"/><path d="m52.3 17.8c.6.3 1.9.9 3.4.9 1.9 0 2.9-1 2.9-2.4 0-1.6-1.2-2.1-2.8-2.1h-1.8v-2.2h1.3c1.6 0 2.9-.6 2.9-2.3 0-1.2-.6-1.8-2.2-1.8-1.4 0-2.8.5-3.7 1.1l-.9-2c1.4-.8 3.3-1.4 5.2-1.4 3 0 4.4 1.6 4.4 3.7 0 1.8-1 2.7-2.2 3.3 1.5.5 2.4 1.8 2.4 3.6 0 2.6-1.9 4.8-5.4 4.8-2 0-3.6-.7-4.3-1.2z"/><path d="m62.3 14c0-4.9 2.1-8.6 6.3-8.6 1.1 0 2.2.3 2.9.6l-.7 2c-.4-.2-1-.4-1.8-.4-2.2 0-3.7 1.6-4 5 .5-.3 1.8-.9 3.2-.9 1.6 0 3.8.8 3.8 4 0 3-1.9 5.2-4.9 5.2-3.4 0-4.8-2.8-4.8-6.9zm7.1 2.2c0-1.5-.6-2.2-1.9-2.2-.7 0-1.7.2-2.5.6 0 2.8.6 4.1 2.3 4.1 1.5.1 2.1-1 2.1-2.5z"/></g><path d="m3.2 0s-3.2 4.9-3.2 12.7 3.2 12.7 3.2 12.7h28.4v-25.4z" fill="#e20613"/><path d="m22.1 15.4c.7.4 1.5.7 2.6.7 1 0 1.5-.6 1.5-1.2 0-.8-.6-1.2-2-1.8-1.3-.5-2.2-1.1-2.2-2.8 0-1.6 1.2-3 3.6-3 1.2 0 2.1.3 2.6.6l-.6 1.8c-.5-.3-1.3-.6-2.1-.6s-1.4.4-1.4 1 .4 1.1 1.6 1.6c2.1.9 2.7 1.6 2.7 3.1 0 2.4-1.8 3.2-3.4 3.2-1.5 0-2.7-.5-3.4-1zm-3.3-1.2v-6.6h2.1v6.7c0 2.9-1.8 3.7-3.8 3.7s-3.8-.8-3.8-3.7v-6.7h2.1v6.7c0 1.3.5 2 1.7 2 1.1-.1 1.7-.7 1.7-2.1m-10.3 2.1c1 0 1.8-.3 1.8-1.6 0-.9-.6-1.5-1.8-1.5h-1v3 .1zm-.2-4.6c.9 0 1.5-.4 1.5-1.3 0-.6-.4-1.2-1.4-1.2h-1v2.5zm-3-4.1h3.5c2.2 0 3.2 1.1 3.2 2.4 0 1.4-.8 2-1.2 2.2.8.2 1.7 1 1.7 2.4 0 1.9-1.4 3.1-3.4 3.1h-3.8z" fill="#fff"/></svg>