<svg xmlns="http://www.w3.org/2000/svg" viewBox="0 0 66 28" enable-background="new 0 0 66 28"><g><g><path d="M3.595 0s-3.59 5.425-3.595 13.991c-.003 8.572 3.58 13.991 3.58 13.991l31.397.018.017-27.981-31.399-.019z" fill="#EC2227"/><path fill="#fff" d="M17.496 8.469l-5.919-.003v-3.475l15.56.008-.003 3.475-5.92-.003-.008 15.244-3.72-.002z"/></g><path fill="#883F98" d="M38.105 0h28v28h-28z"/><path d="M45.693 23.747l.756-2.632c1.68.598 3.294.896 4.844.896 1.4 0 2.459-.351 3.178-1.05.719-.7 1.078-1.703 1.078-3.011 0-1.213-.321-2.086-.966-2.617-.644-.533-1.629-.799-2.954-.799h-5.292l.364-11.06h12.208v3.08h-8.568l-.195 4.872h2.744c2.071 0 3.668.536 4.787 1.609 1.12 1.074 1.681 2.638 1.681 4.691 0 2.203-.649 3.99-1.946 5.362-1.298 1.372-3.188 2.058-5.67 2.058-2.036.001-4.052-.465-6.049-1.399z" fill="#fff"/><path d="M.866 26.849h-.496l-.05.334.106-.006c.102 0 .2.02.28.069.102.057.186.17.186.332 0 .254-.202.444-.484.444-.142 0-.26-.04-.324-.08l.044-.134c.054.031.16.071.28.071.164 0 .308-.107.306-.281 0-.168-.114-.286-.372-.286l-.182.012.083-.623h.622v.148z" fill="none"/></g></svg>