<svg xmlns="http://www.w3.org/2000/svg" viewBox="0 0 66 28" enable-background="new 0 0 66 28"><g><g><path d="M3.595 0s-3.59 5.425-3.595 13.991c-.003 8.572 3.58 13.991 3.58 13.991l31.397.018.017-27.981-31.399-.019z" fill="#EC2227"/><path fill="#fff" d="M17.496 8.469l-5.919-.003v-3.475l15.56.008-.003 3.475-5.92-.003-.008 15.244-3.72-.002z"/></g><path fill="#883F98" d="M38.105 0h28v28h-28z"/><path d="M52.665 25.147c-2.352 0-4.098-.868-5.236-2.604-1.139-1.736-1.708-4.116-1.708-7.141 0-3.64.771-6.58 2.311-8.82s3.756-3.36 6.65-3.36c1.586 0 2.958.28 4.115.84l-.979 2.912c-.822-.411-1.671-.616-2.548-.616-1.624 0-2.932.593-3.92 1.778-.99 1.186-1.568 2.954-1.736 5.306 1.418-.896 2.958-1.344 4.62-1.344.634 0 1.241.084 1.819.252.579.168 1.152.453 1.723.854.569.402 1.021.994 1.357 1.778.336.785.504 1.727.504 2.829 0 2.184-.635 3.953-1.903 5.306-1.27 1.354-2.96 2.03-5.069 2.03zm.252-2.967c1.923 0 2.884-1.232 2.884-3.696 0-1.082-.215-1.871-.644-2.366-.43-.494-1.111-.741-2.044-.741-1.214 0-2.38.308-3.5.924 0 1.997.256 3.477.77 4.438.513.96 1.358 1.441 2.534 1.441z" fill="#fff"/><path d="M.832 26.824l-.132.011c-.278.044-.422.243-.452.459h.004c.062-.084.172-.151.316-.151.229 0 .392.168.392.42 0 .239-.162.46-.434.46-.276 0-.458-.217-.458-.554 0-.256.09-.458.22-.586.108-.106.251-.172.416-.192l.128-.01v.143zm-.05.75c0-.186-.106-.298-.268-.298-.106 0-.206.064-.254.16l-.018.076c.002.214.102.373.288.373.15.001.252-.125.252-.311z" fill="none"/></g></svg>