<?xml version="1.0" encoding="utf-8"?>
<!-- Generator: Adobe Illustrator 22.1.0, SVG Export Plug-In . SVG Version: 6.00 Build 0)  -->
<svg version="1.1" id="Calque_1" xmlns="http://www.w3.org/2000/svg" xmlns:xlink="http://www.w3.org/1999/xlink" x="0px" y="0px"
	 viewBox="0 0 66 28" style="enable-background:new 0 0 66 28;" xml:space="preserve">
<style type="text/css">
	.st0{fill:#EC2227;}
	.st1{fill:#FFFFFF;}
	.st2{fill:#883F98;}
	.st3{fill:none;}
</style>
<g>
	<g>
		<path class="st0" d="M3.6,0C3.6,0,0,5.4,0,14c0,8.6,3.6,14,3.6,14L35,28l0-28C35,0,3.6,0,3.6,0z"/>
		<path class="st1" d="M17.5,8.5l-5.9,0V5l15.6,0l0,3.5l-5.9,0l0,15.2l-3.7,0L17.5,8.5z"/>
	</g>
	<path class="st2" d="M38.1,0h28v28h-28L38.1,0z"/>
	<path class="st3" d="M0.8,26.8l-0.1,0c-0.3,0-0.4,0.2-0.5,0.5h0c0.1-0.1,0.2-0.2,0.3-0.2c0.2,0,0.4,0.2,0.4,0.4
		C1,27.8,0.8,28,0.5,28c-0.3,0-0.5-0.2-0.5-0.6c0-0.3,0.1-0.5,0.2-0.6c0.1-0.1,0.3-0.2,0.4-0.2l0.1,0C0.8,26.7,0.8,26.8,0.8,26.8z
		 M0.8,27.6c0-0.2-0.1-0.3-0.3-0.3c-0.1,0-0.2,0.1-0.3,0.2l0,0.1c0,0.2,0.1,0.4,0.3,0.4C0.7,27.9,0.8,27.8,0.8,27.6z"/>
	<path class="st1" d="M48.7,25.1c0-2.5,0.2-4.5,0.6-5.9c0.4-1.4,1.2-3,2.5-5l1.6-2.4c1.4-2,2.1-3.5,2.2-4.3c0-0.3,0.1-0.6,0.1-0.8
		h-9.9V3.7h13.7c0.1,0.9,0.2,1.6,0.2,2.4c0,1.3-0.2,2.5-0.6,3.5c-0.4,1-1.3,2.6-2.8,4.8l-1.9,2.8c-0.7,1.1-1.2,2.1-1.4,3.1
		c-0.2,1-0.3,2.6-0.3,4.9L48.7,25.1L48.7,25.1z"/>
</g>
</svg>
