<?xml version="1.0" encoding="UTF-8"?>
<svg id="Calque_1" data-name="Calque 1" xmlns="http://www.w3.org/2000/svg" viewBox="0 0 180 90">
  <defs>
    <style>
      .cls-1 {
        fill: #fff;
      }

      .cls-2 {
        fill: #cfb254;
      }

      .cls-3 {
        fill: #e30613;
      }
    </style>
  </defs>
  <g>
    <path class="cls-3" d="M175.1,0H4.6C2.1,0,0,2.1,0,4.7V85.4c0,2.5,2.1,4.6,4.6,4.6H175.1c2.6,0,4.7-2.1,4.7-4.6V4.7c0-2.6-2.1-4.7-4.7-4.7ZM78,82.7H7.3V7.3H78V82.7Z"/>
    <path class="cls-1" d="M7.3,7.3V82.7H78V7.3H7.3Zm49.7,59.1c-.4,.1-1,.3-1.7,.4-.7,.1-1.5,.2-2.4,.2-1,0-1.9-.1-2.6-.2-.8-.1-1.4-.2-1.7-.3l-13.5-23v22.9c-1.7,.4-3.3,.5-4.7,.5s-3-.2-4.7-.5V24.5h-.1c.9-.1,1.6-.3,2.3-.3,.7-.1,1.4-.1,2-.1,.7,0,1.4,.1,2.2,.1,.8,.1,1.4,.2,2,.3l13.6,23V24.5c1-.1,1.9-.3,2.8-.3,.8-.1,1.6-.1,2.2-.1,.7,0,1.4,0,2.1,.1,.7,.1,1.5,.2,2.3,.3l-.1,41.9Z"/>
    <path class="cls-2" d="M57.1,24.5l-.1,41.9c-.4,.1-1,.3-1.7,.4-.7,.1-1.5,.2-2.4,.2-1,0-1.9-.1-2.6-.2-.8-.1-1.4-.2-1.7-.3l-13.5-23v22.9c-1.7,.4-3.3,.5-4.7,.5s-3-.2-4.7-.5V24.5h-.1c.9-.1,1.6-.3,2.3-.3,.7-.1,1.4-.1,2-.1,.7,0,1.4,.1,2.2,.1,.8,.1,1.4,.2,2,.3l13.6,23V24.5c1-.1,1.9-.3,2.8-.3,.8-.1,1.6-.1,2.2-.1,.7,0,1.4,0,2.1,.1,.7,.1,1.5,.2,2.3,.3Z"/>
  </g>
  <g>
    <path class="cls-1" d="M93.76,36.84h-6.12v-3.42h16.2v3.42h-6.12v19.74h-3.97v-19.74Z"/>
    <path class="cls-1" d="M106.92,33.42h8.78c3.84,0,6.81,1.94,6.81,6.15,0,2.51-1.03,4.9-3.91,6.21l5.21,10.81h-4.69l-4.48-10.02h-3.72v10.02h-4v-23.16Zm7.27,9.9c2.66,0,4.21-.97,4.21-3.45s-1.54-3.27-3.72-3.27h-3.72v6.72h3.24Z"/>
    <path class="cls-1" d="M131.8,33.42h5.48l7.11,23.16h-4.36l-1.54-5.45h-7.78l-1.57,5.45h-4.3l6.96-23.16Zm5.81,14.53l-2.54-8.93c-.33-1.15-.27-1.21-.39-2.18h-.09c-.09,.76-.03,1-.45,2.42l-2.54,8.69h6.02Z"/>
    <path class="cls-1" d="M147.87,33.42h5.42l4.93,15.89c.3,.97,.42,1.63,.45,2.42h.09c.06-.79,.12-1.36,.45-2.42l4.93-15.89h5.42l.79,23.16h-4.33l-.15-16.62-.76,2.51-4.24,14.11h-4.33l-4.33-14.44-.67-2.18-.15,16.62h-4.33l.79-23.16Z"/>
  </g>
</svg>